<?xml version="1.0" encoding="UTF-8" standalone="no"?>
<svg
   width="10.16mm"
   height="128.5mm"
   viewBox="0 0 38.399999 485.66933"
   version="1.1"
   id="svg34"
   sodipodi:docname="Blank2R.svg"
   inkscape:version="1.2.2 (b0a84865, 2022-12-01)"
   xmlns:inkscape="http://www.inkscape.org/namespaces/inkscape"
   xmlns:sodipodi="http://sodipodi.sourceforge.net/DTD/sodipodi-0.dtd"
   xmlns="http://www.w3.org/2000/svg"
   xmlns:svg="http://www.w3.org/2000/svg"
   xmlns:rdf="http://www.w3.org/1999/02/22-rdf-syntax-ns#"
   xmlns:cc="http://creativecommons.org/ns#"
   xmlns:dc="http://purl.org/dc/elements/1.1/">
  <metadata
     id="metadata38">
    <rdf:RDF>
      <cc:Work
         rdf:about="">
        <dc:format>image/svg+xml</dc:format>
        <dc:type
           rdf:resource="http://purl.org/dc/dcmitype/StillImage" />
      </cc:Work>
    </rdf:RDF>
  </metadata>
  <sodipodi:namedview
     pagecolor="#ffffff"
     bordercolor="#666666"
     borderopacity="1"
     objecttolerance="10"
     gridtolerance="10"
     guidetolerance="10"
     inkscape:pageopacity="0"
     inkscape:pageshadow="2"
     inkscape:window-width="1720"
     inkscape:window-height="1301"
     id="namedview36"
     showgrid="false"
     inkscape:zoom="2.5129335"
     inkscape:cx="42.181777"
     inkscape:cy="196.98094"
     inkscape:window-x="1720"
     inkscape:window-y="25"
     inkscape:window-maximized="0"
     inkscape:current-layer="svg34"
     inkscape:showpageshadow="0"
     inkscape:pagecheckerboard="0"
     inkscape:deskcolor="#d1d1d1"
     inkscape:document-units="mm" />
  <defs
     id="defs7">
    <rect
       x="9.1436644"
       y="459.68243"
       width="44.223267"
       height="13.883199"
       id="rect425" />
    <rect
       x="16.739546"
       y="54.469952"
       width="16.075277"
       height="11.292551"
       id="rect45919" />
    <rect
       x="10.495622"
       y="401.73669"
       width="28.807133"
       height="14.515222"
       id="rect22791" />
    <rect
       x="6.9226441"
       y="462.92392"
       width="43.992287"
       height="11.835489"
       id="rect18111" />
    <linearGradient
       id="a2d41a32-129a-467c-88bb-0081d4967003"
       x1="120"
       x2="120"
       y2="380"
       gradientUnits="userSpaceOnUse">
      <stop
         offset="0"
         stop-color="#ebebeb"
         id="stop2" />
      <stop
         offset="1"
         stop-color="#e1e1e1"
         id="stop4" />
    </linearGradient>
  </defs>
  <g
     id="ff212d66-6d77-44f8-85c7-307f2d84ecf1"
     data-name="FND BG"
     style="display:inline"
     transform="scale(0.16,1.2780772)">
    <rect
       width="240"
       height="380"
       fill="url(#a2d41a32-129a-467c-88bb-0081d4967003)"
       id="rect9"
       x="0"
       y="0"
       style="display:inline;fill:url(#a2d41a32-129a-467c-88bb-0081d4967003)" />
  </g>
  <g
     id="path48495-1-4-9-0-1">
    <path
       style="color:#000000;fill:#b2b2b2;stroke-width:6.04724;stroke-linejoin:bevel;stroke-dasharray:6.04724, 6.04724, 3.02362, 6.04724, 12.0945;-inkscape-stroke:none"
       d="M 0,429.60375 H 32.296806"
       id="path59979" />
    <path
       style="color:#000000;fill:#4c4c4c;stroke-linejoin:bevel;stroke-dasharray:6.04724, 6.04724, 3.02362, 6.04724, 12.0945;-inkscape-stroke:none"
       d="m 0,426.58008 v 6.04687 h 6.046875 v -6.04687 z m 12.09375,0 v 6.04687 h 3.023438 v -6.04687 z m 9.072266,0 v 6.04687 h 11.130859 v -6.04687 z"
       id="path59981" />
    <g
       id="g59971">
      <path
         style="color:#000000;fill:#4c4c4c;stroke-linecap:round;-inkscape-stroke:none"
         d="m 13.529297,409.32422 a 3.0236199,3.0236199 0 0 0 0,4.27539 l 16.003906,16.00391 -16.003906,16.0039 a 3.0236199,3.0236199 0 0 0 0,4.27539 3.0236199,3.0236199 0 0 0 4.27539,0 l 20.279297,-20.27929 -20.279297,-20.2793 a 3.0236199,3.0236199 0 0 0 -4.27539,0 z"
         id="path59973" />
    </g>
  </g>
  <g
     id="path48495-1-4-1-6">
    <path
       style="color:#000000;fill:#b2b2b2;stroke-width:6.04724;stroke-linejoin:bevel;stroke-dasharray:6.04724, 6.04724, 3.02362, 6.04724, 12.0945;-inkscape-stroke:none"
       d="M 0.15766595,380.41698 H 32.454472"
       id="path59993" />
    <path
       style="color:#000000;fill:#4c4c4c;stroke-linejoin:bevel;stroke-dasharray:6.04724, 6.04724, 3.02362, 6.04724, 12.0945;-inkscape-stroke:none"
       d="m 0.15820312,377.39258 v 6.04883 H 6.2050781 v -6.04883 z m 12.09374988,0 v 6.04883 h 3.023438 v -6.04883 z m 9.070313,0 v 6.04883 h 11.132812 v -6.04883 z"
       id="path59995" />
    <g
       id="g59985">
      <path
         style="color:#000000;fill:#4c4c4c;stroke-linecap:round;-inkscape-stroke:none"
         d="m 15.824219,359.25195 a 3.0236199,3.0236199 0 0 0 -2.136719,0.88477 3.0236199,3.0236199 0 0 0 0,4.27734 l 16.001953,16.00196 -16.001953,16.0039 a 3.0236199,3.0236199 0 0 0 0,4.27735 3.0236199,3.0236199 0 0 0 4.275391,0 l 20.279296,-20.28125 -20.279296,-20.2793 a 3.0236199,3.0236199 0 0 0 -2.138672,-0.88477 z"
         id="path59987" />
    </g>
  </g>
  <g
     id="path48495-1-4-9-0">
    <path
       style="color:#000000;fill:#b2b2b2;stroke-width:6.04724;stroke-linejoin:bevel;stroke-dasharray:6.04724, 6.04724, 3.02362, 6.04724, 12.0945;-inkscape-stroke:none"
       d="M 0.15766596,331.23021 H 32.454472"
       id="path60007" />
    <path
       style="color:#000000;fill:#4c4c4c;stroke-linejoin:bevel;stroke-dasharray:6.04724, 6.04724, 3.02362, 6.04724, 12.0945;-inkscape-stroke:none"
       d="m 0.15820312,328.20703 v 6.04688 H 6.2050781 v -6.04688 z m 12.09374988,0 v 6.04688 h 3.023438 v -6.04688 z m 9.070313,0 v 6.04688 h 11.132812 v -6.04688 z"
       id="path60009" />
    <g
       id="g59999">
      <path
         style="color:#000000;fill:#4c4c4c;stroke-linecap:round;-inkscape-stroke:none"
         d="m 15.824219,310.06445 a 3.0236199,3.0236199 0 0 0 -2.136719,0.88672 3.0236199,3.0236199 0 0 0 0,4.27539 l 16.001953,16.00391 -16.001953,16.0039 a 3.0236199,3.0236199 0 0 0 0,4.2754 3.0236199,3.0236199 0 0 0 4.275391,0 l 20.279296,-20.2793 -20.279296,-20.2793 a 3.0236199,3.0236199 0 0 0 -2.138672,-0.88672 z"
         id="path60001" />
    </g>
  </g>
  <g
     id="path48495-1-4-1">
    <path
       style="color:#000000;fill:#b2b2b2;stroke-width:6.04724;stroke-linejoin:bevel;stroke-dasharray:6.04724, 6.04724, 3.02362, 6.04724, 12.0945;-inkscape-stroke:none"
       d="M 0.31533191,282.04344 H 32.612138"
       id="path60021" />
    <path
       style="color:#000000;fill:#4c4c4c;stroke-linejoin:bevel;stroke-dasharray:6.04724, 6.04724, 3.02362, 6.04724, 12.0945;-inkscape-stroke:none"
       d="m 0.31445313,279.01953 v 6.04688 H 6.3632812 v -6.04688 z m 12.09570287,0 v 6.04688 h 3.023438 v -6.04688 z m 9.070313,0 v 6.04688 h 11.130859 v -6.04688 z"
       id="path60023" />
    <g
       id="g60013">
      <path
         style="color:#000000;fill:#4c4c4c;stroke-linecap:round;-inkscape-stroke:none"
         d="m 15.982422,260.87891 a 3.0236199,3.0236199 0 0 0 -2.138672,0.88476 3.0236199,3.0236199 0 0 0 0,4.27539 l 16.003906,16.00391 -16.003906,16.0039 a 3.0236199,3.0236199 0 0 0 0,4.2754 3.0236199,3.0236199 0 0 0 4.277344,0 l 20.279297,-20.2793 -20.279297,-20.2793 a 3.0236199,3.0236199 0 0 0 -2.138672,-0.88476 z"
         id="path60015" />
    </g>
  </g>
  <g
     id="path48495-1-9">
    <path
       style="color:#000000;fill:#b2b2b2;stroke-width:6.04724;stroke-linejoin:bevel;stroke-dasharray:6.04724, 6.04724, 3.02362, 6.04724, 12.0945;-inkscape-stroke:none"
       d="M 0.31533211,232.85667 H 32.612138"
       id="path60035" />
    <path
       style="color:#000000;fill:#4c4c4c;stroke-linejoin:bevel;stroke-dasharray:6.04724, 6.04724, 3.02362, 6.04724, 12.0945;-inkscape-stroke:none"
       d="m 0.31445313,229.83398 v 6.04688 H 6.3632812 v -6.04688 z m 12.09570287,0 v 6.04688 h 3.023438 v -6.04688 z m 9.070313,0 v 6.04688 h 11.130859 v -6.04688 z"
       id="path60037" />
    <g
       id="g60027">
      <path
         style="color:#000000;fill:#4c4c4c;stroke-linecap:round;-inkscape-stroke:none"
         d="m 15.982422,211.69141 a 3.0236199,3.0236199 0 0 0 -2.138672,0.88476 3.0236199,3.0236199 0 0 0 0,4.27735 l 16.003906,16.0039 -16.003906,16.00391 a 3.0236199,3.0236199 0 0 0 0,4.27539 3.0236199,3.0236199 0 0 0 4.277344,0 l 20.279297,-20.2793 -20.279297,-20.28125 a 3.0236199,3.0236199 0 0 0 -2.138672,-0.88476 z"
         id="path60029" />
    </g>
  </g>
  <g
     id="path48495-1-4-9">
    <path
       style="color:#000000;fill:#b2b2b2;stroke-width:6.04724;stroke-linejoin:bevel;stroke-dasharray:6.04724, 6.04724, 3.02362, 6.04724, 12.0945;-inkscape-stroke:none"
       d="M 0.31533226,183.6699 H 32.612138"
       id="path60049" />
    <path
       style="color:#000000;fill:#4c4c4c;stroke-linejoin:bevel;stroke-dasharray:6.04724, 6.04724, 3.02362, 6.04724, 12.0945;-inkscape-stroke:none"
       d="m 0.31445313,180.64648 v 6.04688 H 6.3632812 v -6.04688 z m 12.09570287,0 v 6.04688 h 3.023438 v -6.04688 z m 9.070313,0 v 6.04688 h 11.130859 v -6.04688 z"
       id="path60051" />
    <g
       id="g60041">
      <path
         style="color:#000000;fill:#4c4c4c;stroke-linecap:round;-inkscape-stroke:none"
         d="m 15.982422,162.50391 a 3.0236199,3.0236199 0 0 0 -2.138672,0.88671 3.0236199,3.0236199 0 0 0 0,4.2754 l 16.003906,16.0039 -16.003906,16.00391 a 3.0236199,3.0236199 0 0 0 0,4.27539 3.0236199,3.0236199 0 0 0 4.277344,0 l 20.279297,-20.2793 -20.279297,-20.2793 a 3.0236199,3.0236199 0 0 0 -2.138672,-0.88671 z"
         id="path60043" />
    </g>
  </g>
  <g
     id="path48495-1-4">
    <path
       style="color:#000000;fill:#b2b2b2;stroke-width:6.04724;stroke-linejoin:bevel;stroke-dasharray:6.04724, 6.04724, 3.02362, 6.04724, 12.0945;-inkscape-stroke:none"
       d="M 0.47299821,134.48313 H 32.769804"
       id="path60063" />
    <path
       style="color:#000000;fill:#4c4c4c;stroke-linejoin:bevel;stroke-dasharray:6.04724, 6.04724, 3.02362, 6.04724, 12.0945;-inkscape-stroke:none"
       d="m 0.47265625,131.45898 v 6.04688 H 6.5195312 v -6.04688 z m 12.09570275,0 v 6.04688 h 3.023438 v -6.04688 z m 9.070313,0 v 6.04688 h 11.130859 v -6.04688 z"
       id="path60065" />
    <g
       id="g60055">
      <path
         style="color:#000000;fill:#4c4c4c;stroke-linecap:round;-inkscape-stroke:none"
         d="m 14.001953,114.20313 a 3.0236199,3.0236199 0 0 0 0,4.27539 l 16.003906,16.0039 -16.003906,16.00391 a 3.0236199,3.0236199 0 0 0 0,4.27734 3.0236199,3.0236199 0 0 0 4.275391,0 l 20.28125,-20.28125 -20.28125,-20.27929 a 3.0236199,3.0236199 0 0 0 -4.275391,0 z"
         id="path60057" />
    </g>
  </g>
  <g
     id="path48495-1">
    <path
       style="color:#000000;fill:#b2b2b2;stroke-width:6.04724;stroke-linejoin:bevel;stroke-dasharray:6.04724, 6.04724, 3.02362, 6.04724, 12.0945;-inkscape-stroke:none"
       d="M 0.47299841,85.296364 H 32.769804"
       id="path60077" />
    <path
       style="color:#000000;fill:#4c4c4c;stroke-linejoin:bevel;stroke-dasharray:6.04724, 6.04724, 3.02362, 6.04724, 12.0945;-inkscape-stroke:none"
       d="m 0.47265625,82.273437 v 6.046875 H 6.5195312 v -6.046875 z m 12.09570275,0 v 6.046875 h 3.023438 v -6.046875 z m 9.070313,0 v 6.046875 h 11.130859 v -6.046875 z"
       id="path60079" />
    <g
       id="g60069">
      <path
         style="color:#000000;fill:#4c4c4c;stroke-linecap:round;-inkscape-stroke:none"
         d="m 16.140625,64.130859 a 3.0236199,3.0236199 0 0 0 -2.138672,0.886719 3.0236199,3.0236199 0 0 0 0,4.275391 L 30.005859,85.296875 14.001953,101.30078 a 3.0236199,3.0236199 0 0 0 0,4.27539 3.0236199,3.0236199 0 0 0 4.275391,0 L 38.558594,85.296875 18.277344,65.017578 a 3.0236199,3.0236199 0 0 0 -2.136719,-0.886719 z"
         id="path60071" />
    </g>
  </g>
  <g
     id="b660f694-0f3e-42b6-93f7-7ede9c067179"
     data-name="components"
     inkscape:groupmode="layer"
     style="display:inline">
    <rect
       id="abeeb0d9-2e17-439a-8711-ace9121243e1"
       data-name="Screen"
       y="38"
       width="76.800003"
       height="310.21326"
       x="0"
       style="display:none;fill:#ffff00;stroke-width:0.565685" />
  </g>
  <rect
     style="display:none;fill:#cacaca;fill-opacity:1;stroke-width:25.2358;stroke-linejoin:bevel"
     id="rect15138"
     width="57.600002"
     height="37.795277"
     x="9.7283944e-08"
     y="447.87405" />
</svg>
