<?xml version="1.0" encoding="UTF-8" standalone="no"?>
<!-- Created with Inkscape (http://www.inkscape.org/) -->

<svg
   width="15.24mm"
   height="128.5mm"
   viewBox="0 0 15.24 128.5"
   version="1.1"
   id="svg5"
   xml:space="preserve"
   inkscape:version="1.2.2 (b0a84865, 2022-12-01)"
   sodipodi:docname="DemoModule.svg"
   xmlns:inkscape="http://www.inkscape.org/namespaces/inkscape"
   xmlns:sodipodi="http://sodipodi.sourceforge.net/DTD/sodipodi-0.dtd"
   xmlns="http://www.w3.org/2000/svg"
   xmlns:svg="http://www.w3.org/2000/svg"><sodipodi:namedview
     id="namedview7"
     pagecolor="#ffffff"
     bordercolor="#999999"
     borderopacity="1"
     inkscape:showpageshadow="0"
     inkscape:pageopacity="0"
     inkscape:pagecheckerboard="0"
     inkscape:deskcolor="#d1d1d1"
     inkscape:document-units="mm"
     showgrid="false"
     inkscape:zoom="7.6821411"
     inkscape:cx="-4.1655054"
     inkscape:cy="43.99815"
     inkscape:window-width="1720"
     inkscape:window-height="1301"
     inkscape:window-x="1720"
     inkscape:window-y="25"
     inkscape:window-maximized="0"
     inkscape:current-layer="layer1" /><defs
     id="defs2"><linearGradient
       id="e54ef980-998c-4ad0-9676-a26d002d49f9"
       x1="22.5"
       x2="22.5"
       y2="380"
       gradientUnits="userSpaceOnUse"><stop
         offset="0"
         stop-color="#ebebeb"
         id="stop2" /><stop
         offset="1"
         stop-color="#e1e1e1"
         id="stop4" /></linearGradient></defs><g
     inkscape:groupmode="layer"
     id="layer1"
     inkscape:label="components"><ellipse
       style="fill:#0000ff;fill-opacity:1;stroke-width:0.28987"
       id="ellipse2460"
       cx="7.8056259"
       cy="64.004784"
       rx="5.5754466"
       ry="5.5754476"
       inkscape:highlight-color="#12a99d"
       inkscape:label="SINE" /><circle
       style="fill:#ff00ff;fill-opacity:1;stroke-width:0.264583"
       id="path3242"
       cx="8.0629539"
       cy="111.50894"
       r="1.2008655"
       inkscape:label="BLINK" /><g
       transform="matrix(0.01812255,0,0,-0.01912321,-0.75592019,129.47426)"
       fill="#000000"
       stroke="none"
       id="g137"><path
         d="m 829,6728 c 0,-23 -1,-70 -2,-103 l -2,-60 -50,-5 -50,-5 v -40 -40 h 57 c 31,0 60,-3 64,-7 4,-5 -25,-8 -65,-8 h -72 l 3,58 3,57 48,3 47,3 v 90 89 h -40 c -39,0 -40,-1 -40,-34 0,-59 -7,-66 -66,-66 h -54 v 50 50 h -39 c -37,0 -39,-1 -43,-37 -3,-23 0,-46 9,-58 23,-34 16,-83 -16,-116 -31,-31 -64,-36 -105,-18 -24,11 -45,41 -25,36 5,-1 11,22 13,51 3,41 0,52 -10,48 -8,-3 -11,0 -8,9 3,7 11,16 18,18 8,3 11,17 8,36 -4,29 -7,31 -48,31 h -44 v -50 -50 h -55 -55 v 50 50 h -45 -46 l 3,-92 3,-92 40,-2 c 22,-1 43,-2 48,-3 4,0 7,-26 7,-56 v -55 h -70 c -38,0 -70,3 -70,8 0,4 28,7 62,7 h 63 l 3,43 3,42 h -50 -51 v 100 c 0,91 -2,100 -19,100 -18,0 -19,-16 -24,-367 C 65,6190 62,5468 61,4786 60,4105 58,3545 56,3541 54,3538 51,2754 49,1800 46,201 47,65 62,62 c 12,-2 17,6 20,30 3,32 4,33 56,36 l 52,3 v 39 39 l -47,3 -48,3 -3,57 -3,58 h 106 105 v -50 c 0,-38 4,-50 15,-50 8,0 15,-5 15,-11 0,-6 -8,-9 -17,-7 -14,2 -19,16 -23,53 l -5,50 -92,3 -93,3 v -46 -45 h 50 50 v -55 -54 l -50,-7 c -44,-6 -50,-9 -50,-30 0,-24 2,-24 95,-24 h 95 v 35 c 0,34 1,35 40,35 22,0 40,-4 40,-10 0,-5 -16,-10 -35,-10 -31,0 -35,-3 -35,-25 0,-23 4,-25 44,-25 41,0 45,2 49,28 l 4,27 2,-27 c 1,-26 4,-28 45,-28 43,0 45,1 48,32 3,33 3,33 58,33 h 55 l 3,-37 3,-38 h 90 89 v 29 c 0,28 -2,30 -47,33 l -48,3 -3,58 -3,57 h 51 50 v 45 45 h -90 -90 v -49 c 0,-52 -15,-66 -55,-50 -17,7 -16,8 8,8 26,1 27,3 27,51 v 50 h 105 105 v -60 -60 h -45 -45 v -40 -40 h 45 c 45,0 45,0 45,-35 0,-44 29,-49 47,-7 17,37 32,4589 15,4578 -6,-3 -13,-2 -17,4 -3,5 0,10 8,10 11,0 15,60 20,347 12,596 8,1610 -6,1677 -15,73 -37,87 -38,24 z M 342,6562 c -20,-3 -23,-8 -20,-45 l 3,-42 45,-3 c 24,-2 47,-7 50,-12 3,-4 4,-51 2,-104 l -3,-96 h -54 -54 l -3,48 -3,47 -93,3 -92,3 v -46 -45 h 50 50 v -55 -55 h -50 -50 v -45 -45 h 89 90 l 3,48 3,47 57,3 57,3 3,-48 3,-48 h 40 40 l 3,48 c 3,44 5,47 33,49 78,5 74,7 79,-47 l 5,-50 93,-3 92,-3 v 46 45 h -50 -50 v 55 55 h 34 c 56,0 66,8 66,51 v 40 l -92,-3 -93,-3 -3,-47 -3,-48 h -55 -54 v 105 105 h 50 50 v 45 c 0,41 -2,45 -25,45 -14,0 -25,5 -25,10 0,11 30,13 54,4 11,-4 16,-19 16,-44 0,-61 -7,-70 -56,-70 h -44 v -89 -89 l 33,-5 c 43,-6 47,-3 47,49 v 44 h 105 c 58,0 105,-3 106,-7 5,-41 5,-80 1,-90 -2,-8 -22,-13 -47,-13 -41,0 -43,-1 -48,-37 -4,-20 -4,-39 -2,-41 3,-3 24,-5 47,-6 l 43,-1 3,-57 3,-58 h -96 c -52,0 -98,-1 -102,-2 -5,-2 -9,21 -11,50 l -3,52 h -38 c -43,0 -51,-10 -51,-66 v -34 h -54 -55 l -3,48 -3,47 h -40 -40 l -3,-47 -3,-48 H 214 110 v 54 55 l 48,3 47,3 v 40 40 l -47,3 -48,3 v 55 54 h 104 105 l 3,-47 3,-48 h 40 40 l 3,93 3,92 h -51 -50 v 54 c 0,55 10,69 40,57 11,-4 8,-7 -8,-9 z M 120,5920 v -50 h 40 c 39,0 40,1 40,34 0,65 2,66 116,66 h 104 v -55 -55 h -50 -50 v -45 -45 h 50 50 v -54 c 0,-30 -5,-58 -10,-61 -6,-4 -55,-3 -110,1 l -100,7 v 48 49 h -40 -40 v -145 -145 h 39 40 l 3,48 3,47 h 105 105 v -55 -55 l -45,-3 c -49,-4 -60,-13 -60,-54 0,-25 3,-27 53,-30 l 52,-3 v -55 -55 H 310 205 l -3,48 -3,47 h -40 -39 v -45 c 0,-48 -20,-69 -43,-46 -8,8 -7,11 5,11 13,0 18,11 20,48 l 3,47 h 55 55 l 3,-47 3,-48 h 90 89 v 39 40 l -47,3 -48,3 v 55 55 l 48,3 47,3 v 40 39 h -89 -90 l -3,-47 -3,-48 h -55 -55 v 155 155 l 58,3 57,3 v -51 -50 h 90 90 v 45 45 h -51 -50 l 3,53 3,52 48,3 47,3 v 45 c 0,50 5,49 -112,37 l -68,-6 v -43 -44 h -57 -58 l -2,41 c -1,26 -8,45 -20,54 -17,13 -16,14 10,15 26,0 27,-2 27,-50 z m 602,3 3,-48 43,-3 42,-3 v 50 c 0,46 2,51 23,51 20,-1 20,-2 5,-11 -13,-7 -18,-23 -18,-54 v -45 h -55 -55 v 50 51 l -92,-3 -93,-3 -3,-42 -3,-43 h 50 51 v -54 -55 l -47,-3 -48,-3 -3,-42 -3,-43 h 95 96 v 50 50 h 55 56 l -3,-157 -3,-158 -52,-3 -53,-3 v 50 51 h -95 -95 v -40 -40 h 50 51 l -3,-57 -3,-58 -47,-3 -48,-3 v -40 -39 h 95 95 v 50 50 h 55 55 v -49 c 0,-30 5,-51 13,-54 6,-2 9,-8 5,-12 -15,-16 -28,8 -28,51 v 44 h -44 -45 l -3,-47 -3,-48 -102,-3 -103,-3 v 61 60 h 50 50 v 40 40 h -50 -50 v 60 60 h 105 105 v -50 -50 h 45 45 v 146 145 l -42,-3 -43,-3 -3,-47 -3,-46 -83,-7 c -118,-10 -126,-6 -126,61 v 54 h 50 50 v 45 45 h -50 -50 v 55 55 h 104 105 z m -410,-805 3,-53 42,-3 42,-3 3,53 3,53 h 55 55 l 3,-53 3,-53 42,3 42,3 5,50 5,50 h 100 100 l 3,-57 3,-58 h -51 -51 l 3,-42 3,-43 48,-3 47,-3 v -55 -54 H 716 611 l -3,48 -3,47 -42,3 -43,3 v -51 -51 l -57,3 -58,3 -3,48 -3,48 -42,-3 c -39,-3 -42,-5 -43,-33 -3,-70 6,-65 -109,-65 H 100 v 55 55 h 50 50 v 45 45 h -50 -50 v 53 c 0,30 3,57 7,60 3,4 50,7 104,7 h 98 z M 94,4764 c 11,-4 16,-19 16,-53 v -46 l 45,-2 45,-2 v 50 50 l 108,-3 107,-3 v -50 -50 l -50,-5 -50,-5 -3,-42 -3,-43 h 50 c 34,0 51,-4 52,-12 5,-42 5,-75 1,-85 -3,-9 -34,-13 -108,-13 H 201 l -3,48 -3,47 h -40 -40 l -3,-142 -3,-143 h 46 45 v 50 50 h 105 105 l 2,-32 c 0,-18 1,-42 2,-53 1,-17 -7,-21 -49,-25 l -50,-5 -3,-42 -3,-43 h 50 c 54,0 53,1 53,-60 0,-64 7,-60 -107,-60 H 200 v 50 50 h -45 -45 v -50 c 0,-43 -3,-50 -20,-50 -11,0 -20,5 -20,10 0,6 7,10 14,10 11,0 16,14 18,48 l 3,47 53,3 52,3 v -49 c 0,-47 2,-50 29,-54 15,-2 58,-2 95,0 l 66,4 v 39 38 l -47,3 -48,3 -3,58 -3,57 h 51 51 l -3,43 -3,42 h -90 -90 l -5,-50 -5,-50 h -50 -50 l -3,158 -3,157 h 56 55 v -50 -50 h 95 95 v 46 c 0,45 0,46 -32,43 -67,-4 -68,-4 -68,55 v 55 l 48,3 47,3 3,43 3,43 -93,-3 -93,-3 -3,-47 -3,-48 h -55 -54 v 50 c 0,38 -4,50 -15,50 -8,0 -15,5 -15,10 0,12 3,12 24,4 z m 624,-46 c 3,-50 13,-58 62,-55 22,2 26,7 30,51 3,27 11,51 18,54 6,2 12,-1 12,-7 0,-6 -4,-11 -9,-11 -6,0 -11,-21 -13,-47 l -3,-48 h -55 -55 l -3,48 -3,47 h -90 -89 v -45 -45 h 50 50 v -55 -55 h -50 -50 v -45 -45 h 89 90 l 3,48 3,47 55,3 55,3 v -158 -158 l -31,-3 c -16,-2 -42,2 -57,7 -24,9 -27,16 -27,55 v 45 l -87,-4 -88,-4 -3,-41 -3,-40 h 51 51 l -3,-57 -3,-58 -47,-3 -48,-3 v -40 -39 h 89 90 l 3,48 3,47 h 55 55 l 3,-45 c 2,-24 9,-48 15,-52 16,-10 1,-22 -18,-15 -10,5 -15,20 -15,52 v 45 h -45 -45 l 3,-47 2,-48 H 610 505 l -3,34 c -2,19 -1,44 2,57 6,21 12,24 52,24 50,0 58,10 46,55 -8,27 -13,30 -48,30 h -39 l -3,58 -3,58 103,-3 103,-3 3,-47 3,-48 h 40 39 v 145 145 h -40 -40 v -50 -50 H 609 499 l 3,53 3,52 50,5 50,5 v 40 40 l -50,5 c -46,5 -50,7 -53,34 -7,61 3,75 61,79 28,2 75,3 102,3 l 50,-1 z m -410,-811 3,-47 h 45 44 v 44 44 l 50,7 c 27,4 54,4 60,0 5,-3 10,-26 10,-51 v -44 h 39 40 l 3,48 3,47 102,3 101,3 7,-50 c 4,-28 4,-55 0,-61 -3,-5 -26,-10 -51,-10 -28,0 -44,-5 -45,-12 -1,-7 -3,-25 -5,-40 -3,-27 -1,-28 46,-28 52,0 60,-8 60,-60 0,-58 -3,-60 -116,-60 H 600 v 50 50 h -39 c -43,0 -51,-10 -51,-66 v -34 h -55 -55 v 50 50 h -45 -45 v -50 -50 H 205 100 v 60 60 h 50 50 v 40 40 h -50 -50 v 61 61 l 103,-4 102,-4 z m 402,-402 5,-50 h 40 40 l 3,45 c 4,51 16,70 34,52 9,-9 8,-12 -5,-12 -14,0 -17,-10 -17,-50 v -50 h -55 -55 v 50 50 h -90 -90 v -45 -45 h 45 45 v -54 -55 l -47,-3 -48,-3 v -40 -40 h 90 90 l 3,46 3,47 47,5 c 26,3 50,3 54,0 8,-4 11,-306 4,-314 -2,-2 -27,-2 -55,-1 l -51,4 v 43 c 0,51 -7,53 -117,47 l -73,-4 v -39 -39 h 50 50 v -54 -55 l -47,-3 -48,-3 -3,-42 -3,-43 h 95 96 v 50 50 h 55 55 v -49 c 0,-39 4,-51 18,-54 13,-4 12,-5 -5,-6 -19,-1 -22,5 -25,47 l -3,47 -42,3 -43,3 v -50 -51 H 605 500 v 55 55 h 51 50 l -3,43 -3,42 h -45 -45 l -3,58 -3,57 h 106 105 v -50 -50 h 45 45 v 146 145 l -42,-3 -43,-3 -3,-47 -3,-48 H 604 500 v 55 55 h 50 50 v 45 45 h -50 -50 v 55 54 l 58,4 c 31,2 77,3 102,3 l 45,-1 z m -600,-6 v -50 l 43,3 42,3 3,48 3,47 h 105 104 v -55 -55 h -50 -50 v -45 -45 h 50 50 v -55 -55 H 306 201 l -3,48 -3,47 -42,3 -43,3 v -145 -146 h 40 c 37,0 40,2 40,28 0,71 2,72 116,72 h 104 v -54 -55 l -47,-3 -48,-3 -3,-42 -3,-43 h 50 51 v -55 -55 H 306 202 l -7,50 -7,50 h -39 -39 v -50 c 0,-45 -2,-50 -22,-49 -13,0 -17,3 -11,6 7,2 13,20 13,38 0,58 7,65 66,65 h 54 v -50 -50 h 90 90 v 45 45 h -51 -50 l 3,53 3,52 48,3 47,3 v 40 39 h -90 -90 v -44 c 0,-49 -9,-56 -70,-56 h -37 l -8,149 c -4,83 -4,155 0,160 3,6 31,11 61,11 h 54 v -50 -51 l 93,3 92,3 v 40 40 l -47,3 -48,3 v 54 54 l 48,3 47,3 v 40 40 l -92,3 -93,3 v -51 -51 l -57,3 -58,3 3,42 c 3,31 -1,44 -15,52 -17,10 -16,10 5,11 20,0 22,-5 22,-51 z m 198,-801 3,-48 h 39 39 l 3,48 3,47 h 55 55 l 3,-47 3,-48 h 45 44 v 50 50 h 105 105 v -60 -60 h -50 -50 v -40 -40 h 50 50 v -60 -60 H 705 600 v 50 50 h -44 -45 l -3,-47 -3,-48 h -55 -55 l -3,48 -3,48 -42,-3 c -34,-2 -42,-7 -43,-23 0,-11 -1,-32 -2,-47 l -2,-28 H 195 89 l 3,58 3,57 48,3 47,3 v 39 39 l -47,3 -48,3 -3,44 c -5,72 -5,72 110,69 l 103,-3 z M 100,2300 v -50 h 44 45 l 3,48 3,47 h 105 105 v -55 -55 l -47,-3 c -40,-3 -47,-6 -52,-28 -12,-47 1,-64 49,-64 h 43 l 6,-45 c 4,-25 4,-49 1,-55 -3,-6 -52,-10 -111,-10 H 190 v 50 50 H 145 99 l 3,-142 3,-143 43,-3 42,-3 v 49 c 0,32 5,52 13,55 8,3 54,4 103,4 l 89,-2 9,-42 c 13,-61 5,-73 -48,-73 -52,0 -59,-8 -51,-52 6,-30 10,-33 48,-36 22,-1 44,-5 47,-8 6,-7 7,-91 0,-97 -5,-6 -129,-11 -182,-8 -27,1 -28,3 -28,52 v 50 l -42,-3 -43,-3 -3,-47 c -3,-44 -23,-70 -37,-48 -4,6 1,10 9,10 12,0 16,11 16,50 v 50 h 55 55 v -50 -49 h 95 95 v 45 44 h -50 -51 l 3,58 3,57 48,3 47,3 v 40 40 l -92,-3 -93,-3 -3,-47 -3,-48 H 144 90 v 155 155 h 54 55 l 3,-47 3,-48 93,-3 92,-3 v 46 45 h -50 -50 v 55 c 0,48 3,55 20,56 11,1 25,3 30,4 6,1 19,3 30,4 16,1 20,8 20,41 v 40 h -89 -90 l -3,-47 -3,-48 -57,-3 -58,-3 v 51 c 0,27 -4,50 -10,50 -5,0 -10,5 -10,10 0,6 7,10 15,10 11,0 15,-12 15,-50 z m 610,-1 v -50 l 43,3 42,3 3,48 c 2,33 7,47 18,47 7,0 14,-4 14,-10 0,-5 -4,-10 -10,-10 -5,0 -10,-22 -10,-50 v -50 h -54 -55 l -3,48 -3,47 -92,3 -93,3 v -40 c 0,-38 19,-59 41,-45 6,3 21,3 35,0 22,-6 24,-11 24,-61 v -55 h -50 -50 v -45 -46 l 93,3 92,3 3,46 c 3,46 4,47 42,53 70,11 70,12 70,-161 v -154 l -57,3 -58,3 v 45 45 l -92,3 -93,3 v -41 c 0,-36 3,-40 25,-41 14,-1 30,-3 35,-4 6,-1 17,-3 25,-4 11,-1 15,-14 15,-56 v -55 h -50 -50 v -45 -45 h 89 90 l 3,48 3,47 58,3 57,3 v -50 c 0,-30 5,-51 13,-54 6,-3 2,-6 -10,-6 -21,-1 -23,4 -23,49 v 50 h -40 -40 v -50 -50 H 606 c -58,0 -107,4 -110,9 -3,5 -3,29 0,54 l 7,46 46,3 46,3 v 40 40 l -47,3 -48,3 v 53 53 l 89,7 c 113,8 121,5 121,-50 v -44 h 40 40 v 140 140 h -40 -40 v -50 -50 H 605 500 v 54 55 l 47,3 48,3 -1,40 v 40 l -46,3 c -54,4 -62,15 -52,79 l 6,43 H 606 710 Z M 300,1490 v -50 h 45 45 v 50 51 l 58,-3 57,-3 3,-47 3,-48 h 39 39 l 3,48 3,47 108,3 107,3 v -55 -55 l -47,-3 -48,-3 -3,-42 -3,-42 48,-3 48,-3 v -55 -55 H 700 595 l -3,48 -3,47 h -39 -39 l -3,-47 -3,-48 h -55 -55 l -3,48 -3,47 h -45 -44 v -50 -50 H 195 90 v 60 60 h 51 50 l -3,43 c -3,40 -4,42 -38,44 -19,1 -41,2 -47,2 -9,1 -13,19 -13,56 v 55 H 195 300 Z M 98,1087 c 3,-38 7,-47 23,-48 68,-4 64,-7 69,46 l 5,50 102,3 103,3 v -61 -60 h -50 -50 v -40 -40 h 50 50 V 880 820 H 295 190 v 50 50 H 145 100 V 775 630 h 45 45 v 50 c 0,28 3,50 8,51 40,5 486,7 497,3 10,-4 15,-20 15,-50 v -44 h 40 40 v 140 140 h -39 -40 l -3,-47 -3,-48 H 600 495 v 55 55 l 48,3 47,3 v 39 39 l -48,3 -47,3 v 55 55 h 105 105 l 3,-47 3,-48 h 40 39 v 45 c 0,32 5,47 15,52 19,7 34,-5 18,-15 -6,-4 -13,-28 -15,-52 l -3,-45 h -55 -55 l -3,48 -3,47 h -90 -89 v -39 -40 l 48,-3 47,-3 v -55 -55 l -47,-3 -48,-3 v -40 -39 h 89 90 l 3,48 3,47 h 55 55 V 780 625 l -57,-3 -58,-3 v 51 50 H 445 200 V 670 620 H 145 90 v 160 160 h 55 55 v -50 -50 h 95 95 v 40 40 h -50 -50 v 55 54 l 50,7 50,7 v 38 39 h -95 -95 v -50 -50 H 145 90 v 50 c 0,38 -4,50 -15,50 -8,0 -15,5 -15,11 0,6 8,9 18,7 13,-2 18,-15 20,-51 z M 357,635 c 8,-8 19,-13 24,-10 5,4 9,-5 9,-19 0,-14 5,-26 12,-26 6,0 4,-7 -5,-18 -25,-27 -21,-32 23,-32 38,0 40,2 34,24 -3,13 0,36 8,50 12,24 13,22 14,-34 l 1,-60 -104,1 c -56,0 -103,3 -103,6 0,3 16,25 35,49 19,23 35,45 35,47 0,14 -40,-8 -45,-24 -4,-10 -10,-19 -15,-19 -11,0 4,44 22,65 17,19 36,19 55,0 z m 178,-22 c 6,-17 7,-17 21,1 13,19 14,19 14,-6 0,-24 5,-27 37,-30 l 36,-3 -27,-32 c -27,-32 -76,-46 -76,-22 0,5 -5,7 -11,3 -8,-4 -9,3 -5,23 4,16 2,42 -3,56 -6,15 -7,27 -2,27 5,0 12,-8 16,-17 z m 269,-89 c 3,-9 6,-24 6,-34 0,-10 6,-21 13,-24 9,-5 9,-7 -1,-12 -10,-5 -10,-9 -1,-20 9,-11 7,-14 -10,-14 -19,0 -21,6 -21,50 v 50 h -39 -40 l -3,-47 -3,-48 -258,-3 -257,-2 v 50 50 h -45 -45 v -50 c 0,-43 -3,-50 -20,-50 -11,0 -20,5 -20,10 0,6 6,9 12,8 9,-2 14,13 16,45 l 3,47 h 55 54 v -50 -50 h 245 245 v 49 c 0,49 1,50 33,54 64,8 75,7 81,-9 z M 500,314 c 0,-13 -3,-14 -14,-5 -8,7 -31,10 -55,7 -23,-3 -41,-1 -41,5 0,5 25,9 55,9 44,0 55,-3 55,-16 z m 4,-40 c 34,-35 35,-87 2,-129 -31,-39 -92,-42 -130,-6 -27,26 -37,52 -11,31 13,-11 15,-8 15,21 0,19 3,45 7,58 5,21 3,23 -13,18 -15,-6 -14,-3 5,13 34,30 92,27 125,-6 z"
         id="path115" /><path
         d="m 114,5136 c -3,-8 -4,-27 -2,-43 3,-26 7,-28 51,-31 l 47,-3 v -54 -54 l -47,-3 -48,-3 v -40 -40 h 90 90 l 3,48 3,47 h 60 59 v -44 c 0,-49 6,-54 56,-48 33,4 34,6 34,48 v 44 h 55 55 v -45 -45 h 90 90 v 40 40 h -44 -43 l -7,46 c -3,25 -3,50 0,55 3,5 25,9 50,9 h 44 v 45 45 h -90 -90 v -50 -50 h -55 -55 v 50 50 h -44 -45 l -3,-47 -3,-48 -57,-3 -58,-3 v 51 50 h -90 c -69,0 -92,-3 -96,-14 z"
         id="path117" /><path
         d="m 110,3900 v -40 h 50 50 v -60 -60 h -50 -50 v -45 -46 l 93,3 92,3 -2,30 c -4,68 2,75 62,75 h 55 v -50 -50 h 35 c 19,0 38,0 43,0 4,0 9,21 12,47 l 5,48 49,3 c 56,4 66,-5 66,-60 v -38 h 90 90 v 39 40 l -47,3 -48,3 v 55 55 l 48,3 47,3 v 40 39 h -89 -90 l -3,-47 -3,-48 h -55 -55 l -3,48 -3,47 h -45 -44 v -51 -50 l -52,3 -53,3 -3,48 -3,47 h -95 -94 z"
         id="path119" /><path
         d="m 448,2732 c -36,-3 -37,-4 -40,-50 l -3,-47 h -55 -55 l -3,48 -3,47 h -90 -89 v -40 -40 h 44 44 l 7,-50 c 4,-27 4,-54 0,-60 -3,-5 -28,-10 -56,-10 h -49 v -40 -40 h 94 95 l 3,48 3,47 h 55 55 l 3,-47 3,-48 h 45 44 v 50 50 h 55 55 v -50 -50 h 95 95 v 40 40 h -50 -50 v 59 60 l 48,3 47,3 v 40 40 l -50,3 c -27,2 -69,1 -92,-3 l -43,-6 v -50 -49 h -55 -55 v 49 c 0,28 -3,51 -7,53 -5,2 -25,2 -45,0 z"
         id="path121" /><path
         d="m 107,1524 c -4,-4 -7,-25 -7,-46 v -38 h 50 50 v -54 -55 l -47,-3 -48,-3 -3,-42 -3,-43 h 95 96 v 50 50 h 55 c 50,0 55,-2 57,-22 0,-13 2,-27 3,-33 2,-5 3,-18 4,-27 1,-14 10,-18 40,-18 h 40 l 3,48 3,47 58,3 57,3 v -51 -50 h 90 90 v 46 c 0,45 0,46 -30,39 -16,-4 -39,-4 -50,0 -18,6 -21,13 -18,58 l 3,52 50,5 c 53,5 51,3 47,65 -2,25 -3,25 -92,25 h -90 v -49 -48 l -47,-6 c -67,-7 -73,-2 -73,54 0,52 -6,57 -57,43 -19,-5 -23,-13 -23,-50 0,-39 -2,-43 -27,-46 -16,-2 -42,-1 -60,1 -30,3 -32,5 -35,50 l -3,46 -85,3 c -47,1 -89,0 -93,-4 z"
         id="path123" /><path
         d="m 332,572 -34,-42 h 26 c 19,0 29,7 37,27 19,52 5,59 -29,15 z"
         id="path125" /><path
         d="m 556,545 c -3,-10 1,-15 13,-15 10,0 24,7 31,15 11,13 9,15 -13,15 -14,0 -27,-7 -31,-15 z"
         id="path127" /><path
         d="m 220,6720 v -40 h 45 45 v 40 40 h -45 -45 z"
         id="path129" /><path
         d="m 429,6753 c 0,-5 -2,-16 -4,-25 -2,-14 4,-18 25,-18 16,0 35,-3 44,-6 13,-5 16,1 16,25 0,30 -2,31 -40,31 -22,0 -40,-3 -41,-7 z"
         id="path131" /><path
         d="m 630,6720 v -40 h 40 40 v 40 40 h -40 -40 z"
         id="path133" /><path
         d="m 507,103 c -4,-3 -7,-15 -7,-25 0,-15 8,-18 45,-18 41,0 45,2 45,25 0,22 -4,25 -38,25 -21,0 -42,-3 -45,-7 z"
         id="path135" /></g></g></svg>
