<?xml version="1.0" encoding="UTF-8" standalone="no"?>
<svg
   width="20.32mm"
   height="128.5mm"
   viewBox="0 0 76.799999 485.66933"
   version="1.1"
   id="svg34"
   sodipodi:docname="Notes1.svg"
   inkscape:version="1.2.2 (b0a84865, 2022-12-01)"
   xmlns:inkscape="http://www.inkscape.org/namespaces/inkscape"
   xmlns:sodipodi="http://sodipodi.sourceforge.net/DTD/sodipodi-0.dtd"
   xmlns="http://www.w3.org/2000/svg"
   xmlns:svg="http://www.w3.org/2000/svg"
   xmlns:rdf="http://www.w3.org/1999/02/22-rdf-syntax-ns#"
   xmlns:cc="http://creativecommons.org/ns#"
   xmlns:dc="http://purl.org/dc/elements/1.1/">
  <metadata
     id="metadata38">
    <rdf:RDF>
      <cc:Work
         rdf:about="">
        <dc:format>image/svg+xml</dc:format>
        <dc:type
           rdf:resource="http://purl.org/dc/dcmitype/StillImage" />
      </cc:Work>
    </rdf:RDF>
  </metadata>
  <sodipodi:namedview
     pagecolor="#ffffff"
     bordercolor="#666666"
     borderopacity="1"
     objecttolerance="10"
     gridtolerance="10"
     guidetolerance="10"
     inkscape:pageopacity="0"
     inkscape:pageshadow="2"
     inkscape:window-width="3440"
     inkscape:window-height="1301"
     id="namedview36"
     showgrid="false"
     inkscape:zoom="2.8025947"
     inkscape:cx="161.63593"
     inkscape:cy="348.24872"
     inkscape:window-x="0"
     inkscape:window-y="25"
     inkscape:window-maximized="1"
     inkscape:current-layer="svg34"
     inkscape:showpageshadow="0"
     inkscape:pagecheckerboard="0"
     inkscape:deskcolor="#d1d1d1"
     inkscape:document-units="mm" />
  <defs
     id="defs7">
    <linearGradient
       id="a2d41a32-129a-467c-88bb-0081d4967003"
       x1="120"
       x2="120"
       y2="380"
       gradientUnits="userSpaceOnUse">
      <stop
         offset="0"
         stop-color="#ebebeb"
         id="stop2" />
      <stop
         offset="1"
         stop-color="#e1e1e1"
         id="stop4" />
    </linearGradient>
  </defs>
  <g
     id="ff212d66-6d77-44f8-85c7-307f2d84ecf1"
     data-name="FND BG"
     style="display:inline"
     transform="scale(0.32,1.2780772)">
    <rect
       width="240"
       height="380"
       fill="url(#a2d41a32-129a-467c-88bb-0081d4967003)"
       id="rect9"
       x="0"
       y="0"
       style="display:inline;fill:url(#a2d41a32-129a-467c-88bb-0081d4967003)" />
  </g>
  <g
     id="be2da85e-1478-4d1b-867a-5b13dcd701fb"
     data-name="FND TXT"
     style="display:inline"
     transform="translate(-81.810911)">
    <g
       id="g29">
      <path
         d="m 98.66992,20.44141 a 0.956,0.956 0 0 1 0.96289,-0.96338 H 99.834 a 1.19028,1.19028 0 0 1 1,0.563 l 3.7168,4.87988 v -4.5171 a 0.95069,0.95069 0 1 1 1.90137,0 v 6.96924 a 0.956,0.956 0 0 1 -0.96387,0.96386 h -0.0625 a 1.19078,1.19078 0 0 1 -1,-0.56347 l -3.85351,-5.05469 v 4.69189 a 0.95118,0.95118 0 1 1 -1.90235,0 z"
         fill="#1f1f1f"
         id="path19" />
      <path
         d="m 108.25586,23.93262 v -0.02539 a 4.6564,4.6564 0 0 1 9.30859,-0.02491 v 0.02491 a 4.65641,4.65641 0 0 1 -9.30859,0.02539 z m 7.29492,0 v -0.02539 a 2.6612,2.6612 0 0 0 -2.65332,-2.75244 2.61944,2.61944 0 0 0 -2.62793,2.72753 v 0.02491 a 2.66143,2.66143 0 0 0 2.65235,2.75293 2.61993,2.61993 0 0 0 2.6289,-2.72754 z"
         fill="#1f1f1f"
         id="path21" />
      <path
         d="m 120.94434,21.30469 h -1.85157 a 0.88819,0.88819 0 0 1 0,-1.77637 h 5.62989 a 0.88819,0.88819 0 1 1 0,1.77637 h -1.85157 v 6.09375 a 0.96338,0.96338 0 1 1 -1.92675,0 z"
         fill="#1f1f1f"
         id="path23" />
      <path
         d="m 126.96875,27.32324 v -6.832 a 0.95629,0.95629 0 0 1 0.96484,-0.96289 h 4.85352 a 0.86419,0.86419 0 0 1 0.86328,0.86328 0.85343,0.85343 0 0 1 -0.86328,0.85059 h -3.90332 V 23.019 h 3.34082 a 0.86481,0.86481 0 0 1 0.86328,0.86328 0.85445,0.85445 0 0 1 -0.86328,0.85108 h -3.34082 v 1.83887 h 3.96582 a 0.86449,0.86449 0 0 1 0.86328,0.86328 0.85384,0.85384 0 0 1 -0.86328,0.85107 h -4.916 a 0.95639,0.95639 0 0 1 -0.96486,-0.96334 z"
         fill="#1f1f1f"
         id="path25" />
      <path
         d="m 135.24609,27.36084 a 0.9,0.9 0 0 1 -0.36328,-0.72607 0.88664,0.88664 0 0 1 0.90039,-0.88819 0.92557,0.92557 0 0 1 0.55078,0.1753 3.69452,3.69452 0 0 0 2.24024,0.78808 c 0.78711,0 1.26367,-0.3125 1.26367,-0.82568 v -0.0249 c 0,-0.48829 -0.30078,-0.73829 -1.76465,-1.11377 -1.76465,-0.45069 -2.90332,-0.93848 -2.90332,-2.67725 V 22.043 c 0,-1.58887 1.27735,-2.64014 3.06641,-2.64014 a 5.08773,5.08773 0 0 1 2.77734,0.77588 0.87743,0.87743 0 0 1 0.42578,0.76318 0.88656,0.88656 0 0 1 -0.90136,0.88819 0.91789,0.91789 0 0 1 -0.48731,-0.1377 3.651,3.651 0 0 0 -1.83984,-0.58789 c -0.73828,0 -1.126,0.33789 -1.126,0.76367 v 0.02442 c 0,0.57617 0.375,0.76367 1.88965,1.15137 1.77637,0.46289 2.77734,1.10107 2.77734,2.62793 v 0.02441 c 0,1.73926 -1.32617,2.71533 -3.21582,2.71533 a 5.6477,5.6477 0 0 1 -3.29002,-1.05081 z"
         fill="#1f1f1f"
         id="path27" />
    </g>
  </g>
  <g
     id="b660f694-0f3e-42b6-93f7-7ede9c067179"
     data-name="components"
     inkscape:groupmode="layer"
     style="display:inline">
    <rect
       id="abeeb0d9-2e17-439a-8711-ace9121243e1"
       data-name="Screen"
       y="38"
       width="76.800003"
       height="310.21326"
       x="0"
       style="display:none;fill:#ffff00;stroke-width:0.565685" />
  </g>
</svg>
