<?xml version="1.0" encoding="UTF-8" standalone="no"?>
<svg
   width="15.24mm"
   height="128.5mm"
   viewBox="0 0 57.599999 485.66933"
   version="1.1"
   id="svg34"
   sodipodi:docname="PIN8.svg"
   inkscape:version="1.2.2 (b0a84865, 2022-12-01)"
   xmlns:inkscape="http://www.inkscape.org/namespaces/inkscape"
   xmlns:sodipodi="http://sodipodi.sourceforge.net/DTD/sodipodi-0.dtd"
   xmlns="http://www.w3.org/2000/svg"
   xmlns:svg="http://www.w3.org/2000/svg"
   xmlns:rdf="http://www.w3.org/1999/02/22-rdf-syntax-ns#"
   xmlns:cc="http://creativecommons.org/ns#"
   xmlns:dc="http://purl.org/dc/elements/1.1/">
  <metadata
     id="metadata38">
    <rdf:RDF>
      <cc:Work
         rdf:about="">
        <dc:format>image/svg+xml</dc:format>
        <dc:type
           rdf:resource="http://purl.org/dc/dcmitype/StillImage" />
      </cc:Work>
    </rdf:RDF>
  </metadata>
  <sodipodi:namedview
     pagecolor="#ffffff"
     bordercolor="#666666"
     borderopacity="1"
     objecttolerance="10"
     gridtolerance="10"
     guidetolerance="10"
     inkscape:pageopacity="0"
     inkscape:pageshadow="2"
     inkscape:window-width="1720"
     inkscape:window-height="1301"
     id="namedview36"
     showgrid="false"
     inkscape:zoom="1.8584055"
     inkscape:cx="-179.18587"
     inkscape:cy="308.32883"
     inkscape:window-x="0"
     inkscape:window-y="25"
     inkscape:window-maximized="0"
     inkscape:current-layer="svg34"
     inkscape:showpageshadow="0"
     inkscape:pagecheckerboard="0"
     inkscape:deskcolor="#d1d1d1"
     inkscape:document-units="mm" />
  <defs
     id="defs7">
    <rect
       x="9.5"
       y="462.66667"
       width="39"
       height="13.833333"
       id="rect2301" />
    <rect
       x="16.739546"
       y="54.469952"
       width="16.075278"
       height="11.292551"
       id="rect45919" />
    <rect
       x="10.495622"
       y="401.73669"
       width="28.807133"
       height="14.515222"
       id="rect22791" />
    <rect
       x="6.9226441"
       y="462.92392"
       width="43.992287"
       height="11.835489"
       id="rect18111" />
    <linearGradient
       id="a2d41a32-129a-467c-88bb-0081d4967003"
       x1="120"
       x2="120"
       y2="380"
       gradientUnits="userSpaceOnUse">
      <stop
         offset="0"
         stop-color="#ebebeb"
         id="stop2" />
      <stop
         offset="1"
         stop-color="#e1e1e1"
         id="stop4" />
    </linearGradient>
  </defs>
  <g
     id="ff212d66-6d77-44f8-85c7-307f2d84ecf1"
     data-name="FND BG"
     style="display:inline"
     transform="scale(0.24000001,1.2780772)">
    <rect
       width="240"
       height="380"
       fill="url(#a2d41a32-129a-467c-88bb-0081d4967003)"
       id="rect9"
       x="0"
       y="0"
       style="display:inline;fill:url(#a2d41a32-129a-467c-88bb-0081d4967003)" />
  </g>
  <rect
     style="display:inline;mix-blend-mode:normal;fill:#cccccc;fill-opacity:1;stroke-width:56.735;stroke-linejoin:bevel"
     id="rect1386-9"
     width="49.133862"
     height="485.66931"
     x="4.2330704"
     y="5.6846216e-06"
     ry="0" />
  <rect
     style="display:inline;mix-blend-mode:normal;fill:#ffffff;fill-opacity:1;stroke-width:13.8803;stroke-linejoin:bevel;stroke-dasharray:none"
     id="rect1386-5-5-5-8-7-1-9-3"
     width="37.795277"
     height="37.795277"
     x="10.370369"
     y="408.62366"
     ry="5.9716482" />
  <rect
     style="display:inline;mix-blend-mode:normal;fill:#ffffff;fill-opacity:1;stroke-width:13.8803;stroke-linejoin:bevel;stroke-dasharray:none"
     id="rect1386-5-5-5-8-7-1-9"
     width="37.795277"
     height="37.795277"
     x="9.9023628"
     y="359.40283"
     ry="5.9716482" />
  <rect
     style="display:inline;mix-blend-mode:normal;fill:#ffffff;fill-opacity:1;stroke-width:13.8803;stroke-linejoin:bevel;stroke-dasharray:none"
     id="rect1386-5-5-5-8-7-1"
     width="37.795277"
     height="37.795277"
     x="9.9023628"
     y="310.18582"
     ry="5.9716482" />
  <rect
     style="display:inline;mix-blend-mode:normal;fill:#ffffff;fill-opacity:1;stroke-width:13.8803;stroke-linejoin:bevel;stroke-dasharray:none"
     id="rect1386-5-5-5-8-7"
     width="37.795277"
     height="37.795277"
     x="9.9023628"
     y="260.96881"
     ry="5.9716482" />
  <rect
     style="display:inline;mix-blend-mode:normal;fill:#ffffff;fill-opacity:1;stroke-width:13.8803;stroke-linejoin:bevel;stroke-dasharray:none"
     id="rect1386-5-5-5-8"
     width="37.795277"
     height="37.795277"
     x="9.9023628"
     y="211.7518"
     ry="5.9716482" />
  <rect
     style="display:inline;mix-blend-mode:normal;fill:#ffffff;fill-opacity:1;stroke-width:13.8803;stroke-linejoin:bevel;stroke-dasharray:none"
     id="rect1386-5-5-5"
     width="37.795277"
     height="37.795277"
     x="9.9023628"
     y="162.53481"
     ry="5.9716482" />
  <rect
     style="display:inline;mix-blend-mode:normal;fill:#ffffff;fill-opacity:1;stroke-width:13.8803;stroke-linejoin:bevel;stroke-dasharray:none"
     id="rect1386-5-5"
     width="37.795277"
     height="37.795277"
     x="9.9023628"
     y="113.3178"
     ry="5.9716482" />
  <rect
     style="display:inline;mix-blend-mode:normal;fill:#ffffff;fill-opacity:1;stroke-width:13.8803;stroke-linejoin:bevel;stroke-dasharray:none"
     id="rect1386-5"
     width="37.795277"
     height="37.795277"
     x="9.9023628"
     y="64.199059"
     ry="5.9716482" />
  <g
     id="b660f694-0f3e-42b6-93f7-7ede9c067179"
     data-name="components"
     inkscape:groupmode="layer"
     style="display:inline">
    <rect
       id="abeeb0d9-2e17-439a-8711-ace9121243e1"
       data-name="Screen"
       y="38"
       width="76.800003"
       height="310.21326"
       x="0"
       style="display:none;fill:#ffff00;stroke-width:0.565685" />
  </g>
  <rect
     style="display:inline;mix-blend-mode:normal;fill:#262626;fill-opacity:1;stroke-width:15.5198;stroke-linejoin:bevel"
     id="rect1386"
     width="37.795277"
     height="47.244099"
     x="9.9023628"
     y="2.0090206"
     ry="7.4645619" />
  <g
     id="g186"
     style="display:inline"
     transform="translate(-69.772894,-40.173487)">
    <path
       d="M 91.00391,47.52734 V 47.51367 A 2.52167,2.52167 0 0 1 96.04491,47.5 v 0.01367 a 2.52166,2.52166 0 0 1 -5.041,0.01367 z m 3.95019,0 V 47.51367 A 1.44035,1.44035 0 0 0 93.51758,46.02344 1.41852,1.41852 0 0 0 92.09473,47.5 v 0.01367 a 1.44137,1.44137 0 0 0 1.43652,1.49072 1.41866,1.41866 0 0 0 1.42285,-1.47705 z"
       fill="#f0f0f0"
       id="path180" />
    <path
       d="m 97.12305,47.85254 v -2.229 a 0.522,0.522 0 0 1 1.04394,0 v 2.20166 c 0,0.77246 0.38574,1.17236 1.02246,1.17236 0.63672,0 1.02344,-0.38623 1.02344,-1.13818 v -2.23584 a 0.5215,0.5215 0 1 1 1.043,0 v 2.19482 a 1.90889,1.90889 0 0 1 -2.08008,2.14111 1.88221,1.88221 0 0 1 -2.05276,-2.10693 z"
       fill="#f0f0f0"
       id="path182" />
    <path
       d="m 103.6084,46.10449 h -1.00293 a 0.481,0.481 0 0 1 0,-0.96191 h 3.04883 a 0.481,0.481 0 1 1 0,0.96191 h -1.00293 v 3.29981 a 0.5215,0.5215 0 0 1 -1.043,0 z"
       fill="#f0f0f0"
       id="path184" />
  </g>
  <rect
     style="display:none;fill:#cacaca;fill-opacity:1;stroke-width:25.2358;stroke-linejoin:bevel"
     id="rect15138"
     width="57.600002"
     height="37.795277"
     x="9.7283944e-08"
     y="447.87405" />
  <g
     aria-label="IN 8"
     transform="translate(7.300013)"
     id="text2299"
     style="font-weight:800;font-size:12px;font-family:Avenir;-inkscape-font-specification:'Avenir, Ultra-Bold';white-space:pre;shape-inside:url(#rect2301);fill:#1a1a1a;stroke-width:25.1414;stroke-linejoin:bevel">
    <path
       d="m 10.34,464.45479 h 1.872 v 8.496 H 10.34 Z"
       id="path14418" />
    <path
       d="m 13.915994,464.45479 h 2.544 l 3.612,5.904 h 0.024 v -5.904 h 1.872 v 8.496 h -2.448 l -3.708,-6.048 h -0.024 v 6.048 h -1.872 z"
       id="path14420" />
    <path
       d="m 27.091972,466.65079 q 0,-0.588 0.216,-1.02 0.228,-0.444 0.612,-0.732 0.396,-0.3 0.912,-0.444 0.516,-0.144 1.104,-0.144 0.588,0 1.104,0.144 0.516,0.144 0.9,0.444 0.384,0.288 0.612,0.732 0.228,0.432 0.228,1.02 0,0.696 -0.384,1.188 -0.372,0.492 -1.056,0.696 v 0.024 q 0.768,0.204 1.176,0.744 0.408,0.528 0.408,1.32 0,0.612 -0.252,1.08 -0.24,0.468 -0.66,0.78 -0.408,0.3 -0.948,0.456 -0.54,0.156 -1.128,0.156 -0.588,0 -1.128,-0.156 -0.54,-0.156 -0.96,-0.456 -0.408,-0.312 -0.66,-0.78 -0.24,-0.468 -0.24,-1.08 0,-0.792 0.408,-1.32 0.408,-0.54 1.176,-0.744 v -0.024 q -0.684,-0.204 -1.068,-0.696 -0.372,-0.492 -0.372,-1.188 z m 1.8,0.252 q 0,0.396 0.288,0.672 0.288,0.276 0.756,0.276 0.468,0 0.756,-0.276 0.288,-0.276 0.288,-0.672 0,-0.384 -0.288,-0.66 -0.288,-0.276 -0.756,-0.276 -0.468,0 -0.756,0.276 -0.288,0.276 -0.288,0.66 z m -0.144,3.468 q 0,0.444 0.324,0.756 0.324,0.312 0.864,0.312 0.54,0 0.864,-0.312 0.324,-0.312 0.324,-0.756 0,-0.456 -0.324,-0.768 -0.324,-0.312 -0.864,-0.312 -0.54,0 -0.864,0.312 -0.324,0.312 -0.324,0.768 z"
       id="path14422" />
  </g>
</svg>
