<?xml version="1.0" encoding="UTF-8"?><svg id="a" xmlns="http://www.w3.org/2000/svg" viewBox="0 0 22.68 22.68"><g><path d="M11.34,20.68c-5.15,0-9.34-4.19-9.34-9.34S6.19,2,11.34,2s9.34,4.19,9.34,9.34-4.19,9.34-9.34,9.34Z" style="fill:#231f20;"/><path d="M11.34,4c4.05,0,7.34,3.29,7.34,7.34s-3.29,7.34-7.34,7.34-7.34-3.29-7.34-7.34,3.29-7.34,7.34-7.34M11.34,0C5.08,0,0,5.08,0,11.34s5.08,11.34,11.34,11.34,11.34-5.08,11.34-11.34S17.6,0,11.34,0h0Z" style="fill:#f04b46;"/></g><circle cx="11.34" cy="11.34" r="1.42" style="fill:#fff;"/><path d="M11.34,4.42c3.82,0,6.92,3.1,6.92,6.92s-3.1,6.92-6.92,6.92-6.92-3.1-6.92-6.92,3.1-6.92,6.92-6.92m0-3C5.86,1.42,1.42,5.86,1.42,11.34s4.44,9.92,9.92,9.92,9.92-4.44,9.92-9.92S16.82,1.42,11.34,1.42h0Z" style="fill:#231f20;"/><rect x="8.5" y="2.83" width="5.67" height="5.38" rx="1.36" ry="1.36" style="fill:#231f20;"/><rect x="9.92" y="0" width="2.83" height="8.86" rx="1.42" ry="1.42" style="fill:#fff;"/><circle cx="11.34" cy="11.3" r="4.25" style="fill:#fff;"/><circle cx="11.34" cy="11.34" r="2.13" style="fill:#231f20;"/></svg>