<?xml version="1.0" encoding="UTF-8"?><svg id="a" xmlns="http://www.w3.org/2000/svg" viewBox="0 0 68.03 68.03"><g><circle cx="34.02" cy="34.02" r="25.52" style="fill:#f3f4f4;"/><path d="M34.02,17c9.38,0,17.02,7.63,17.02,17.02s-7.63,17.02-17.02,17.02-17.02-7.63-17.02-17.02,7.63-17.02,17.02-17.02m0-17C15.23,0,0,15.23,0,34.02s15.23,34.02,34.02,34.02,34.02-15.23,34.02-34.02S52.8,0,34.02,0h0Z" style="fill:#f04b46;"/></g><g style="opacity:.3;"><path d="M34.02,4c16.55,0,30.02,13.47,30.02,30.02s-13.47,30.02-30.02,30.02S4,50.57,4,34.02,17.47,4,34.02,4M34.02,0C15.23,0,0,15.23,0,34.02s15.23,34.02,34.02,34.02,34.02-15.23,34.02-34.02S52.8,0,34.02,0h0Z" style="fill:#c63d39;"/></g><path d="M33.21,.88l-4.99,18.14c-.11,.42,.2,.83,.63,.83h9.98c.43,0,.74-.41,.63-.83L34.47,.88c-.18-.64-1.08-.64-1.26,0Z" style="fill:#fff;"/><path d="M34.02,23.01c6.07,0,11.01,4.94,11.01,11.01s-4.94,11.01-11.01,11.01-11.01-4.94-11.01-11.01,4.94-11.01,11.01-11.01m0-6c-9.39,0-17.01,7.61-17.01,17.01s7.61,17.01,17.01,17.01,17.01-7.61,17.01-17.01-7.61-17.01-17.01-17.01h0Z" style="fill:#fff;"/><g style="opacity:.89;"><path d="M34.02,27.84c3.4,0,6.17,2.77,6.17,6.17s-2.77,6.17-6.17,6.17-6.17-2.77-6.17-6.17,2.77-6.17,6.17-6.17m0-8c-7.83,0-14.17,6.35-14.17,14.17s6.35,14.17,14.17,14.17,14.17-6.35,14.17-14.17-6.35-14.17-14.17-14.17h0Z" style="fill:#f6f6f6;"/></g></svg>