<?xml version="1.0" encoding="UTF-8"?><svg id="a" xmlns="http://www.w3.org/2000/svg" viewBox="0 0 85.04 85.04"><g><circle cx="42.52" cy="42.52" r="31.89" style="fill:#f3f4f4;"/><path d="M42.52,21.25c11.73,0,21.27,9.54,21.27,21.27s-9.54,21.27-21.27,21.27-21.27-9.54-21.27-21.27,9.54-21.27,21.27-21.27m0-21.25C19.04,0,0,19.04,0,42.52s19.04,42.52,42.52,42.52,42.52-19.04,42.52-42.52S66,0,42.52,0h0Z" style="fill:#f04b46;"/></g><g style="opacity:.3;"><path d="M42.52,5c20.69,0,37.52,16.83,37.52,37.52s-16.83,37.52-37.52,37.52S5,63.21,5,42.52,21.83,5,42.52,5M42.52,0C19.04,0,0,19.04,0,42.52s19.04,42.52,42.52,42.52,42.52-19.04,42.52-42.52S66,0,42.52,0h0Z" style="fill:#c63d39;"/></g><path d="M41.51,1.09l-6.24,22.67c-.14,.52,.25,1.03,.79,1.03h12.47c.54,0,.93-.51,.79-1.03L43.09,1.09c-.22-.8-1.36-.8-1.58,0Z" style="fill:#fff;"/><path d="M42.52,28.76c7.59,0,13.76,6.17,13.76,13.76s-6.17,13.76-13.76,13.76-13.76-6.17-13.76-13.76,6.17-13.76,13.76-13.76m0-7.5c-11.74,0-21.26,9.52-21.26,21.26s9.52,21.26,21.26,21.26,21.26-9.52,21.26-21.26-9.52-21.26-21.26-21.26h0Z" style="fill:#fff;"/><g style="opacity:.89;"><path d="M42.52,34.8c4.25,0,7.72,3.46,7.72,7.72s-3.46,7.72-7.72,7.72-7.72-3.46-7.72-7.72,3.46-7.72,7.72-7.72m0-10c-9.78,0-17.72,7.93-17.72,17.72s7.93,17.72,17.72,17.72,17.72-7.93,17.72-17.72-7.93-17.72-17.72-17.72h0Z" style="fill:#f6f6f6;"/></g></svg>