<?xml version="1.0" encoding="UTF-8"?><svg id="a" xmlns="http://www.w3.org/2000/svg" viewBox="0 0 28.35 28.35"><g><circle cx="14.17" cy="14.17" r="12.92" style="fill:#f1f2f2;"/><path d="M14.17,2.5c6.44,0,11.67,5.24,11.67,11.67s-5.24,11.67-11.67,11.67S2.5,20.61,2.5,14.17,7.74,2.5,14.17,2.5m0-2.5C6.35,0,0,6.35,0,14.17s6.35,14.17,14.17,14.17,14.17-6.35,14.17-14.17S22,0,14.17,0h0Z" style="fill:#f04b46;"/></g><path d="M14.18,3.38c.06,.03,.13,.05,.22,.05,.08,0,.15-.02,.21-.04,.06,.03,.14,.05,.23,.06,.07,0,.13-.01,.18-.03,.06,.03,.13,.05,.2,.06h.03s.02,0,.02,0c.06,0,.11,0,.16-.02,.06,.03,.12,.06,.2,.07h.04s.03,0,.03,0c.05,0,.1,0,.14-.02,.06,.04,.12,.06,.2,.08h.05s.04,0,.04,0c.04,0,.08,0,.12-.01,.05,.04,.12,.07,.2,.08h.06s.05,.01,.05,.01c.03,0,.07,0,.1,0,.05,.04,.12,.07,.19,.09l.07,.02h.06s.05,0,.08,0c.05,.04,.11,.08,.19,.1l.08,.02h.07s.04,0,.05,0c.05,.04,.11,.08,.18,.11l.1,.03h.08s.02,0,.03,0c.05,.05,.11,.09,.18,.11l.11,.04h.09s0,0,.01,0c.05,.05,.1,.09,.18,.12l.12,.05h.09s.1,.09,.17,.13l.13,.05h.08s.1,.1,.17,.13l.14,.06h.07c.04,.05,.09,.1,.16,.14l.15,.07h.06c.04,.05,.09,.1,.15,.14l.16,.09h.05c.03,.05,.08,.1,.14,.14l.17,.1h.04c.03,.05,.08,.1,.14,.14l.18,.11h.03c.03,.05,.07,.1,.13,.14,.04,.04,.11,.07,.19,.1,.03,.06,.07,.12,.13,.17,.04,.04,.1,.08,.18,.11,.03,.06,.07,.12,.12,.17,.04,.04,.1,.08,.18,.11,.02,.06,.06,.12,.12,.18,.04,.04,.1,.09,.18,.12,.02,.06,.06,.12,.11,.18,.05,.05,.11,.1,.17,.13,.02,.06,.05,.13,.1,.19,.05,.06,.11,.1,.17,.13,.02,.06,.05,.13,.1,.19,.05,.06,.1,.11,.16,.14,.01,.06,.04,.13,.09,.19,.05,.06,.1,.11,.16,.15,.01,.06,.04,.13,.08,.2,.04,.07,.1,.11,.15,.15,0,.06,.03,.13,.07,.2,.04,.07,.09,.12,.14,.16,0,.07,.03,.13,.07,.2,.04,.07,.09,.12,.14,.16,0,.07,.02,.13,.06,.21,.04,.07,.08,.13,.13,.17,0,.07,.02,.14,.05,.21,.03,.07,.08,.13,.12,.17,0,.07,.01,.14,.04,.21,.03,.07,.07,.13,.12,.18,0,.07,0,.14,.03,.21,.03,.07,.07,.13,.11,.18,0,.07,0,.14,.02,.21,.02,.08,.06,.14,.1,.19,0,.06,0,.14,.02,.21,.02,.08,.06,.14,.1,.19-.01,.06-.01,.14,0,.21,.02,.08,.05,.14,.09,.19-.01,.06-.02,.14,0,.21,.02,.08,.04,.14,.08,.2-.02,.06-.02,.14,0,.21,.01,.08,.04,.14,.07,.2-.02,.06-.03,.13-.02,.21,0,.08,.03,.15,.07,.2-.02,.06-.03,.13-.03,.21,0,.08,.03,.15,.06,.21-.02,.06-.04,.13-.03,.21,0,.08,.02,.15,.05,.21-.03,.06-.04,.13-.04,.21s.02,.15,.04,.21c-.03,.06-.05,.13-.05,.21,0,.08,.01,.15,.03,.21-.03,.06-.05,.13-.06,.21,0,.08,0,.15,.03,.21-.03,.06-.06,.12-.07,.2,0,.08,0,.15,.02,.21-.03,.06-.06,.12-.07,.2-.01,.08,0,.15,0,.21-.04,.05-.07,.12-.08,.2-.02,.08-.01,.15,0,.21-.04,.05-.07,.12-.09,.19-.02,.08-.02,.15,0,.21-.04,.05-.07,.11-.1,.19-.02,.08-.02,.15-.02,.21-.04,.05-.08,.11-.1,.19-.02,.08-.03,.15-.02,.21-.04,.05-.08,.11-.11,.18-.03,.07-.04,.14-.03,.21-.05,.05-.09,.1-.12,.18-.03,.07-.04,.14-.04,.21-.05,.04-.09,.1-.12,.17-.03,.07-.05,.14-.05,.21-.05,.04-.1,.1-.13,.17-.04,.07-.05,.14-.06,.2-.05,.04-.1,.09-.14,.16-.04,.07-.06,.14-.06,.2-.05,.04-.1,.09-.14,.16s-.06,.13-.07,.2c-.05,.04-.11,.09-.15,.15-.04,.07-.07,.13-.08,.2-.06,.03-.11,.08-.16,.15-.05,.06-.07,.13-.09,.19-.06,.03-.11,.08-.16,.14-.05,.06-.08,.13-.1,.19-.06,.03-.12,.07-.17,.13-.05,.06-.08,.12-.1,.19-.06,.03-.12,.07-.17,.13-.05,.06-.09,.12-.11,.18-.08,.03-.14,.08-.18,.12-.06,.06-.09,.12-.12,.18-.08,.03-.14,.07-.18,.11-.06,.05-.1,.11-.12,.17-.08,.03-.14,.07-.18,.11-.06,.05-.1,.11-.13,.17-.08,.02-.15,.06-.19,.1-.06,.05-.1,.1-.13,.15h-.07s-.13,.1-.13,.1c-.06,.05-.11,.1-.14,.15h-.07s-.13,.09-.13,.09c-.06,.04-.11,.09-.15,.15h-.08s-.12,.08-.12,.08c-.07,.04-.12,.09-.15,.14h-.09s-.12,.07-.12,.07c-.07,.04-.12,.09-.16,.14h-.1s-.11,.06-.11,.06c-.07,.04-.12,.08-.17,.13h-.1s-.1,.05-.1,.05c-.07,.03-.13,.08-.17,.13h-.11s-.1,.04-.1,.04c-.07,.03-.13,.07-.18,.12,0,0,0,0-.01,0h-.11s-.09,.04-.09,.04c-.07,.03-.13,.07-.18,.11-.01,0-.02,0-.03,0h-.1s-.08,.03-.08,.03c-.07,.03-.14,.06-.18,.11-.02,0-.04,0-.05,0h-.09s-.07,.02-.07,.02c-.08,.02-.14,.06-.19,.1-.02,0-.05,0-.08,0h-.08s-.06,.02-.06,.02c-.08,.02-.14,.05-.19,.09-.03,0-.06,0-.1,0h-.06s-.05,.01-.05,.01c-.08,.02-.14,.05-.2,.08-.04,0-.08-.01-.12-.01h-.05s-.04,0-.04,0c-.08,.01-.14,.04-.2,.08-.04-.01-.09-.02-.14-.02h-.04s-.03,0-.03,0c-.08,.01-.15,.04-.2,.07-.05-.01-.1-.02-.16-.02h-.03s-.02,0-.02,0c-.08,0-.15,.03-.21,.06-.06-.02-.13-.03-.21-.03,0,0,0,0,0,0-.08,0-.15,.03-.21,.05-.06-.02-.13-.04-.21-.04h0c-.08,0-.15,.02-.21,.05-.06-.03-.13-.05-.22-.05-.08,0-.15,.02-.21,.04-.06-.03-.14-.05-.23-.06-.07,0-.13,.01-.18,.03-.06-.03-.13-.05-.2-.06h-.03s-.02,0-.02,0c-.06,0-.11,0-.16,.02-.06-.03-.12-.06-.2-.07h-.04s-.03,0-.03,0c-.05,0-.1,0-.14,.02-.06-.04-.12-.06-.2-.08h-.05s-.04,0-.04,0c-.04,0-.08,0-.12,.01-.05-.04-.12-.07-.2-.08h-.06s-.05-.01-.05-.01c-.03,0-.07,0-.1,0-.05-.04-.12-.07-.19-.09l-.07-.02h-.06s-.05,0-.08,0c-.05-.04-.11-.08-.19-.1l-.08-.02h-.07s-.04,0-.05,0c-.05-.04-.11-.08-.18-.11l-.1-.03h-.08s-.02,0-.03,0c-.05-.05-.11-.09-.18-.11l-.11-.04h-.09s0,0-.01,0c-.05-.05-.1-.09-.18-.12l-.12-.05h-.09s-.1-.09-.17-.13l-.13-.05h-.08s-.1-.1-.17-.13l-.14-.06h-.07c-.04-.05-.09-.1-.16-.14l-.15-.07h-.06c-.04-.05-.09-.1-.15-.14l-.16-.09h-.05c-.03-.05-.08-.1-.14-.14l-.17-.1h-.04c-.03-.05-.08-.1-.14-.14l-.18-.11h-.03c-.03-.05-.07-.1-.13-.14-.04-.04-.11-.07-.19-.1-.03-.06-.07-.12-.13-.17-.04-.04-.1-.08-.18-.11-.03-.06-.07-.12-.12-.17-.04-.04-.1-.08-.18-.11-.02-.06-.06-.12-.12-.18-.04-.04-.1-.09-.18-.12-.02-.06-.06-.12-.11-.18-.05-.05-.11-.1-.17-.13-.02-.06-.05-.13-.1-.19-.05-.06-.11-.1-.17-.13-.02-.06-.05-.13-.1-.19-.05-.06-.1-.11-.16-.14-.01-.06-.04-.13-.09-.19-.05-.06-.1-.11-.16-.15-.01-.06-.04-.13-.08-.2-.04-.07-.1-.11-.15-.15,0-.06-.03-.13-.07-.2-.04-.07-.09-.12-.14-.16,0-.07-.03-.13-.07-.2-.04-.07-.09-.12-.14-.16,0-.07-.02-.13-.06-.21-.04-.07-.08-.13-.13-.17,0-.07-.02-.14-.05-.21-.03-.07-.08-.13-.12-.17,0-.07-.01-.14-.04-.21-.03-.07-.07-.13-.12-.18,0-.07,0-.14-.03-.21-.03-.07-.07-.13-.11-.18,0-.07,0-.14-.02-.21-.02-.08-.06-.14-.1-.19,0-.06,0-.14-.02-.21-.02-.08-.06-.14-.1-.19,.01-.06,.01-.14,0-.21-.02-.08-.05-.14-.09-.19,.01-.06,.02-.14,0-.21-.02-.08-.04-.14-.08-.2,.02-.06,.02-.14,0-.21-.01-.08-.04-.14-.07-.2,.02-.06,.03-.13,.02-.21,0-.08-.03-.15-.07-.2,.02-.06,.03-.13,.03-.21,0-.08-.03-.15-.06-.21,.02-.06,.04-.13,.03-.21,0-.08-.02-.15-.05-.21,.03-.06,.04-.13,.04-.21s-.02-.15-.04-.21c.03-.06,.05-.13,.05-.21,0-.08-.01-.15-.03-.21,.03-.06,.05-.13,.06-.21,0-.08,0-.15-.03-.21,.03-.06,.06-.12,.07-.2,0-.08,0-.15-.02-.21,.03-.06,.06-.12,.07-.2,.01-.08,0-.15,0-.21,.04-.05,.07-.12,.08-.2,.02-.08,.01-.15,0-.21,.04-.05,.07-.12,.09-.19,.02-.08,.02-.15,0-.21,.04-.05,.07-.11,.1-.19,.02-.08,.02-.15,.02-.21,.04-.05,.08-.11,.1-.19,.02-.08,.03-.15,.02-.21,.04-.05,.08-.11,.11-.18,.03-.07,.04-.14,.03-.21,.05-.05,.09-.1,.12-.18,.03-.07,.04-.14,.04-.21,.05-.04,.09-.1,.12-.17,.03-.07,.05-.14,.05-.21,.05-.04,.1-.1,.13-.17,.04-.07,.05-.14,.06-.2,.05-.04,.1-.09,.14-.16,.04-.07,.06-.14,.06-.2,.05-.04,.1-.09,.14-.16,.04-.07,.06-.13,.07-.2,.05-.04,.11-.09,.15-.15,.04-.07,.07-.13,.08-.2,.06-.03,.11-.08,.16-.15,.05-.06,.07-.13,.09-.19,.06-.03,.11-.08,.16-.14,.05-.06,.08-.13,.1-.19,.06-.03,.12-.07,.17-.13,.05-.06,.08-.12,.1-.19,.06-.03,.12-.07,.17-.13,.05-.06,.09-.12,.11-.18,.08-.03,.14-.08,.18-.12,.06-.06,.09-.12,.12-.18,.08-.03,.14-.07,.18-.11,.06-.05,.1-.11,.12-.17,.08-.03,.14-.07,.18-.11,.06-.05,.1-.11,.13-.17,.08-.02,.15-.06,.19-.1,.06-.05,.1-.1,.13-.15h.07s.13-.1,.13-.1c.06-.05,.11-.1,.14-.15h.07s.13-.09,.13-.09c.06-.04,.11-.09,.15-.15h.08s.12-.08,.12-.08c.07-.04,.12-.09,.15-.14h.09s.12-.07,.12-.07c.07-.04,.12-.09,.16-.14h.1s.11-.06,.11-.06c.07-.04,.12-.08,.17-.13h.1s.1-.05,.1-.05c.07-.03,.13-.08,.17-.13h.11s.1-.04,.1-.04c.07-.03,.13-.07,.18-.12,0,0,0,0,.01,0h.11s.09-.04,.09-.04c.07-.03,.13-.07,.18-.11,.01,0,.02,0,.03,0h.1s.08-.03,.08-.03c.07-.03,.14-.06,.18-.11,.02,0,.04,0,.05,0h.09s.07-.02,.07-.02c.08-.02,.14-.06,.19-.1,.02,0,.05,0,.08,0h.08s.06-.02,.06-.02c.08-.02,.14-.05,.19-.09,.03,0,.06,0,.1,0h.06s.05-.01,.05-.01c.08-.02,.14-.05,.2-.08,.04,0,.08,.01,.12,.01h.05s.04,0,.04,0c.08-.01,.14-.04,.2-.08,.04,.01,.09,.02,.14,.02h.04s.03,0,.03,0c.08-.01,.15-.04,.2-.07,.05,.01,.1,.02,.16,.02h.03s.02,0,.02,0c.08,0,.15-.03,.21-.06,.06,.02,.13,.03,.21,.03,0,0,0,0,0,0,.08,0,.15-.03,.21-.05,.06,.02,.13,.04,.21,.04h0c.08,0,.15-.02,.21-.05m0-.64c-.07,0-.15,.18-.22,.18,0,0,0,0,0,0-.07,0-.15-.18-.22-.18,0,0,0,0,0,0-.07,0-.14,.19-.21,.19,0,0,0,0,0,0-.07,0-.15-.17-.23-.17,0,0,0,0,0,0-.07,0-.13,.19-.2,.2,0,0,0,0,0,0-.07,0-.16-.16-.23-.16,0,0,0,0,0,0-.07,0-.12,.2-.2,.21,0,0,0,0,0,0-.07,0-.16-.15-.23-.15,0,0,0,0,0,0-.07,.01-.12,.2-.19,.21,0,0,0,0,0,0-.07,0-.16-.14-.23-.14,0,0,0,0,0,0-.07,.01-.11,.21-.18,.22,0,0,0,0-.01,0-.07,0-.17-.13-.23-.13,0,0,0,0-.01,0-.07,.02-.1,.21-.17,.23,0,0,0,0-.01,0-.07,0-.17-.12-.23-.12,0,0,0,0-.01,0-.07,.02-.09,.21-.16,.24,0,0,0,0-.01,0-.07,0-.17-.11-.23-.11,0,0-.01,0-.02,0-.07,.02-.08,.22-.15,.24,0,0-.01,0-.02,0-.07,0-.17-.1-.23-.1,0,0-.01,0-.02,0-.07,.03-.07,.22-.14,.25,0,0-.01,0-.02,0-.07,0-.17-.09-.23-.09,0,0-.01,0-.02,0-.07,.03-.07,.22-.13,.25,0,0-.01,0-.02,0-.06,0-.17-.08-.23-.08,0,0-.02,0-.02,0-.07,.03-.06,.23-.12,.26,0,0-.02,0-.02,0-.06,0-.16-.08-.23-.08,0,0-.02,0-.03,0-.07,.03-.05,.23-.11,.26,0,0-.02,0-.03,0-.06,0-.16-.07-.22-.07-.01,0-.02,0-.03,0-.06,.04-.04,.23-.1,.27,0,0-.02,0-.03,0-.06,0-.16-.06-.22-.06-.01,0-.02,0-.03,0-.06,.04-.03,.23-.09,.27,0,0-.02,0-.03,0-.06,0-.15-.05-.21-.05-.01,0-.03,0-.04,0-.06,.04-.02,.23-.08,.27-.01,0-.02,0-.04,0-.06,0-.15-.04-.21-.04-.02,0-.03,0-.04,.01-.06,.04-.01,.23-.07,.28-.01,0-.03,.01-.04,.01-.06,0-.14-.03-.2-.03-.02,0-.03,0-.04,.01-.06,.04,0,.23-.06,.28-.01,0-.03,.01-.05,.01-.05,0-.13-.03-.19-.03-.02,0-.04,0-.05,.01-.06,.05,0,.23-.05,.28-.01,.01-.03,.02-.06,.02-.05,0-.12-.02-.17-.02-.02,0-.04,0-.06,.02-.05,.05,.02,.23-.04,.28-.01,.01-.04,.02-.06,.02-.05,0-.11-.01-.16-.01-.03,0-.05,0-.06,.02-.05,.05,.02,.23-.03,.28-.02,.02-.04,.02-.07,.02-.04,0-.09,0-.14,0-.03,0-.06,0-.07,.02-.05,.05,.03,.23-.02,.28-.02,.02-.05,.02-.09,.02-.03,0-.07,0-.1,0-.04,0-.07,0-.09,.02-.05,.06,.04,.23,0,.28-.02,.02-.07,.03-.12,.03-.02,0-.03,0-.05,0-.05,0-.1,0-.12,.03-.05,.06,.05,.23,0,.28-.04,.06-.23,0-.28,.07-.04,.06,.06,.22,.02,.28-.04,.06-.23,.02-.27,.08-.04,.06,.07,.22,.03,.28-.04,.06-.23,.02-.27,.09-.04,.06,.08,.22,.04,.28-.04,.06-.23,.03-.27,.1-.04,.06,.09,.22,.05,.28-.04,.06-.23,.04-.26,.11-.03,.06,.09,.21,.06,.28-.03,.07-.23,.05-.26,.12-.03,.07,.1,.21,.07,.28-.03,.07-.23,.06-.25,.13-.03,.07,.11,.2,.08,.27-.03,.07-.22,.07-.25,.14-.03,.07,.12,.2,.09,.27-.03,.07-.22,.08-.24,.15-.02,.07,.13,.2,.1,.27-.02,.07-.22,.09-.24,.16-.02,.07,.13,.19,.11,.26-.02,.07-.21,.09-.23,.16-.02,.07,.14,.19,.12,.26-.02,.07-.21,.1-.23,.17-.02,.07,.15,.18,.13,.25-.01,.07-.21,.11-.22,.18-.01,.07,.15,.17,.14,.25-.01,.07-.2,.12-.21,.19,0,.07,.16,.17,.15,.24,0,.07-.2,.13-.2,.2,0,.07,.17,.16,.16,.23,0,.07-.19,.13-.2,.21,0,.07,.17,.16,.17,.23,0,.07-.19,.14-.19,.22,0,.07,.18,.15,.18,.22s-.18,.15-.18,.22c0,.07,.18,.14,.19,.22,0,.07-.17,.16-.17,.23,0,.07,.19,.13,.2,.21,0,.07-.17,.16-.16,.24,0,.07,.2,.13,.2,.2,0,.07-.16,.17-.15,.24,0,.07,.2,.12,.21,.19,.01,.07-.16,.17-.14,.25,.01,.07,.2,.11,.22,.18,.01,.07-.15,.18-.13,.25,.02,.07,.21,.1,.23,.17,.02,.07-.14,.19-.12,.26,.02,.07,.21,.1,.23,.17,.02,.07-.13,.19-.11,.26,.02,.07,.22,.09,.24,.16,.02,.07-.13,.2-.1,.27,.02,.07,.22,.08,.24,.15,.03,.07-.12,.2-.09,.27,.03,.07,.22,.07,.25,.14,.03,.07-.11,.21-.08,.27,.03,.07,.22,.06,.26,.13,.03,.07-.1,.21-.07,.28,.03,.07,.23,.05,.26,.12,.03,.07-.09,.21-.06,.28,.03,.06,.23,.04,.26,.11,.04,.06-.09,.22-.05,.28,.04,.06,.23,.03,.27,.1,.04,.06-.08,.22-.04,.28,.04,.06,.23,.03,.27,.09,.04,.06-.07,.22-.03,.28,.04,.06,.23,.02,.27,.08,.04,.06-.06,.23-.02,.28,.04,.06,.23,0,.28,.06,.04,.06-.05,.23,0,.28,.02,.02,.07,.03,.11,.03,.02,0,.03,0,.05,0,.05,0,.09,0,.11,.03,.05,.06-.04,.23,0,.28,.02,.02,.05,.02,.09,.02,.03,0,.07,0,.11,0,.04,0,.07,0,.09,.02,.05,.05-.03,.23,.02,.28,.02,.02,.04,.02,.07,.02,.04,0,.09,0,.14,0,.03,0,.06,0,.07,.02,.05,.05-.03,.23,.03,.28,.01,.01,.04,.02,.06,.02,.05,0,.11-.01,.16-.01,.03,0,.05,0,.06,.02,.05,.05-.02,.23,.04,.28,.01,.01,.03,.02,.06,.02,.05,0,.12-.02,.17-.02,.02,0,.04,0,.05,.02,.06,.05,0,.23,.05,.28,.01,0,.03,.01,.05,.01,.05,0,.13-.03,.19-.03,.02,0,.04,0,.05,.01,.06,.05,0,.23,.06,.28,.01,0,.03,.01,.04,.01,.06,0,.14-.03,.2-.03,.02,0,.03,0,.04,.01,.06,.04,.01,.23,.07,.28,.01,0,.02,.01,.04,.01,.06,0,.15-.04,.21-.04,.02,0,.03,0,.04,0,.06,.04,.02,.23,.08,.27,0,0,.02,0,.03,0,.06,0,.15-.05,.21-.05,.01,0,.02,0,.03,0,.06,.04,.03,.23,.09,.27,0,0,.02,0,.03,0,.06,0,.16-.06,.22-.06,.01,0,.02,0,.03,0,.06,.04,.04,.23,.1,.27,0,0,.02,0,.03,0,.06,0,.16-.07,.22-.07,.01,0,.02,0,.03,0,.06,.03,.05,.23,.11,.26,0,0,.02,0,.03,0,.06,0,.16-.08,.23-.08,0,0,.02,0,.02,0,.07,.03,.06,.23,.12,.26,0,0,.01,0,.02,0,.06,0,.17-.09,.23-.09,0,0,.02,0,.02,0,.07,.03,.06,.22,.13,.25,0,0,.01,0,.02,0,.06,0,.17-.09,.23-.09,0,0,.01,0,.02,0,.07,.03,.07,.22,.14,.25,0,0,.01,0,.02,0,.07,0,.17-.1,.23-.1,0,0,.01,0,.02,0,.07,.02,.08,.22,.15,.24,0,0,0,0,.02,0,.07,0,.17-.11,.23-.11,0,0,0,0,.01,0,.07,.02,.09,.22,.16,.24,0,0,0,0,.01,0,.07,0,.17-.12,.23-.12,0,0,0,0,.01,0,.07,.02,.1,.21,.17,.23,0,0,0,0,.01,0,.07,0,.17-.13,.23-.13,0,0,0,0,.01,0,.07,.02,.11,.21,.18,.22,0,0,0,0,0,0,.07,0,.16-.14,.23-.14,0,0,0,0,0,0,.07,.01,.11,.2,.19,.21,0,0,0,0,0,0,.07,0,.16-.15,.23-.15,0,0,0,0,0,0,.07,0,.12,.2,.2,.21,0,0,0,0,0,0,.07,0,.16-.16,.23-.16,0,0,0,0,0,0,.07,0,.13,.19,.2,.2,0,0,0,0,0,0,.07,0,.15-.17,.23-.17,0,0,0,0,0,0,.07,0,.14,.19,.21,.19,0,0,0,0,0,0,.07,0,.15-.18,.22-.18,0,0,0,0,0,0,.07,0,.15,.18,.22,.18s.15-.18,.22-.18c0,0,0,0,0,0,.07,0,.15,.18,.22,.18,0,0,0,0,0,0,.07,0,.14-.19,.21-.19,0,0,0,0,0,0,.07,0,.15,.17,.23,.17,0,0,0,0,0,0,.07,0,.13-.19,.2-.2,0,0,0,0,0,0,.07,0,.16,.16,.23,.16,0,0,0,0,0,0,.07,0,.12-.2,.2-.21,0,0,0,0,0,0,.07,0,.16,.15,.23,.15,0,0,0,0,0,0,.07-.01,.12-.2,.19-.21,0,0,0,0,0,0,.07,0,.16,.14,.23,.14,0,0,0,0,0,0,.07-.01,.11-.21,.18-.22,0,0,0,0,.01,0,.07,0,.17,.13,.23,.13,0,0,0,0,.01,0,.07-.02,.1-.21,.17-.23,0,0,0,0,.01,0,.07,0,.17,.12,.23,.12,0,0,0,0,.01,0,.07-.02,.09-.21,.16-.24,0,0,0,0,.01,0,.07,0,.17,.11,.23,.11,0,0,.01,0,.02,0,.07-.02,.08-.22,.15-.24,0,0,.01,0,.02,0,.07,0,.17,.1,.23,.1,0,0,.01,0,.02,0,.07-.03,.07-.22,.14-.25,0,0,.01,0,.02,0,.07,0,.17,.09,.23,.09,0,0,.01,0,.02,0,.07-.03,.07-.22,.13-.25,0,0,.01,0,.02,0,.06,0,.17,.08,.23,.08,0,0,.02,0,.02,0,.07-.03,.06-.23,.12-.26,0,0,.02,0,.02,0,.06,0,.16,.08,.23,.08,0,0,.02,0,.03,0,.07-.03,.05-.23,.11-.26,0,0,.02,0,.03,0,.06,0,.16,.07,.22,.07,.01,0,.02,0,.03,0,.06-.04,.04-.23,.1-.27,0,0,.02,0,.03,0,.06,0,.16,.06,.22,.06,.01,0,.02,0,.03,0,.06-.04,.03-.23,.09-.27,0,0,.02,0,.03,0,.06,0,.15,.05,.21,.05,.01,0,.03,0,.04,0,.06-.04,.02-.23,.08-.27,.01,0,.02,0,.04,0,.06,0,.15,.04,.21,.04,.02,0,.03,0,.04-.01,.06-.04,.01-.23,.07-.28,.01,0,.03-.01,.04-.01,.06,0,.14,.03,.2,.03,.02,0,.03,0,.04-.01,.06-.04,0-.23,.06-.28,.01,0,.03-.01,.05-.01,.05,0,.13,.03,.19,.03,.02,0,.04,0,.05-.01,.06-.05,0-.23,.05-.28,.01-.01,.03-.02,.06-.02,.05,0,.12,.02,.17,.02,.02,0,.04,0,.06-.02,.05-.05-.02-.23,.04-.28,.01-.01,.04-.02,.06-.02,.05,0,.11,.01,.16,.01,.03,0,.05,0,.06-.02,.05-.05-.02-.23,.03-.28,.02-.02,.04-.02,.07-.02,.04,0,.09,0,.14,0,.03,0,.06,0,.07-.02,.05-.05-.03-.23,.02-.28,.02-.02,.05-.02,.09-.02,.03,0,.07,0,.1,0,.04,0,.07,0,.09-.02,.05-.06-.04-.23,0-.28,.02-.02,.07-.03,.12-.03,.02,0,.03,0,.05,0,.05,0,.1,0,.12-.03,.05-.06-.05-.23,0-.28,.04-.06,.23,0,.28-.07,.04-.06-.06-.22-.02-.28,.04-.06,.23-.02,.27-.08,.04-.06-.07-.22-.03-.28,.04-.06,.23-.02,.27-.09,.04-.06-.08-.22-.04-.28,.04-.06,.23-.03,.27-.1,.04-.06-.09-.22-.05-.28,.04-.06,.23-.04,.26-.11,.03-.06-.09-.21-.06-.28,.03-.07,.23-.05,.26-.12,.03-.07-.1-.21-.07-.28,.03-.07,.23-.06,.25-.13,.03-.07-.11-.2-.08-.27,.03-.07,.22-.07,.25-.14,.03-.07-.12-.2-.09-.27,.03-.07,.22-.08,.24-.15,.02-.07-.13-.2-.1-.27,.02-.07,.22-.09,.24-.16,.02-.07-.13-.19-.11-.26,.02-.07,.21-.09,.23-.16,.02-.07-.14-.19-.12-.26,.02-.07,.21-.1,.23-.17,.02-.07-.15-.18-.13-.25,.01-.07,.21-.11,.22-.18,.01-.07-.15-.17-.14-.25,.01-.07,.2-.12,.21-.19,0-.07-.16-.17-.15-.24,0-.07,.2-.13,.2-.2,0-.07-.17-.16-.16-.23,0-.07,.19-.13,.2-.21,0-.07-.17-.16-.17-.23,0-.07,.19-.14,.19-.22,0-.07-.18-.15-.18-.22s.18-.15,.18-.22c0-.07-.18-.14-.19-.22,0-.07,.17-.16,.17-.23,0-.07-.19-.13-.2-.21,0-.07,.17-.16,.16-.24,0-.07-.2-.13-.2-.2,0-.07,.16-.17,.15-.24,0-.07-.2-.12-.21-.19-.01-.07,.16-.17,.14-.25-.01-.07-.2-.11-.22-.18-.01-.07,.15-.18,.13-.25-.02-.07-.21-.1-.23-.17-.02-.07,.14-.19,.12-.26-.02-.07-.21-.1-.23-.17-.02-.07,.13-.19,.11-.26-.02-.07-.22-.09-.24-.16-.02-.07,.13-.2,.1-.27-.02-.07-.22-.08-.24-.15-.03-.07,.12-.2,.09-.27-.03-.07-.22-.07-.25-.14-.03-.07,.11-.21,.08-.27-.03-.07-.22-.06-.26-.13-.03-.07,.1-.21,.07-.28-.03-.07-.23-.05-.26-.12-.03-.07,.09-.21,.06-.28-.03-.06-.23-.04-.26-.11-.04-.06,.09-.22,.05-.28-.04-.06-.23-.03-.27-.1-.04-.06,.08-.22,.04-.28-.04-.06-.23-.03-.27-.09-.04-.06,.07-.22,.03-.28-.04-.06-.23-.02-.27-.08-.04-.06,.06-.23,.02-.28-.04-.06-.23,0-.28-.06-.04-.06,.05-.23,0-.28-.02-.02-.07-.03-.11-.03-.02,0-.03,0-.05,0-.05,0-.09,0-.11-.03-.05-.06,.04-.23,0-.28-.02-.02-.05-.02-.09-.02-.03,0-.07,0-.11,0-.04,0-.07,0-.09-.02-.05-.05,.03-.23-.02-.28-.02-.02-.04-.02-.07-.02-.04,0-.09,0-.14,0-.03,0-.06,0-.07-.02-.05-.05,.03-.23-.03-.28-.01-.01-.04-.02-.06-.02-.05,0-.11,.01-.16,.01-.03,0-.05,0-.06-.02-.05-.05,.02-.23-.04-.28-.01-.01-.03-.02-.06-.02-.05,0-.12,.02-.17,.02-.02,0-.04,0-.05-.02-.06-.05,0-.23-.05-.28-.01,0-.03-.01-.05-.01-.05,0-.13,.03-.19,.03-.02,0-.04,0-.05-.01-.06-.05,0-.23-.06-.28-.01,0-.03-.01-.04-.01-.06,0-.14,.03-.2,.03-.02,0-.03,0-.04-.01-.06-.04-.01-.23-.07-.28-.01,0-.02-.01-.04-.01-.06,0-.15,.04-.21,.04-.02,0-.03,0-.04,0-.06-.04-.02-.23-.08-.27,0,0-.02,0-.03,0-.06,0-.15,.05-.21,.05-.01,0-.02,0-.03,0-.06-.04-.03-.23-.09-.27,0,0-.02,0-.03,0-.06,0-.16,.06-.22,.06-.01,0-.02,0-.03,0-.06-.04-.04-.23-.1-.27,0,0-.02,0-.03,0-.06,0-.16,.07-.22,.07-.01,0-.02,0-.03,0-.06-.03-.05-.23-.11-.26,0,0-.02,0-.03,0-.06,0-.16,.08-.23,.08,0,0-.02,0-.02,0-.07-.03-.06-.23-.12-.26,0,0-.01,0-.02,0-.06,0-.17,.09-.23,.09,0,0-.02,0-.02,0-.07-.03-.06-.22-.13-.25,0,0-.01,0-.02,0-.06,0-.17,.09-.23,.09,0,0-.01,0-.02,0-.07-.03-.07-.22-.14-.25,0,0-.01,0-.02,0-.07,0-.17,.1-.23,.1,0,0-.01,0-.02,0-.07-.02-.08-.22-.15-.24,0,0,0,0-.02,0-.07,0-.17,.11-.23,.11,0,0,0,0-.01,0-.07-.02-.09-.22-.16-.24,0,0,0,0-.01,0-.07,0-.17,.12-.23,.12,0,0,0,0-.01,0-.07-.02-.1-.21-.17-.23,0,0,0,0-.01,0-.07,0-.17,.13-.23,.13,0,0,0,0-.01,0-.07-.02-.11-.21-.18-.22,0,0,0,0,0,0-.07,0-.16,.14-.23,.14,0,0,0,0,0,0-.07-.01-.11-.2-.19-.21,0,0,0,0,0,0-.07,0-.16,.15-.23,.15,0,0,0,0,0,0-.07,0-.12-.2-.2-.21,0,0,0,0,0,0-.07,0-.16,.16-.23,.16,0,0,0,0,0,0-.07,0-.13-.19-.2-.2,0,0,0,0,0,0-.07,0-.15,.17-.23,.17,0,0,0,0,0,0-.07,0-.14-.19-.21-.19,0,0,0,0,0,0-.07,0-.15,.18-.22,.18,0,0,0,0,0,0-.07,0-.15-.18-.22-.18h0Z" style="fill:#fff;"/><rect x="12.58" y="0" width="3.19" height="15.24" rx="1.25" ry="1.25" style="fill:#e4e5e6;"/><rect x="12.76" y="0" width="2.83" height="15.24" rx="1.18" ry="1.18" style="fill:#231f20;"/></svg>