<?xml version="1.0" encoding="UTF-8"?><svg id="a" xmlns="http://www.w3.org/2000/svg" viewBox="0 0 28.74 28.57"><g><path d="M14.29,27.12c-.08-.02-.16-.03-.26-.03h0c-.09,0-.17,0-.25,.02-.08-.02-.17-.04-.26-.04h0c-.08,0-.15,0-.22,.01-.08-.03-.17-.04-.26-.05h-.13s-.08,0-.12,0c-.07-.02-.15-.04-.24-.06h-.09s-.14-.01-.17,0c-.08-.03-.16-.05-.24-.07l-.11-.02s-.13,0-.14,0c-.08-.03-.16-.06-.25-.08l-.13-.03h-.11c-.08-.04-.15-.07-.24-.09l-.15-.04h-.09c-.07-.04-.15-.07-.23-.09l-.18-.05h-.08c-.07-.04-.14-.07-.22-.1l-.2-.07h-.06c-.06-.04-.13-.07-.21-.1l-.22-.08h-.05c-.06-.04-.13-.07-.19-.1l-.24-.1h-.04c-.05-.04-.11-.07-.17-.1l-.26-.12h-.03s-.1-.07-.16-.1l-.27-.15h-.02s-.09-.07-.14-.09l-.29-.17h-.01s-.08-.06-.13-.09l-.31-.19s-.07-.05-.1-.08l-.32-.22s-.06-.05-.08-.07l-.31-.23s-.06-.05-.08-.07l-.3-.24s-.05-.05-.08-.08l-.3-.27s-.33-.32-.33-.32c-.03-.04-.06-.07-.09-.1l-.26-.27s-.05-.06-.08-.09c-.05-.05-.11-.11-.18-.17-.04-.07-.09-.14-.14-.21-.05-.06-.11-.12-.18-.17-.04-.07-.08-.15-.14-.21-.05-.07-.11-.13-.17-.18-.03-.07-.08-.15-.13-.21-.05-.07-.11-.13-.16-.19-.03-.08-.07-.15-.12-.22-.05-.07-.1-.14-.16-.2-.03-.08-.07-.16-.11-.23-.04-.07-.09-.14-.15-.2-.03-.08-.06-.15-.1-.23-.04-.08-.09-.15-.14-.21-.02-.08-.05-.16-.09-.23-.04-.08-.08-.15-.13-.21-.02-.08-.05-.16-.08-.24-.03-.08-.08-.15-.12-.21-.02-.08-.04-.16-.07-.24-.03-.08-.07-.15-.12-.22-.01-.08-.03-.16-.06-.24-.03-.08-.06-.16-.11-.23-.01-.08-.03-.17-.06-.25-.03-.08-.06-.16-.1-.23,0-.08-.02-.16-.04-.25-.02-.08-.05-.16-.09-.23,0-.08-.01-.16-.03-.24-.02-.09-.05-.17-.08-.24,0-.08,0-.17-.03-.26-.02-.08-.04-.16-.07-.24,0-.08,0-.17-.02-.25-.01-.08-.03-.17-.06-.24,0-.08,0-.17,0-.25,0-.08-.03-.17-.05-.24,0-.08,.01-.16,0-.25,0-.09-.02-.17-.04-.25,.01-.08,.02-.16,.01-.25,0-.09-.02-.17-.03-.25,.02-.08,.02-.17,.02-.25s0-.17-.02-.25c.02-.08,.03-.17,.03-.25,0-.08,0-.17-.01-.25,.02-.08,.04-.16,.04-.25,0-.08,0-.17,0-.25,.02-.08,.04-.16,.05-.25,0-.08,.01-.17,0-.25,.03-.08,.05-.16,.06-.24,.01-.08,.02-.17,.02-.25,.03-.08,.05-.16,.07-.24,.02-.08,.02-.17,.02-.25,.03-.07,.06-.15,.08-.24,.02-.08,.03-.17,.03-.25,.04-.07,.07-.15,.09-.23,.02-.08,.04-.16,.04-.25,.04-.07,.07-.15,.1-.23,.03-.08,.04-.16,.05-.24,.04-.07,.08-.15,.11-.23,.03-.08,.05-.16,.06-.24,.04-.07,.08-.14,.11-.22,.03-.08,.06-.16,.07-.24,.05-.07,.09-.14,.12-.22,.04-.08,.06-.16,.08-.24,.05-.06,.09-.13,.13-.21,.04-.08,.07-.15,.09-.23,.05-.06,.1-.13,.14-.2,.04-.07,.07-.15,.1-.23,.06-.06,.1-.13,.15-.2,.05-.08,.08-.15,.11-.23,.06-.06,.11-.12,.16-.19,.05-.07,.09-.15,.12-.22,.06-.06,.12-.12,.17-.19,.05-.07,.09-.14,.13-.21,.06-.06,.12-.12,.17-.18,.05-.07,.1-.14,.13-.21,.07-.06,.13-.11,.17-.17,.06-.07,.1-.14,.14-.21,.07-.06,.14-.11,.19-.17,.05-.06,.1-.12,.14-.19l.2-.17c.05-.05,.1-.11,.14-.17l.21-.18c.05-.05,.1-.1,.14-.16l.22-.17c.05-.05,.1-.09,.14-.15l.24-.17c.05-.04,.1-.09,.14-.13l.25-.17c.05-.04,.1-.08,.14-.12l.26-.16c.05-.04,.1-.07,.15-.12l.27-.16c.05-.03,.1-.07,.15-.11l.28-.15c.05-.03,.1-.06,.15-.1l.29-.14c.05-.03,.1-.06,.15-.09l.29-.13c.06-.03,.12-.06,.17-.1h.01l.26-.11c.07-.03,.13-.06,.19-.1h.03l.24-.09c.07-.03,.14-.06,.2-.1h.04l.22-.07c.08-.03,.15-.06,.22-.1h.06l.19-.05c.08-.02,.16-.06,.23-.09h.08l.17-.04c.08-.02,.16-.05,.24-.09h.11l.14-.03c.08-.02,.16-.04,.24-.08h.13l.12-.02c.08-.01,.16-.04,.24-.07,.02,0,.16,0,.16,0h.09c.08-.02,.17-.04,.24-.07,.04,0,.18,0,.18,0h.06c.09-.01,.17-.03,.25-.05,.06,0,.11,.01,.18,.01,.11,0,.21-.02,.3-.04,.08,.01,.16,.02,.24,.02,.1,0,.18-.01,.27-.03,.08,.02,.17,.03,.26,.03h0c.09,0,.17,0,.25-.02,.08,.02,.17,.04,.26,.04h0c.08,0,.15,0,.22-.01,.08,.03,.17,.04,.26,.05h.13s.08,0,.12,0c.08,.03,.16,.05,.25,.06h.08s.14,.01,.17,0c.08,.03,.16,.05,.25,.07l.11,.02s.13,0,.14,0c.08,.03,.16,.06,.24,.08l.13,.03h.11c.08,.04,.16,.07,.24,.09l.15,.04h.09c.07,.04,.14,.07,.23,.09l.18,.05h.08c.07,.04,.15,.07,.22,.1l.19,.07h.06c.07,.04,.14,.08,.21,.1l.21,.08h.04c.06,.04,.13,.07,.19,.1l.24,.1h.04c.06,.04,.11,.07,.17,.1l.26,.12h.03s.1,.07,.16,.1l.28,.15h.02s.09,.07,.14,.09l.29,.17h.01s.08,.06,.13,.09l.31,.19s.07,.05,.1,.08l.32,.22s.06,.05,.09,.07l.28,.21s.07,.06,.1,.09l.3,.24s.05,.05,.08,.08l.29,.25s.05,.06,.08,.08l.28,.26s.05,.06,.08,.09l.25,.25s.05,.07,.08,.1c.05,.06,.11,.11,.18,.17,.04,.07,.08,.14,.14,.2,.05,.06,.11,.12,.18,.18,.04,.07,.08,.14,.13,.21,.05,.07,.11,.13,.17,.18,.03,.07,.07,.14,.12,.21,.05,.07,.11,.14,.17,.19,.03,.08,.07,.15,.12,.23,.05,.07,.1,.14,.16,.19,.03,.08,.07,.15,.11,.23,.04,.07,.09,.14,.15,.2,.03,.08,.06,.16,.1,.23,.04,.07,.09,.14,.14,.2,.02,.08,.05,.15,.09,.23,.04,.08,.08,.15,.13,.21,.02,.08,.05,.16,.08,.24,.04,.08,.08,.15,.12,.21,.02,.08,.04,.15,.07,.23,.03,.08,.07,.16,.12,.23,.01,.08,.03,.16,.06,.24,.03,.08,.07,.16,.11,.23,0,.08,.03,.17,.05,.25,.03,.08,.06,.16,.1,.23,0,.08,.02,.17,.05,.25,.02,.08,.05,.16,.09,.23,0,.08,.02,.17,.04,.25,.02,.08,.05,.16,.08,.23,0,.08,0,.16,.03,.25,.02,.08,.04,.16,.07,.24,0,.08,0,.17,.02,.26,.01,.08,.03,.16,.06,.24,0,.08,0,.17,0,.25,0,.08,.03,.17,.05,.24,0,.08-.01,.16,0,.25,0,.09,.02,.17,.04,.25-.01,.08-.02,.17-.01,.26s.02,.17,.03,.25c-.02,.08-.02,.16-.02,.25s0,.17,.02,.25c-.02,.08-.03,.16-.03,.24,0,.09,0,.17,.01,.26-.02,.08-.04,.16-.04,.25,0,.09,0,.17,0,.25-.02,.08-.04,.16-.05,.24,0,.08-.01,.17,0,.25-.03,.07-.05,.15-.06,.23-.01,.09-.02,.18-.02,.26-.03,.08-.05,.16-.07,.24-.02,.08-.02,.17-.03,.25-.03,.07-.06,.15-.08,.23-.02,.09-.03,.17-.04,.25-.04,.07-.07,.15-.09,.24-.02,.08-.04,.17-.05,.25-.04,.07-.07,.15-.1,.23-.03,.08-.04,.16-.05,.24-.04,.07-.08,.15-.11,.22s-.05,.16-.06,.24c-.04,.07-.08,.14-.11,.22-.03,.08-.06,.16-.07,.24-.05,.07-.09,.14-.13,.22-.04,.08-.06,.16-.08,.24-.05,.06-.09,.13-.13,.21-.04,.08-.07,.15-.09,.23-.05,.06-.09,.12-.14,.2-.04,.08-.08,.16-.1,.24-.06,.06-.11,.13-.15,.2-.04,.07-.08,.15-.11,.22-.05,.05-.1,.12-.15,.19-.05,.07-.09,.15-.12,.22-.06,.05-.11,.12-.16,.19-.05,.07-.09,.15-.13,.22-.06,.06-.12,.12-.17,.19-.05,.07-.1,.14-.13,.21-.07,.06-.13,.12-.18,.18-.06,.07-.1,.13-.14,.2-.07,.05-.13,.11-.18,.17-.05,.06-.1,.12-.14,.19l-.2,.17c-.06,.06-.1,.12-.15,.18l-.21,.17c-.06,.05-.1,.11-.15,.16l-.22,.17c-.05,.05-.1,.1-.15,.15l-.23,.17c-.05,.04-.1,.09-.14,.13l-.26,.18c-.05,.04-.1,.08-.14,.12l-.25,.16c-.05,.04-.1,.07-.15,.12l-.27,.16c-.05,.03-.1,.07-.14,.11l-.28,.15c-.05,.03-.1,.06-.15,.1l-.29,.14c-.05,.03-.1,.06-.15,.09l-.29,.13c-.06,.03-.12,.06-.17,.1h-.01l-.26,.11c-.07,.03-.13,.06-.19,.1h-.03l-.24,.09c-.07,.03-.14,.06-.2,.1h-.04l-.21,.07c-.08,.03-.15,.06-.22,.1h-.06l-.19,.06c-.08,.02-.16,.05-.23,.09h-.08l-.17,.04c-.08,.02-.16,.05-.23,.08h-.1l-.14,.03c-.09,.02-.17,.04-.24,.08h-.13l-.12,.02c-.09,.01-.17,.04-.25,.07-.02,0-.16,0-.16,0h-.09c-.09,.03-.17,.04-.24,.07-.04,0-.18,0-.18,0h-.07c-.09,.01-.17,.03-.25,.05-.06,0-.11-.01-.17-.01-.11,0-.21,.02-.3,.04-.08-.01-.16-.02-.24-.02-.1,0-.18,.01-.27,.03Z" style="fill:#f1f2f2;"/><path d="M14.28,2.72c.07,0,.15,.01,.21,.01h.03s.03,0,.03,0c.06,0,.12,0,.18,0,.08,.01,.16,.02,.23,.02h.07s.07,0,.07,0c.02,0,.05,0,.08,0,.08,.01,.15,.02,.22,.03h.13s.1,.01,.1,.01c.08,.02,.15,.03,.22,.04l.17,.02h.06c.07,.02,.14,.03,.21,.05l.23,.04h.03c.06,.02,.13,.03,.18,.05l.27,.06h0c.05,.02,.11,.03,.16,.05l.28,.07c.05,.02,.1,.03,.15,.05l.28,.08c.05,.02,.1,.04,.15,.06l.27,.09c.05,.02,.1,.04,.15,.06l.27,.1c.05,.03,.1,.05,.15,.07l.26,.11c.05,.03,.1,.05,.15,.08l.25,.12c.05,.03,.1,.06,.15,.08l.24,.12c.05,.03,.1,.06,.15,.09l.23,.13c.05,.04,.1,.07,.15,.1l.23,.14s.1,.08,.15,.11l.22,.14s.1,.08,.15,.12c.06,.04,.12,.09,.19,.13,.06,.05,.11,.1,.17,.15,.06,.05,.12,.09,.18,.13,.06,.06,.11,.11,.16,.16,.06,.05,.11,.1,.17,.14,.05,.06,.11,.11,.16,.16,.05,.05,.11,.1,.17,.15,.05,.06,.1,.12,.15,.17,.05,.05,.11,.1,.16,.15,.05,.06,.1,.12,.14,.17,.04,.05,.1,.1,.16,.16,.05,.07,.09,.13,.14,.18,.04,.05,.09,.11,.15,.16,.04,.07,.09,.13,.13,.19,.04,.06,.09,.11,.15,.17,.04,.07,.08,.13,.12,.19,.04,.06,.09,.12,.14,.18,.04,.07,.08,.13,.12,.19,.04,.06,.08,.12,.13,.18,.03,.07,.07,.14,.11,.2,.04,.06,.08,.12,.12,.19,.03,.07,.07,.14,.1,.2,.03,.06,.07,.13,.12,.19,.03,.07,.06,.14,.09,.2,.03,.06,.07,.13,.11,.2,.03,.07,.05,.14,.08,.21,.03,.06,.06,.13,.1,.2,.02,.08,.05,.15,.08,.21,.03,.07,.06,.13,.09,.2,.02,.08,.04,.15,.07,.21,.02,.07,.05,.14,.09,.21,.02,.08,.04,.15,.06,.22,.02,.07,.05,.14,.08,.21,.01,.08,.03,.15,.05,.22,.02,.07,.04,.14,.07,.21,.01,.08,.03,.15,.04,.22,.02,.07,.04,.14,.06,.22,0,.08,.02,.15,.03,.22,.01,.07,.03,.14,.05,.22,0,.08,.01,.15,.03,.22,.01,.07,.03,.14,.04,.22,0,.08,0,.15,.02,.22,0,.07,.02,.15,.04,.22,0,.08,0,.15,0,.23,0,.07,.01,.15,.03,.22,0,.08,0,.15,0,.23,0,.07,0,.15,.02,.23,0,.08,0,.15,0,.23s0,.15,0,.23c0,.08-.02,.15-.02,.23,0,.07,0,.15,0,.23-.01,.08-.02,.15-.03,.22,0,.07,0,.15,0,.22-.02,.08-.03,.15-.04,.22,0,.07-.01,.15-.02,.22-.02,.08-.03,.15-.04,.22-.01,.07-.02,.14-.02,.22-.02,.08-.04,.15-.05,.22-.01,.07-.03,.14-.03,.22-.02,.07-.04,.15-.06,.22-.02,.07-.03,.14-.04,.22-.03,.07-.05,.14-.07,.21-.02,.07-.04,.14-.05,.22-.03,.07-.06,.14-.08,.21-.02,.07-.04,.14-.06,.22-.03,.07-.06,.14-.09,.21-.02,.07-.05,.14-.07,.21-.04,.07-.07,.14-.09,.2-.03,.07-.05,.14-.08,.21-.04,.07-.07,.14-.1,.2-.03,.06-.06,.13-.08,.21-.04,.07-.08,.13-.11,.2-.03,.06-.06,.13-.09,.2-.04,.07-.08,.13-.12,.19-.03,.06-.07,.13-.1,.2-.05,.06-.09,.13-.12,.19-.04,.06-.07,.13-.11,.2-.05,.06-.09,.12-.13,.18-.04,.06-.08,.12-.12,.19-.05,.06-.1,.12-.14,.18-.04,.06-.08,.12-.12,.19-.05,.06-.1,.12-.15,.17-.04,.06-.09,.12-.13,.19-.06,.06-.11,.11-.15,.16-.05,.06-.09,.12-.14,.18-.06,.06-.11,.11-.16,.16-.05,.05-.1,.11-.14,.17-.06,.05-.11,.1-.16,.15-.05,.05-.1,.11-.15,.17-.06,.05-.11,.09-.17,.15-.05,.05-.1,.1-.16,.16-.06,.04-.12,.09-.17,.14-.05,.05-.11,.1-.16,.16-.06,.04-.12,.09-.18,.13-.06,.04-.11,.09-.17,.15-.06,.04-.13,.08-.19,.13-.03,.03-.07,.05-.11,.08l-.26,.18s-.07,.05-.11,.08l-.26,.17s-.07,.05-.11,.08l-.27,.16s-.08,.05-.12,.07l-.28,.15s-.08,.04-.12,.07l-.28,.14s-.08,.04-.12,.06l-.29,.12s-.08,.04-.12,.06l-.29,.11s-.08,.03-.12,.05l-.3,.1s-.08,.03-.13,.05l-.3,.09s-.08,.03-.13,.04l-.3,.08c-.05,.01-.11,.03-.16,.05h-.01s-.26,.06-.26,.06c-.06,.01-.12,.03-.19,.05h-.04s-.21,.04-.21,.04c-.07,.01-.14,.03-.21,.05h-.06s-.17,.02-.17,.02c-.07,0-.15,.02-.22,.04h-.1s-.12,.01-.12,.01c-.07,0-.15,.02-.22,.03-.03,0-.05,0-.08,0h-.08s-.07,0-.07,0c-.08,0-.15,.01-.24,.02-.07,0-.14,0-.21,0h0c-.07,0-.14,0-.22,.01-.07,0-.15-.01-.21-.01h-.03s-.03,0-.03,0c-.06,0-.12,0-.18,0-.08-.01-.16-.02-.23-.02h-.07s-.07,0-.07,0c-.02,0-.05,0-.08,0-.08-.01-.15-.02-.22-.03h-.13s-.1-.01-.1-.01c-.08-.02-.15-.03-.22-.04l-.18-.02h-.06c-.07-.02-.14-.03-.21-.05l-.23-.04h-.03c-.06-.02-.13-.03-.18-.05l-.27-.06h0c-.05-.02-.11-.03-.16-.05l-.28-.07c-.05-.02-.1-.03-.15-.05l-.28-.08c-.05-.02-.1-.04-.15-.06l-.27-.09c-.05-.02-.1-.04-.15-.06l-.27-.1c-.05-.03-.1-.05-.15-.07l-.26-.11c-.05-.03-.1-.05-.15-.08l-.25-.12c-.05-.03-.1-.06-.15-.08l-.24-.12c-.05-.03-.1-.06-.15-.09l-.23-.13c-.05-.04-.1-.07-.15-.1l-.23-.14s-.1-.08-.15-.11l-.22-.14s-.1-.08-.15-.12c-.06-.04-.12-.09-.19-.13-.06-.05-.11-.1-.17-.15-.06-.05-.12-.09-.18-.13-.06-.06-.11-.11-.16-.16-.06-.05-.11-.1-.17-.14-.05-.06-.11-.11-.16-.16-.05-.05-.11-.1-.17-.15-.05-.06-.1-.12-.15-.17-.05-.05-.11-.1-.16-.15-.05-.06-.1-.12-.14-.17-.04-.05-.1-.1-.16-.16-.05-.07-.09-.13-.14-.18-.04-.05-.09-.11-.15-.16-.04-.07-.09-.13-.13-.19-.04-.06-.09-.11-.15-.17-.04-.07-.08-.13-.12-.19-.04-.06-.09-.12-.14-.18-.04-.07-.08-.13-.12-.19-.04-.06-.08-.12-.13-.18-.03-.07-.07-.14-.11-.2-.04-.06-.08-.12-.12-.19-.03-.07-.07-.14-.1-.2-.03-.06-.07-.13-.12-.19-.03-.07-.06-.14-.09-.2-.03-.06-.07-.13-.11-.2-.03-.07-.05-.14-.08-.21-.03-.06-.06-.13-.1-.2-.02-.08-.05-.15-.08-.21-.03-.07-.06-.13-.09-.2-.02-.08-.04-.15-.07-.21-.02-.07-.05-.14-.09-.21-.02-.08-.04-.15-.06-.22-.02-.07-.05-.14-.08-.21-.01-.08-.03-.15-.05-.22-.02-.07-.04-.14-.07-.21-.01-.08-.03-.15-.04-.22-.02-.07-.04-.14-.06-.22,0-.08-.02-.15-.03-.22-.01-.07-.03-.14-.05-.22,0-.08-.01-.15-.03-.22-.01-.07-.03-.14-.04-.22,0-.08,0-.15-.02-.22,0-.07-.02-.15-.04-.22,0-.08,0-.15,0-.23,0-.07-.01-.15-.03-.22,0-.08,0-.15,0-.23,0-.07,0-.15-.02-.23,0-.08,0-.15,0-.23s0-.15,0-.23c0-.08,.02-.15,.02-.23,0-.07,0-.15,0-.23,.01-.08,.02-.15,.03-.22,0-.07,0-.15,0-.22,.02-.08,.03-.15,.04-.22,0-.07,.01-.15,.02-.22,.02-.08,.03-.15,.04-.22,.01-.07,.02-.14,.02-.22,.02-.08,.04-.15,.05-.22,.01-.07,.03-.14,.03-.22,.02-.07,.04-.15,.06-.22,.02-.07,.03-.14,.04-.22,.03-.07,.05-.14,.07-.21,.02-.07,.04-.14,.05-.22,.03-.07,.06-.14,.08-.21,.02-.07,.04-.14,.06-.22,.03-.07,.06-.14,.09-.21,.02-.07,.05-.14,.07-.21,.04-.07,.07-.14,.09-.2,.03-.07,.05-.14,.08-.21,.04-.07,.07-.14,.1-.2,.03-.06,.06-.13,.08-.21,.04-.07,.08-.13,.11-.2,.03-.06,.06-.13,.09-.2,.04-.07,.08-.13,.12-.19,.03-.06,.07-.13,.1-.2,.05-.06,.09-.13,.12-.19,.04-.06,.07-.13,.11-.2,.05-.06,.09-.12,.13-.18,.04-.06,.08-.12,.12-.19,.05-.06,.1-.12,.14-.18,.04-.06,.08-.12,.12-.19,.05-.06,.1-.12,.15-.17,.04-.06,.09-.12,.13-.19,.06-.06,.11-.11,.15-.16,.05-.06,.09-.12,.14-.18,.06-.06,.11-.11,.16-.16,.05-.05,.1-.11,.14-.17,.06-.05,.11-.1,.16-.15,.05-.05,.1-.11,.15-.17,.06-.05,.11-.09,.17-.15,.05-.05,.1-.1,.16-.16,.06-.04,.12-.09,.17-.14,.05-.05,.11-.1,.16-.16,.06-.04,.12-.09,.18-.13,.06-.04,.11-.09,.17-.15,.06-.04,.13-.08,.19-.13,.03-.03,.07-.05,.11-.08l.26-.18s.07-.05,.11-.08l.26-.17s.07-.05,.11-.08l.27-.16s.08-.05,.12-.07l.28-.15s.08-.04,.12-.07l.28-.14s.08-.04,.12-.06l.29-.12s.08-.04,.12-.06l.29-.11s.08-.03,.12-.05l.3-.1s.08-.03,.13-.05l.3-.09s.08-.03,.13-.04l.3-.08c.05-.01,.11-.03,.16-.05h.01s.26-.06,.26-.06c.06-.01,.12-.03,.19-.05h.04s.21-.04,.21-.04c.07-.01,.14-.03,.21-.05h.07s.17-.02,.17-.02c.07,0,.15-.02,.22-.04h.1s.12-.01,.12-.01c.07,0,.15-.02,.22-.03,.03,0,.05,0,.08,0h.08s.07,0,.07,0c.08,0,.15-.01,.24-.02,.07,0,.14,0,.21,0,0,0,0,0,0,0,.07,0,.14,0,.22-.01m0-2.72c-.09,0-.18,.23-.27,.23,0,0,0,0,0,0-.09,0-.19-.22-.28-.22,0,0,0,0,0,0-.09,0-.17,.23-.26,.24,0,0,0,0,0,0-.09,0-.19-.21-.28-.21,0,0,0,0,0,0-.09,0-.16,.24-.25,.25,0,0,0,0,0,0-.09,0-.2-.2-.29-.2,0,0,0,0,0,0-.09,.01-.15,.25-.25,.26,0,0,0,0,0,0-.09,0-.2-.19-.29-.19,0,0,0,0,0,0-.09,.01-.14,.25-.23,.27,0,0,0,0-.01,0-.09,0-.2-.17-.29-.17,0,0,0,0-.01,0-.09,.02-.13,.26-.22,.28,0,0,0,0-.01,0-.09,0-.21-.16-.29-.16,0,0,0,0-.01,0-.09,.02-.12,.26-.21,.29,0,0-.01,0-.02,0-.08,0-.21-.15-.29-.15,0,0-.01,0-.02,0-.09,.02-.11,.27-.2,.29,0,0-.01,0-.02,0-.08,0-.21-.14-.29-.14,0,0-.01,0-.02,0-.09,.03-.1,.27-.19,.3,0,0-.01,0-.02,0-.08,0-.21-.13-.29-.13,0,0-.02,0-.02,0-.09,.03-.09,.28-.18,.31,0,0-.02,0-.02,0-.08,0-.21-.12-.29-.12,0,0-.02,0-.02,0-.08,.03-.08,.28-.17,.32,0,0-.02,0-.03,0-.08,0-.21-.11-.29-.11-.01,0-.02,0-.03,0-.08,.04-.07,.28-.15,.32,0,0-.02,0-.03,0-.08,0-.21-.1-.28-.1-.01,0-.02,0-.03,0-.08,.04-.06,.28-.14,.33,0,0-.02,0-.03,0-.08,0-.2-.08-.28-.08-.01,0-.03,0-.04,0-.08,.04-.05,.29-.13,.33-.01,0-.02,0-.04,0-.08,0-.2-.07-.27-.07-.02,0-.03,0-.04,0-.08,.05-.04,.29-.11,.34-.01,0-.03,.01-.04,.01-.08,0-.19-.06-.27-.06-.02,0-.03,0-.04,.01-.08,.05-.03,.29-.1,.34-.01,0-.03,.01-.05,.01-.07,0-.18-.05-.26-.05-.02,0-.04,0-.05,.01-.07,.05-.01,.29-.09,.35-.01,.01-.03,.01-.05,.01-.07,0-.18-.04-.25-.04-.02,0-.04,0-.05,.01-.07,.06,0,.29-.07,.35-.01,.01-.04,.02-.06,.02-.07,0-.16-.03-.23-.03-.03,0-.05,0-.06,.02-.07,.06,0,.29-.06,.35-.02,.01-.04,.02-.07,.02-.06,0-.15-.03-.22-.03-.03,0-.05,0-.07,.02-.07,.06,.02,.29-.05,.35-.02,.02-.05,.02-.08,.02-.06,0-.14-.02-.2-.02-.03,0-.06,0-.08,.02-.07,.06,.03,.29-.03,.35-.02,.02-.05,.03-.09,.03-.05,0-.12-.01-.17-.01-.04,0-.07,0-.09,.03-.06,.07,.04,.29-.02,.36-.02,.02-.06,.03-.11,.03-.04,0-.09,0-.13,0-.05,0-.09,0-.11,.03-.06,.07,.05,.29,0,.36-.03,.03-.08,.03-.14,.03-.02,0-.04,0-.06,0-.06,0-.12,0-.15,.03-.06,.07,.06,.28,0,.36-.06,.07-.29,0-.35,.08-.05,.07,.07,.28,.02,.36-.05,.07-.29,.02-.34,.09-.05,.08,.09,.28,.03,.35-.05,.08-.29,.03-.34,.11-.05,.08,.1,.27,.05,.35-.05,.08-.29,.04-.33,.12-.05,.08,.11,.27,.06,.35-.04,.08-.29,.05-.33,.13-.04,.08,.12,.27,.08,.35-.04,.08-.28,.06-.32,.15-.04,.08,.13,.26,.09,.34-.04,.08-.28,.07-.32,.16-.04,.08,.14,.26,.1,.34-.03,.08-.28,.09-.31,.17-.03,.09,.15,.25,.12,.34-.03,.09-.28,.1-.31,.18-.03,.09,.16,.24,.13,.33-.03,.09-.27,.11-.3,.2-.03,.09,.17,.24,.14,.33-.02,.09-.27,.12-.29,.21-.02,.09,.18,.23,.15,.32-.02,.09-.26,.13-.28,.22-.02,.09,.18,.22,.17,.31-.02,.09-.26,.14-.27,.23-.02,.09,.19,.22,.18,.31-.01,.09-.25,.15-.26,.24-.01,.09,.2,.21,.19,.3-.01,.09-.25,.16-.25,.25,0,.09,.21,.2,.2,.29,0,.09-.24,.17-.24,.26,0,.09,.22,.19,.21,.29,0,.09-.23,.18-.23,.27,0,.09,.22,.19,.22,.28S0,14.47,0,14.56c0,.09,.23,.18,.23,.27,0,.09-.22,.19-.21,.29,0,.09,.24,.17,.24,.26,0,.09-.21,.2-.2,.29,0,.09,.24,.16,.25,.25,.01,.09-.2,.21-.19,.3,.01,.09,.25,.15,.26,.24,.01,.09-.19,.22-.18,.31,.02,.09,.26,.14,.27,.23,.02,.09-.19,.23-.17,.32,.02,.09,.26,.13,.28,.22,.02,.09-.18,.23-.15,.32,.02,.09,.27,.12,.29,.21,.02,.09-.17,.24-.14,.33,.03,.09,.27,.11,.3,.2,.03,.09-.16,.25-.13,.33,.03,.09,.27,.1,.31,.18,.03,.09-.15,.25-.12,.34,.03,.09,.28,.09,.31,.17,.03,.08-.14,.26-.1,.34,.04,.08,.28,.08,.32,.16,.04,.08-.13,.26-.09,.35,.04,.08,.28,.06,.32,.15,.04,.08-.12,.27-.08,.35,.04,.08,.29,.05,.33,.13,.04,.08-.11,.27-.06,.35,.05,.08,.29,.04,.34,.12,.05,.08-.1,.28-.05,.35,.05,.08,.29,.03,.34,.11,.05,.08-.09,.28-.03,.35,.05,.08,.29,.02,.34,.09,.05,.07-.08,.28-.02,.36,.05,.07,.29,0,.35,.08,.06,.07-.06,.28,0,.36,.02,.03,.08,.03,.14,.03,.02,0,.04,0,.06,0,.06,0,.12,0,.14,.03,.06,.07-.05,.29,0,.36,.02,.02,.06,.03,.11,.03,.04,0,.09,0,.13,0,.05,0,.09,0,.11,.03,.06,.07-.04,.29,.02,.36,.02,.02,.05,.03,.09,.03,.05,0,.12-.01,.17-.01,.04,0,.07,0,.09,.02,.06,.07-.03,.29,.03,.35,.02,.02,.05,.02,.08,.02,.06,0,.14-.02,.2-.02,.03,0,.06,0,.08,.02,.07,.06-.02,.29,.05,.35,.02,.01,.04,.02,.07,.02,.07,0,.15-.03,.22-.03,.03,0,.05,0,.07,.02,.07,.06,0,.29,.06,.35,.01,.01,.04,.02,.06,.02,.07,0,.17-.03,.23-.03,.02,0,.05,0,.06,.02,.07,.06,0,.29,.07,.35,.01,.01,.03,.01,.05,.01,.07,0,.18-.04,.25-.04,.02,0,.04,0,.05,.01,.07,.05,.01,.29,.09,.35,.01,0,.03,.01,.05,.01,.07,0,.18-.05,.26-.05,.02,0,.04,0,.05,.01,.08,.05,.02,.29,.1,.34,.01,0,.03,.01,.04,.01,.08,0,.19-.06,.27-.06,.02,0,.03,0,.04,.01,.08,.05,.04,.29,.11,.34,.01,0,.02,0,.04,0,.08,0,.2-.07,.27-.07,.01,0,.03,0,.04,0,.08,.05,.05,.29,.13,.33,.01,0,.02,0,.04,0,.08,0,.2-.08,.28-.08,.01,0,.02,0,.03,0,.08,.04,.06,.29,.14,.33,0,0,.02,0,.03,0,.08,0,.21-.1,.28-.1,.01,0,.02,0,.03,0,.08,.04,.07,.28,.15,.32,0,0,.02,0,.03,0,.08,0,.21-.11,.29-.11,0,0,.02,0,.03,0,.08,.04,.08,.28,.17,.32,0,0,.02,0,.02,0,.08,0,.21-.12,.29-.12,0,0,.02,0,.02,0,.09,.03,.09,.28,.18,.31,0,0,.01,0,.02,0,.08,0,.21-.13,.29-.13,0,0,.01,0,.02,0,.09,.03,.1,.27,.19,.3,0,0,.01,0,.02,0,.08,0,.21-.14,.29-.14,0,0,.01,0,.02,0,.09,.03,.11,.27,.2,.29,0,0,.01,0,.02,0,.08,0,.21-.15,.29-.15,0,0,.01,0,.02,0,.09,.02,.12,.26,.21,.29,0,0,0,0,.01,0,.08,0,.21-.16,.29-.16,0,0,0,0,.01,0,.09,.02,.13,.26,.22,.28,0,0,0,0,.01,0,.09,0,.2-.17,.29-.17,0,0,0,0,.01,0,.09,.02,.14,.25,.23,.27,0,0,0,0,0,0,.09,0,.2-.19,.29-.19,0,0,0,0,0,0,.09,.01,.15,.25,.24,.26,0,0,0,0,0,0,.09,0,.2-.2,.28-.2,0,0,0,0,0,0,.09,0,.16,.24,.25,.25,0,0,0,0,0,0,.09,0,.19-.21,.28-.21,0,0,0,0,0,0,.09,0,.17,.24,.26,.24,0,0,0,0,0,0,.09,0,.19-.22,.28-.22,0,0,0,0,0,0,.09,0,.18,.23,.28,.23s.18-.23,.27-.23c0,0,0,0,0,0,.09,0,.19,.22,.28,.22,0,0,0,0,0,0,.09,0,.17-.23,.26-.24,0,0,0,0,0,0,.09,0,.19,.21,.28,.21,0,0,0,0,0,0,.09,0,.16-.24,.26-.25,0,0,0,0,0,0,.09,0,.2,.2,.29,.2,0,0,0,0,0,0,.09-.01,.15-.25,.25-.26,0,0,0,0,0,0,.09,0,.2,.19,.29,.19,0,0,0,0,0,0,.09-.01,.14-.25,.23-.27,0,0,0,0,.01,0,.09,0,.2,.17,.29,.17,0,0,0,0,.01,0,.09-.02,.13-.26,.22-.28,0,0,0,0,.01,0,.09,0,.21,.16,.29,.16,0,0,0,0,.01,0,.09-.02,.12-.26,.21-.29,0,0,.01,0,.02,0,.08,0,.21,.15,.29,.15,0,0,.01,0,.02,0,.09-.02,.11-.27,.2-.29,0,0,.01,0,.02,0,.08,0,.21,.14,.29,.14,0,0,.01,0,.02,0,.09-.03,.1-.27,.19-.3,0,0,.01,0,.02,0,.08,0,.21,.13,.29,.13,0,0,.02,0,.02,0,.09-.03,.09-.28,.18-.31,0,0,.02,0,.02,0,.08,0,.21,.12,.29,.12,0,0,.02,0,.02,0,.08-.03,.08-.28,.17-.32,0,0,.02,0,.03,0,.08,0,.21,.11,.29,.11,.01,0,.02,0,.03,0,.08-.04,.07-.28,.15-.32,0,0,.02,0,.03,0,.08,0,.21,.1,.28,.1,.01,0,.02,0,.03,0,.08-.04,.06-.28,.14-.33,0,0,.02,0,.03,0,.08,0,.2,.08,.28,.08,.01,0,.03,0,.04,0,.08-.04,.05-.29,.13-.33,.01,0,.02,0,.04,0,.08,0,.2,.07,.27,.07,.02,0,.03,0,.04,0,.08-.05,.04-.29,.11-.34,.01,0,.03-.01,.04-.01,.08,0,.19,.06,.27,.06,.02,0,.03,0,.04-.01,.08-.05,.03-.29,.1-.34,.01,0,.03-.01,.05-.01,.07,0,.18,.05,.26,.05,.02,0,.04,0,.05-.01,.07-.05,.01-.29,.09-.35,.01-.01,.03-.01,.05-.01,.07,0,.18,.04,.25,.04,.02,0,.04,0,.05-.01,.07-.06,0-.29,.07-.35,.01-.01,.04-.02,.06-.02,.07,0,.16,.03,.23,.03,.03,0,.05,0,.06-.02,.07-.06,0-.29,.06-.35,.02-.01,.04-.02,.07-.02,.06,0,.15,.03,.22,.03,.03,0,.05,0,.07-.02,.07-.06-.02-.29,.05-.35,.02-.02,.05-.02,.08-.02,.06,0,.14,.02,.2,.02,.03,0,.06,0,.08-.02,.07-.06-.03-.29,.03-.35,.02-.02,.05-.03,.09-.03,.05,0,.12,.01,.17,.01,.04,0,.07,0,.09-.03,.06-.07-.04-.29,.02-.36,.02-.02,.06-.03,.11-.03,.04,0,.09,0,.13,0,.05,0,.09,0,.11-.03,.06-.07-.05-.29,0-.36,.03-.03,.08-.03,.14-.03,.02,0,.04,0,.06,0,.06,0,.12,0,.15-.03,.06-.07-.06-.28,0-.36,.06-.07,.29,0,.35-.08,.05-.07-.07-.28-.02-.36,.05-.07,.29-.02,.34-.09,.05-.08-.09-.28-.03-.35,.05-.08,.29-.03,.34-.11,.05-.08-.1-.27-.05-.35,.05-.08,.29-.04,.33-.12,.05-.08-.11-.27-.06-.35,.04-.08,.29-.05,.33-.13,.04-.08-.12-.27-.08-.35,.04-.08,.28-.06,.32-.15,.04-.08-.13-.26-.09-.34,.04-.08,.28-.07,.32-.16,.04-.08-.14-.26-.1-.34,.03-.08,.28-.09,.31-.17,.03-.09-.15-.25-.12-.34,.03-.09,.28-.1,.31-.18,.03-.09-.16-.24-.13-.33,.03-.09,.27-.11,.3-.2,.03-.09-.17-.24-.14-.33,.02-.09,.27-.12,.29-.21,.02-.09-.18-.23-.15-.32,.02-.09,.26-.13,.28-.22,.02-.09-.18-.22-.17-.31,.02-.09,.26-.14,.27-.23,.02-.09-.19-.22-.18-.31,.01-.09,.25-.15,.26-.24,.01-.09-.2-.21-.19-.3,.01-.09,.25-.16,.25-.25,0-.09-.21-.2-.2-.29,0-.09,.24-.17,.24-.26,0-.09-.22-.19-.21-.29,0-.09,.23-.18,.23-.27,0-.09-.22-.19-.22-.28s.23-.19,.22-.28c0-.09-.23-.18-.23-.27,0-.09,.22-.19,.21-.29,0-.09-.24-.17-.24-.26,0-.09,.21-.2,.2-.29,0-.09-.24-.16-.25-.25-.01-.09,.2-.21,.19-.3-.01-.09-.25-.15-.26-.24-.01-.09,.19-.22,.18-.31-.02-.09-.26-.14-.27-.23-.02-.09,.19-.23,.17-.32-.02-.09-.26-.13-.28-.22-.02-.09,.18-.23,.15-.32-.02-.09-.27-.12-.29-.21-.02-.09,.17-.24,.14-.33-.03-.09-.27-.11-.3-.2-.03-.09,.16-.25,.13-.33-.03-.09-.27-.1-.31-.18-.03-.09,.15-.25,.12-.34-.03-.09-.28-.09-.31-.17-.03-.08,.14-.26,.1-.34-.04-.08-.28-.08-.32-.16-.04-.08,.13-.26,.09-.35-.04-.08-.28-.06-.32-.15-.04-.08,.12-.27,.08-.35-.04-.08-.29-.05-.33-.13-.04-.08,.11-.27,.06-.35-.05-.08-.29-.04-.34-.12-.05-.08,.1-.28,.05-.35-.05-.08-.29-.03-.34-.11-.05-.08,.09-.28,.03-.35-.05-.08-.29-.02-.34-.09-.05-.07,.08-.28,.02-.36-.05-.07-.29,0-.35-.08-.06-.07,.06-.28,0-.36-.02-.03-.08-.03-.14-.03-.02,0-.04,0-.06,0-.06,0-.12,0-.14-.03-.06-.07,.05-.29,0-.36-.02-.02-.06-.03-.11-.03-.04,0-.09,0-.13,0-.05,0-.09,0-.11-.03-.06-.07,.04-.29-.02-.36-.02-.02-.05-.03-.09-.03-.05,0-.12,.01-.17,.01-.04,0-.07,0-.09-.02-.06-.07,.03-.29-.03-.35-.02-.02-.05-.02-.08-.02-.06,0-.14,.02-.2,.02-.03,0-.06,0-.08-.02-.07-.06,.02-.29-.05-.35-.02-.01-.04-.02-.07-.02-.07,0-.15,.03-.22,.03-.03,0-.05,0-.07-.02-.07-.06,0-.29-.06-.35-.01-.01-.04-.02-.06-.02-.07,0-.17,.03-.23,.03-.02,0-.05,0-.06-.02-.07-.06,0-.29-.07-.35-.01-.01-.03-.01-.05-.01-.07,0-.18,.04-.25,.04-.02,0-.04,0-.05-.01-.07-.05-.01-.29-.09-.35-.01,0-.03-.01-.05-.01-.07,0-.18,.05-.26,.05-.02,0-.04,0-.05-.01-.08-.05-.02-.29-.1-.34-.01,0-.03-.01-.04-.01-.08,0-.19,.06-.27,.06-.02,0-.03,0-.04-.01-.08-.05-.04-.29-.11-.34-.01,0-.02,0-.04,0-.08,0-.2,.07-.27,.07-.01,0-.03,0-.04,0-.08-.05-.05-.29-.13-.33-.01,0-.02,0-.04,0-.08,0-.2,.08-.28,.08-.01,0-.02,0-.03,0-.08-.04-.06-.29-.14-.33,0,0-.02,0-.03,0-.08,0-.21,.1-.28,.1-.01,0-.02,0-.03,0-.08-.04-.07-.28-.15-.32,0,0-.02,0-.03,0-.08,0-.21,.11-.29,.11,0,0-.02,0-.03,0-.08-.04-.08-.28-.17-.32,0,0-.02,0-.02,0-.08,0-.21,.12-.29,.12,0,0-.02,0-.02,0-.09-.03-.09-.28-.18-.31,0,0-.01,0-.02,0-.08,0-.21,.13-.29,.13,0,0-.01,0-.02,0-.09-.03-.1-.27-.19-.3,0,0-.01,0-.02,0-.08,0-.21,.14-.29,.14,0,0-.01,0-.02,0-.09-.03-.11-.27-.2-.29,0,0-.01,0-.02,0-.08,0-.21,.15-.29,.15,0,0-.01,0-.02,0-.09-.02-.12-.26-.21-.29,0,0,0,0-.01,0-.08,0-.21,.16-.29,.16,0,0,0,0-.01,0-.09-.02-.13-.26-.22-.28,0,0,0,0-.01,0-.09,0-.2,.17-.29,.17,0,0,0,0-.01,0-.09-.02-.14-.25-.23-.27,0,0,0,0,0,0-.09,0-.2,.19-.29,.19,0,0,0,0,0,0-.09-.01-.15-.25-.24-.26,0,0,0,0,0,0-.09,0-.2,.2-.28,.2,0,0,0,0,0,0-.09,0-.16-.24-.25-.25,0,0,0,0,0,0-.09,0-.19,.21-.28,.21,0,0,0,0,0,0-.09,0-.17-.24-.26-.24,0,0,0,0,0,0-.09,0-.19,.22-.28,.22,0,0,0,0,0,0-.09,0-.18-.23-.28-.23h0Z" style="fill:#f04b46;"/></g><g style="opacity:.2;"><path d="M14.46,.93c.08,.03,.17,.05,.27,.05,.09,0,.18-.02,.25-.04,.08,.03,.18,.06,.29,.06,.08,0,.15-.01,.21-.03,.07,.03,.16,.06,.25,.07h.04s.04,0,.04,0c.07,0,.13,0,.18-.02,.07,.04,.16,.06,.25,.08h.06s.05,0,.05,0c.05,0,.11,0,.15-.01,.07,.04,.15,.07,.25,.09h.07s.07,.01,.07,.01c.04,0,.08,0,.12,0,.07,.04,.15,.08,.24,.1l.09,.02h.08s.06,0,.09,0c.07,.04,.15,.08,.24,.11l.11,.03h.09s.04,0,.06,0c.07,.05,.14,.09,.24,.11l.12,.03h.11s.02,0,.03,0c.06,.05,.14,.09,.23,.12l.14,.04h.12c.06,.05,.14,.1,.23,.13l.15,.05h.1c.06,.05,.13,.1,.22,.14l.17,.07h.09c.06,.06,.13,.11,.21,.15l.18,.08h.07c.05,.06,.12,.11,.2,.15l.2,.09h.06c.05,.06,.12,.11,.19,.16l.21,.11h.05c.05,.06,.11,.11,.18,.16l.23,.13h.03c.05,.06,.1,.11,.17,.16l.24,.14h.02c.04,.06,.09,.11,.16,.16,.07,.05,.15,.09,.23,.12,.04,.07,.1,.14,.18,.2,.06,.04,.13,.09,.23,.13,.04,.07,.1,.14,.17,.2,.05,.05,.13,.1,.22,.14,.04,.07,.09,.14,.16,.21,.05,.05,.12,.1,.22,.15,.04,.07,.08,.15,.15,.21,.05,.05,.12,.11,.21,.15,.03,.07,.08,.15,.14,.22,.05,.05,.12,.11,.21,.16,.03,.08,.07,.15,.13,.23,.06,.07,.12,.13,.2,.17,.03,.08,.07,.15,.13,.23,.06,.08,.12,.13,.19,.18,.02,.08,.06,.16,.12,.24,.06,.08,.12,.14,.19,.19,.02,.08,.05,.16,.11,.24,.05,.08,.11,.14,.18,.19,.02,.08,.05,.16,.1,.24,.05,.08,.11,.15,.17,.2,.01,.08,.04,.16,.09,.25,.05,.08,.1,.15,.16,.21,.01,.08,.04,.16,.08,.25,.04,.09,.1,.16,.15,.21,0,.08,.03,.17,.07,.25,.04,.09,.09,.16,.15,.22,0,.08,.02,.17,.06,.26,.04,.09,.08,.16,.14,.22,0,.08,.02,.17,.05,.26,.03,.09,.08,.17,.13,.23,0,.08,0,.17,.04,.26,.03,.09,.07,.17,.12,.23,0,.08,0,.17,.03,.26,.03,.09,.06,.17,.11,.24,0,.08,0,.17,.02,.26,.02,.09,.06,.17,.1,.24-.01,.08-.01,.17,0,.26,.02,.09,.05,.18,.09,.25-.01,.08-.02,.17,0,.26,.01,.09,.04,.18,.08,.25-.02,.08-.02,.17-.01,.26,.01,.1,.04,.18,.07,.25-.02,.08-.03,.17-.02,.26,0,.1,.03,.18,.06,.26-.02,.08-.04,.17-.03,.26,0,.1,.02,.18,.05,.26-.03,.08-.04,.16-.04,.26s.02,.18,.04,.26c-.03,.08-.05,.16-.05,.26,0,.1,0,.18,.03,.26-.03,.07-.05,.16-.06,.26,0,.1,0,.18,.02,.26-.03,.07-.06,.16-.07,.25-.01,.1,0,.18,.01,.26-.04,.07-.07,.15-.08,.25-.01,.09-.01,.18,0,.26-.04,.07-.07,.15-.09,.25-.02,.09-.02,.18,0,.26-.04,.07-.08,.15-.1,.24-.02,.09-.03,.18-.02,.26-.05,.07-.08,.15-.11,.24-.03,.09-.03,.18-.03,.26-.05,.07-.09,.14-.12,.23-.03,.09-.04,.18-.04,.26-.05,.06-.1,.14-.13,.23-.03,.09-.05,.18-.05,.26-.05,.06-.1,.13-.14,.22-.04,.09-.05,.17-.06,.25-.06,.06-.11,.13-.15,.22-.04,.09-.06,.17-.07,.25-.06,.06-.11,.13-.15,.21-.04,.09-.07,.17-.08,.25-.06,.05-.12,.12-.16,.21-.05,.08-.07,.17-.09,.25-.06,.05-.12,.12-.17,.2-.05,.08-.08,.16-.1,.24-.06,.05-.12,.11-.18,.19-.05,.08-.09,.16-.11,.24-.07,.05-.13,.11-.19,.19-.06,.08-.09,.16-.12,.23-.07,.04-.13,.1-.19,.18-.06,.08-.1,.15-.13,.23-.07,.05-.14,.1-.2,.17-.06,.07-.1,.15-.13,.23-.09,.05-.16,.11-.21,.16-.06,.07-.11,.15-.14,.22-.09,.05-.16,.1-.21,.16-.07,.07-.12,.14-.15,.21-.09,.04-.16,.1-.22,.15-.07,.07-.12,.14-.16,.21-.1,.04-.17,.09-.22,.14-.07,.06-.13,.13-.17,.2-.1,.04-.17,.09-.23,.13-.07,.06-.13,.13-.17,.2-.08,.03-.16,.07-.23,.12-.07,.05-.12,.11-.17,.17h-.06s-.19,.13-.19,.13c-.07,.05-.13,.11-.18,.17h-.07s-.18,.12-.18,.12c-.08,.05-.14,.1-.19,.16h-.08s-.17,.1-.17,.1c-.08,.05-.14,.1-.2,.16h-.09s-.16,.09-.16,.09c-.08,.04-.15,.1-.21,.16h-.1s-.15,.08-.15,.08c-.09,.04-.16,.09-.21,.15h-.11s-.14,.06-.14,.06c-.09,.04-.16,.09-.22,.14h-.13s-.13,.05-.13,.05c-.09,.03-.16,.08-.23,.13h-.14s-.12,.04-.12,.04c-.09,.03-.17,.07-.23,.12,0,0-.02,0-.03,0h-.13s-.11,.03-.11,.03c-.09,.03-.17,.07-.24,.12-.02,0-.04,0-.06,0h-.11s-.09,.03-.09,.03c-.09,.02-.17,.06-.24,.11-.03,0-.06,0-.09,0h-.09s-.08,.02-.08,.02c-.09,.02-.17,.05-.24,.1-.04,0-.08,0-.12,0h-.08s-.06,.01-.06,.01c-.09,.02-.18,.05-.25,.09-.05,0-.1-.01-.15-.01h-.06s-.05,0-.05,0c-.1,.01-.18,.04-.25,.08-.06-.01-.12-.02-.19-.02h-.04s-.04,0-.04,0c-.1,0-.19,.04-.26,.07-.07-.02-.16-.03-.25-.03,0,0,0,0,0,0-.1,0-.18,.03-.26,.06-.08-.02-.16-.04-.26-.04h0c-.1,0-.19,.02-.26,.05-.08-.03-.17-.05-.27-.05-.09,0-.18,.02-.25,.04-.08-.03-.18-.06-.29-.06-.08,0-.15,.01-.21,.03-.07-.03-.16-.06-.25-.07h-.04s-.04,0-.04,0c-.07,0-.13,0-.18,.02-.07-.04-.16-.06-.25-.08h-.06s-.05,0-.05,0c-.05,0-.11,0-.15,.01-.07-.04-.15-.07-.25-.09h-.07s-.07-.01-.07-.01c-.04,0-.08,0-.12,0-.07-.04-.15-.08-.24-.1l-.09-.02h-.08s-.06,0-.09,0c-.07-.04-.15-.08-.24-.11l-.11-.03h-.09s-.04,0-.06,0c-.07-.05-.14-.09-.24-.11l-.12-.03h-.11s-.02,0-.03,0c-.06-.05-.14-.09-.23-.12l-.14-.04h-.12c-.06-.05-.14-.1-.23-.13l-.15-.05h-.1c-.06-.05-.13-.1-.22-.14l-.17-.07h-.09c-.06-.06-.13-.11-.21-.15l-.18-.08h-.07c-.05-.06-.12-.11-.2-.15l-.2-.09h-.06c-.05-.06-.12-.11-.19-.16l-.21-.11h-.05c-.05-.06-.11-.11-.18-.16l-.23-.13h-.03c-.05-.06-.1-.11-.17-.16l-.24-.14h-.02c-.04-.06-.09-.11-.16-.16-.07-.05-.15-.09-.23-.12-.04-.07-.1-.14-.18-.2-.06-.04-.13-.09-.23-.13-.04-.07-.1-.14-.17-.2-.05-.05-.13-.1-.22-.14-.04-.07-.09-.14-.16-.21-.05-.05-.12-.1-.22-.15-.04-.07-.08-.15-.15-.21-.05-.05-.12-.11-.21-.15-.03-.07-.08-.15-.14-.22-.05-.05-.12-.11-.21-.16-.03-.08-.07-.15-.13-.23-.06-.07-.12-.13-.2-.17-.03-.08-.07-.15-.13-.23-.06-.08-.12-.13-.19-.18-.02-.08-.06-.16-.12-.24-.06-.08-.12-.14-.19-.19-.02-.08-.05-.16-.11-.24-.05-.08-.11-.14-.18-.19-.02-.08-.05-.16-.1-.24-.05-.08-.11-.15-.17-.2-.01-.08-.04-.16-.09-.25-.05-.08-.1-.15-.16-.21-.01-.08-.04-.16-.08-.25-.04-.09-.1-.16-.15-.21,0-.08-.03-.17-.07-.25-.04-.09-.09-.16-.15-.22,0-.08-.02-.17-.06-.26-.04-.09-.08-.16-.14-.22,0-.08-.02-.17-.05-.26-.03-.09-.08-.17-.13-.23,0-.08,0-.17-.04-.26-.03-.09-.07-.17-.12-.23,0-.08,0-.17-.03-.26-.03-.09-.06-.17-.11-.24,0-.08,0-.17-.02-.26-.02-.09-.06-.17-.1-.24,.01-.08,.01-.17,0-.26-.02-.09-.05-.18-.09-.25,.01-.08,.02-.17,0-.26-.01-.09-.04-.18-.08-.25,.02-.08,.02-.17,.01-.26-.01-.1-.04-.18-.07-.25,.02-.08,.03-.17,.02-.26,0-.1-.03-.18-.06-.26,.02-.08,.04-.17,.03-.26,0-.1-.02-.18-.05-.26,.03-.08,.04-.16,.04-.26s-.02-.18-.04-.26c.03-.08,.05-.16,.05-.26,0-.1,0-.18-.03-.26,.03-.07,.05-.16,.06-.26,0-.1,0-.18-.02-.26,.03-.07,.06-.16,.07-.25,.01-.1,0-.18-.01-.26,.04-.07,.07-.15,.08-.25,.01-.09,.01-.18,0-.26,.04-.07,.07-.15,.09-.25,.02-.09,.02-.18,0-.26,.04-.07,.08-.15,.1-.24,.02-.09,.03-.18,.02-.26,.05-.07,.08-.15,.11-.24,.03-.09,.03-.18,.03-.26,.05-.07,.09-.14,.12-.23,.03-.09,.04-.18,.04-.26,.05-.06,.1-.14,.13-.23,.03-.09,.05-.18,.05-.26,.05-.06,.1-.13,.14-.22,.04-.09,.05-.17,.06-.25,.06-.06,.11-.13,.15-.22,.04-.09,.06-.17,.07-.25,.06-.06,.11-.13,.15-.21,.04-.09,.07-.17,.08-.25,.06-.05,.12-.12,.16-.21,.05-.08,.07-.17,.09-.25,.06-.05,.12-.12,.17-.2,.05-.08,.08-.16,.1-.24,.06-.05,.12-.11,.18-.19,.05-.08,.09-.16,.11-.24,.07-.05,.13-.11,.19-.19,.06-.08,.09-.16,.12-.23,.07-.04,.13-.1,.19-.18,.06-.08,.1-.15,.13-.23,.07-.05,.14-.1,.2-.17,.06-.07,.1-.15,.13-.23,.09-.05,.16-.11,.21-.16,.06-.07,.11-.15,.14-.22,.09-.05,.16-.1,.21-.16,.07-.07,.12-.14,.15-.21,.09-.04,.16-.1,.22-.15,.07-.07,.12-.14,.16-.21,.1-.04,.17-.09,.22-.14,.07-.06,.13-.13,.17-.2,.1-.04,.17-.09,.23-.13,.07-.06,.13-.13,.17-.2,.08-.03,.16-.07,.23-.12,.07-.05,.12-.11,.17-.17h.06s.19-.13,.19-.13c.07-.05,.13-.11,.18-.17h.07s.18-.12,.18-.12c.08-.05,.14-.1,.19-.16h.08s.17-.1,.17-.1c.08-.05,.14-.1,.2-.16h.09s.16-.09,.16-.09c.08-.04,.15-.1,.21-.16h.1s.15-.08,.15-.08c.09-.04,.16-.09,.21-.15h.11s.14-.06,.14-.06c.09-.04,.16-.09,.22-.14h.13s.13-.05,.13-.05c.09-.03,.16-.08,.23-.13h.14s.12-.04,.12-.04c.09-.03,.17-.07,.23-.12,0,0,.02,0,.03,0h.13s.11-.03,.11-.03c.09-.03,.17-.07,.24-.12,.02,0,.04,0,.06,0h.11s.09-.03,.09-.03c.09-.02,.17-.06,.24-.11,.03,0,.06,0,.09,0h.09s.08-.02,.08-.02c.09-.02,.17-.05,.24-.1,.04,0,.08,0,.12,0h.08s.06-.01,.06-.01c.09-.02,.18-.05,.25-.09,.05,0,.1,.01,.15,.01h.06s.05,0,.05,0c.1-.01,.18-.04,.25-.08,.06,.01,.12,.02,.19,.02h.04s.04,0,.04,0c.1,0,.19-.04,.26-.07,.07,.02,.16,.03,.25,.03,0,0,0,0,0,0,.1,0,.18-.03,.26-.06,.08,.02,.16,.04,.26,.04,0,0,0,0,0,0,.1,0,.19-.02,.26-.05m0-.93c-.09,0-.18,.23-.27,.23,0,0,0,0,0,0-.09,0-.19-.22-.28-.22,0,0,0,0,0,0-.09,0-.17,.23-.26,.24,0,0,0,0,0,0-.09,0-.19-.21-.28-.21,0,0,0,0,0,0-.09,0-.16,.24-.25,.25,0,0,0,0,0,0-.09,0-.2-.2-.29-.2,0,0,0,0,0,0-.09,.01-.15,.25-.25,.26,0,0,0,0,0,0-.09,0-.2-.19-.29-.19,0,0,0,0,0,0-.09,.01-.14,.25-.23,.27,0,0,0,0-.01,0-.09,0-.2-.17-.29-.17,0,0,0,0-.01,0-.09,.02-.13,.26-.22,.28,0,0,0,0-.01,0-.09,0-.21-.16-.29-.16,0,0,0,0-.01,0-.09,.02-.12,.26-.21,.29,0,0-.01,0-.02,0-.08,0-.21-.15-.29-.15,0,0-.01,0-.02,0-.09,.02-.11,.27-.2,.29,0,0-.01,0-.02,0-.08,0-.21-.14-.29-.14,0,0-.01,0-.02,0-.09,.03-.1,.27-.19,.3,0,0-.01,0-.02,0-.08,0-.21-.13-.29-.13,0,0-.02,0-.02,0-.09,.03-.09,.28-.18,.31,0,0-.02,0-.02,0-.08,0-.21-.12-.29-.12,0,0-.02,0-.02,0-.08,.03-.08,.28-.17,.32,0,0-.02,0-.03,0-.08,0-.21-.11-.29-.11-.01,0-.02,0-.03,0-.08,.04-.07,.28-.15,.32,0,0-.02,0-.03,0-.08,0-.21-.1-.28-.1-.01,0-.02,0-.03,0-.08,.04-.06,.28-.14,.33,0,0-.02,0-.03,0-.08,0-.2-.08-.28-.08-.01,0-.03,0-.04,0-.08,.04-.05,.29-.13,.33-.01,0-.02,0-.04,0-.08,0-.2-.07-.27-.07-.02,0-.03,0-.04,0-.08,.05-.04,.29-.11,.34-.01,0-.03,.01-.04,.01-.08,0-.19-.06-.27-.06-.02,0-.03,0-.04,.01-.08,.05-.03,.29-.1,.34-.01,0-.03,.01-.05,.01-.07,0-.18-.05-.26-.05-.02,0-.04,0-.05,.01-.07,.05-.01,.29-.09,.35-.01,.01-.03,.01-.05,.01-.07,0-.18-.04-.25-.04-.02,0-.04,0-.05,.01-.07,.06,0,.29-.07,.35-.01,.01-.04,.02-.06,.02-.07,0-.16-.03-.23-.03-.03,0-.05,0-.06,.02-.07,.06,0,.29-.06,.35-.02,.01-.04,.02-.07,.02-.06,0-.15-.03-.22-.03-.03,0-.05,0-.07,.02-.07,.06,.02,.29-.05,.35-.02,.02-.05,.02-.08,.02-.06,0-.14-.02-.2-.02-.03,0-.06,0-.08,.02-.07,.06,.03,.29-.03,.35-.02,.02-.05,.03-.09,.03-.05,0-.12-.01-.17-.01-.04,0-.07,0-.09,.03-.06,.07,.04,.29-.02,.36-.02,.02-.06,.03-.11,.03-.04,0-.09,0-.13,0-.05,0-.09,0-.11,.03-.06,.07,.05,.29,0,.36-.03,.03-.08,.03-.14,.03-.02,0-.04,0-.06,0-.06,0-.12,0-.15,.03-.06,.07,.06,.28,0,.36-.06,.07-.29,0-.35,.08-.05,.07,.07,.28,.02,.36-.05,.07-.29,.02-.34,.09-.05,.08,.09,.28,.03,.35-.05,.08-.29,.03-.34,.11-.05,.08,.1,.27,.05,.35-.05,.08-.29,.04-.33,.12-.05,.08,.11,.27,.06,.35-.04,.08-.29,.05-.33,.13-.04,.08,.12,.27,.08,.35-.04,.08-.28,.06-.32,.15-.04,.08,.13,.26,.09,.34-.04,.08-.28,.07-.32,.16-.04,.08,.14,.26,.1,.34-.03,.08-.28,.09-.31,.17-.03,.09,.15,.25,.12,.34-.03,.09-.28,.1-.31,.18-.03,.09,.16,.24,.13,.33-.03,.09-.27,.11-.3,.2-.03,.09,.17,.24,.14,.33-.02,.09-.27,.12-.29,.21-.02,.09,.18,.23,.15,.32-.02,.09-.26,.13-.28,.22-.02,.09,.18,.22,.17,.31-.02,.09-.26,.14-.27,.23-.02,.09,.19,.22,.18,.31-.01,.09-.25,.15-.26,.24-.01,.09,.2,.21,.19,.3-.01,.09-.25,.16-.25,.25,0,.09,.21,.2,.2,.29,0,.09-.24,.17-.24,.26,0,.09,.22,.19,.21,.29,0,.09-.23,.18-.23,.27,0,.09,.22,.19,.22,.28s-.23,.19-.22,.28c0,.09,.23,.18,.23,.27,0,.09-.22,.19-.21,.29,0,.09,.24,.17,.24,.26,0,.09-.21,.2-.2,.29,0,.09,.24,.16,.25,.25,.01,.09-.2,.21-.19,.3,.01,.09,.25,.15,.26,.24,.01,.09-.19,.22-.18,.31,.02,.09,.26,.14,.27,.23,.02,.09-.19,.23-.17,.32,.02,.09,.26,.13,.28,.22,.02,.09-.18,.23-.15,.32,.02,.09,.27,.12,.29,.21,.02,.09-.17,.24-.14,.33,.03,.09,.27,.11,.3,.2,.03,.09-.16,.25-.13,.33,.03,.09,.27,.1,.31,.18,.03,.09-.15,.25-.12,.34,.03,.09,.28,.09,.31,.17,.03,.08-.14,.26-.1,.34,.04,.08,.28,.08,.32,.16,.04,.08-.13,.26-.09,.35,.04,.08,.28,.06,.32,.15,.04,.08-.12,.27-.08,.35,.04,.08,.29,.05,.33,.13,.04,.08-.11,.27-.06,.35,.05,.08,.29,.04,.34,.12,.05,.08-.1,.28-.05,.35,.05,.08,.29,.03,.34,.11,.05,.08-.09,.28-.03,.35,.05,.08,.29,.02,.34,.09,.05,.07-.08,.28-.02,.36,.05,.07,.29,0,.35,.08,.06,.07-.06,.28,0,.36,.02,.03,.08,.03,.14,.03,.02,0,.04,0,.06,0,.06,0,.12,0,.14,.03,.06,.07-.05,.29,0,.36,.02,.02,.06,.03,.11,.03,.04,0,.09,0,.13,0,.05,0,.09,0,.11,.03,.06,.07-.04,.29,.02,.36,.02,.02,.05,.03,.09,.03,.05,0,.12-.01,.17-.01,.04,0,.07,0,.09,.02,.06,.07-.03,.29,.03,.35,.02,.02,.05,.02,.08,.02,.06,0,.14-.02,.2-.02,.03,0,.06,0,.08,.02,.07,.06-.02,.29,.05,.35,.02,.01,.04,.02,.07,.02,.07,0,.15-.03,.22-.03,.03,0,.05,0,.07,.02,.07,.06,0,.29,.06,.35,.01,.01,.04,.02,.06,.02,.07,0,.17-.03,.23-.03,.02,0,.05,0,.06,.02,.07,.06,0,.29,.07,.35,.01,.01,.03,.01,.05,.01,.07,0,.18-.04,.25-.04,.02,0,.04,0,.05,.01,.07,.05,.01,.29,.09,.35,.01,0,.03,.01,.05,.01,.07,0,.18-.05,.26-.05,.02,0,.04,0,.05,.01,.08,.05,.02,.29,.1,.34,.01,0,.03,.01,.04,.01,.08,0,.19-.06,.27-.06,.02,0,.03,0,.04,.01,.08,.05,.04,.29,.11,.34,.01,0,.02,0,.04,0,.08,0,.2-.07,.27-.07,.01,0,.03,0,.04,0,.08,.05,.05,.29,.13,.33,.01,0,.02,0,.04,0,.08,0,.2-.08,.28-.08,.01,0,.02,0,.03,0,.08,.04,.06,.29,.14,.33,0,0,.02,0,.03,0,.08,0,.21-.1,.28-.1,.01,0,.02,0,.03,0,.08,.04,.07,.28,.15,.32,0,0,.02,0,.03,0,.08,0,.21-.11,.29-.11,0,0,.02,0,.03,0,.08,.04,.08,.28,.17,.32,0,0,.02,0,.02,0,.08,0,.21-.12,.29-.12,0,0,.02,0,.02,0,.09,.03,.09,.28,.18,.31,0,0,.01,0,.02,0,.08,0,.21-.13,.29-.13,0,0,.01,0,.02,0,.09,.03,.1,.27,.19,.3,0,0,.01,0,.02,0,.08,0,.21-.14,.29-.14,0,0,.01,0,.02,0,.09,.03,.11,.27,.2,.29,0,0,.01,0,.02,0,.08,0,.21-.15,.29-.15,0,0,.01,0,.02,0,.09,.02,.12,.26,.21,.29,0,0,0,0,.01,0,.08,0,.21-.16,.29-.16,0,0,0,0,.01,0,.09,.02,.13,.26,.22,.28,0,0,0,0,.01,0,.09,0,.2-.17,.29-.17,0,0,0,0,.01,0,.09,.02,.14,.25,.23,.27,0,0,0,0,0,0,.09,0,.2-.19,.29-.19,0,0,0,0,0,0,.09,.01,.15,.25,.24,.26,0,0,0,0,0,0,.09,0,.2-.2,.28-.2,0,0,0,0,0,0,.09,0,.16,.24,.25,.25,0,0,0,0,0,0,.09,0,.19-.21,.28-.21,0,0,0,0,0,0,.09,0,.17,.24,.26,.24,0,0,0,0,0,0,.09,0,.19-.22,.28-.22,0,0,0,0,0,0,.09,0,.18,.23,.28,.23s.18-.23,.27-.23c0,0,0,0,0,0,.09,0,.19,.22,.28,.22,0,0,0,0,0,0,.09,0,.17-.23,.26-.24,0,0,0,0,0,0,.09,0,.19,.21,.28,.21,0,0,0,0,0,0,.09,0,.16-.24,.26-.25,0,0,0,0,0,0,.09,0,.2,.2,.29,.2,0,0,0,0,0,0,.09-.01,.15-.25,.25-.26,0,0,0,0,0,0,.09,0,.2,.19,.29,.19,0,0,0,0,0,0,.09-.01,.14-.25,.23-.27,0,0,0,0,.01,0,.09,0,.2,.17,.29,.17,0,0,0,0,.01,0,.09-.02,.13-.26,.22-.28,0,0,0,0,.01,0,.09,0,.21,.16,.29,.16,0,0,0,0,.01,0,.09-.02,.12-.26,.21-.29,0,0,.01,0,.02,0,.08,0,.21,.15,.29,.15,0,0,.01,0,.02,0,.09-.02,.11-.27,.2-.29,0,0,.01,0,.02,0,.08,0,.21,.14,.29,.14,0,0,.01,0,.02,0,.09-.03,.1-.27,.19-.3,0,0,.01,0,.02,0,.08,0,.21,.13,.29,.13,0,0,.02,0,.02,0,.09-.03,.09-.28,.18-.31,0,0,.02,0,.02,0,.08,0,.21,.12,.29,.12,0,0,.02,0,.02,0,.08-.03,.08-.28,.17-.32,0,0,.02,0,.03,0,.08,0,.21,.11,.29,.11,.01,0,.02,0,.03,0,.08-.04,.07-.28,.15-.32,0,0,.02,0,.03,0,.08,0,.21,.1,.28,.1,.01,0,.02,0,.03,0,.08-.04,.06-.28,.14-.33,0,0,.02,0,.03,0,.08,0,.2,.08,.28,.08,.01,0,.03,0,.04,0,.08-.04,.05-.29,.13-.33,.01,0,.02,0,.04,0,.08,0,.2,.07,.27,.07,.02,0,.03,0,.04,0,.08-.05,.04-.29,.11-.34,.01,0,.03-.01,.04-.01,.08,0,.19,.06,.27,.06,.02,0,.03,0,.04-.01,.08-.05,.03-.29,.1-.34,.01,0,.03-.01,.05-.01,.07,0,.18,.05,.26,.05,.02,0,.04,0,.05-.01,.07-.05,.01-.29,.09-.35,.01-.01,.03-.01,.05-.01,.07,0,.18,.04,.25,.04,.02,0,.04,0,.05-.01,.07-.06,0-.29,.07-.35,.01-.01,.04-.02,.06-.02,.07,0,.16,.03,.23,.03,.03,0,.05,0,.06-.02,.07-.06,0-.29,.06-.35,.02-.01,.04-.02,.07-.02,.06,0,.15,.03,.22,.03,.03,0,.05,0,.07-.02,.07-.06-.02-.29,.05-.35,.02-.02,.05-.02,.08-.02,.06,0,.14,.02,.2,.02,.03,0,.06,0,.08-.02,.07-.06-.03-.29,.03-.35,.02-.02,.05-.03,.09-.03,.05,0,.12,.01,.17,.01,.04,0,.07,0,.09-.03,.06-.07-.04-.29,.02-.36,.02-.02,.06-.03,.11-.03,.04,0,.09,0,.13,0,.05,0,.09,0,.11-.03,.06-.07-.05-.29,0-.36,.03-.03,.08-.03,.14-.03,.02,0,.04,0,.06,0,.06,0,.12,0,.15-.03,.06-.07-.06-.28,0-.36,.06-.07,.29,0,.35-.08,.05-.07-.07-.28-.02-.36,.05-.07,.29-.02,.34-.09,.05-.08-.09-.28-.03-.35,.05-.08,.29-.03,.34-.11,.05-.08-.1-.27-.05-.35,.05-.08,.29-.04,.33-.12,.05-.08-.11-.27-.06-.35,.04-.08,.29-.05,.33-.13,.04-.08-.12-.27-.08-.35,.04-.08,.28-.06,.32-.15,.04-.08-.13-.26-.09-.34,.04-.08,.28-.07,.32-.16,.04-.08-.14-.26-.1-.34,.03-.08,.28-.09,.31-.17,.03-.09-.15-.25-.12-.34,.03-.09,.28-.1,.31-.18,.03-.09-.16-.24-.13-.33,.03-.09,.27-.11,.3-.2,.03-.09-.17-.24-.14-.33,.02-.09,.27-.12,.29-.21,.02-.09-.18-.23-.15-.32,.02-.09,.26-.13,.28-.22,.02-.09-.18-.22-.17-.31,.02-.09,.26-.14,.27-.23,.02-.09-.19-.22-.18-.31,.01-.09,.25-.15,.26-.24,.01-.09-.2-.21-.19-.3,.01-.09,.25-.16,.25-.25,0-.09-.21-.2-.2-.29,0-.09,.24-.17,.24-.26,0-.09-.22-.19-.21-.29,0-.09,.23-.18,.23-.27,0-.09-.22-.19-.22-.28s.23-.19,.22-.28c0-.09-.23-.18-.23-.27,0-.09,.22-.19,.21-.29,0-.09-.24-.17-.24-.26,0-.09,.21-.2,.2-.29,0-.09-.24-.16-.25-.25-.01-.09,.2-.21,.19-.3-.01-.09-.25-.15-.26-.24-.01-.09,.19-.22,.18-.31-.02-.09-.26-.14-.27-.23-.02-.09,.19-.23,.17-.32-.02-.09-.26-.13-.28-.22-.02-.09,.18-.23,.15-.32-.02-.09-.27-.12-.29-.21-.02-.09,.17-.24,.14-.33-.03-.09-.27-.11-.3-.2-.03-.09,.16-.25,.13-.33-.03-.09-.27-.1-.31-.18-.03-.09,.15-.25,.12-.34-.03-.09-.28-.09-.31-.17-.03-.08,.14-.26,.1-.34-.04-.08-.28-.08-.32-.16-.04-.08,.13-.26,.09-.35-.04-.08-.28-.06-.32-.15-.04-.08,.12-.27,.08-.35-.04-.08-.29-.05-.33-.13-.04-.08,.11-.27,.06-.35-.05-.08-.29-.04-.34-.12-.05-.08,.1-.28,.05-.35-.05-.08-.29-.03-.34-.11-.05-.08,.09-.28,.03-.35-.05-.08-.29-.02-.34-.09-.05-.07,.08-.28,.02-.36-.05-.07-.29,0-.35-.08-.06-.07,.06-.28,0-.36-.02-.03-.08-.03-.14-.03-.02,0-.04,0-.06,0-.06,0-.12,0-.14-.03-.06-.07,.05-.29,0-.36-.02-.02-.06-.03-.11-.03-.04,0-.09,0-.13,0-.05,0-.09,0-.11-.03-.06-.07,.04-.29-.02-.36-.02-.02-.05-.03-.09-.03-.05,0-.12,.01-.17,.01-.04,0-.07,0-.09-.02-.06-.07,.03-.29-.03-.35-.02-.02-.05-.02-.08-.02-.06,0-.14,.02-.2,.02-.03,0-.06,0-.08-.02-.07-.06,.02-.29-.05-.35-.02-.01-.04-.02-.07-.02-.07,0-.15,.03-.22,.03-.03,0-.05,0-.07-.02-.07-.06,0-.29-.06-.35-.01-.01-.04-.02-.06-.02-.07,0-.17,.03-.23,.03-.02,0-.05,0-.06-.02-.07-.06,0-.29-.07-.35-.01-.01-.03-.01-.05-.01-.07,0-.18,.04-.25,.04-.02,0-.04,0-.05-.01-.07-.05-.01-.29-.09-.35-.01,0-.03-.01-.05-.01-.07,0-.18,.05-.26,.05-.02,0-.04,0-.05-.01-.08-.05-.02-.29-.1-.34-.01,0-.03-.01-.04-.01-.08,0-.19,.06-.27,.06-.02,0-.03,0-.04-.01-.08-.05-.04-.29-.11-.34-.01,0-.02,0-.04,0-.08,0-.2,.07-.27,.07-.01,0-.03,0-.04,0-.08-.05-.05-.29-.13-.33-.01,0-.02,0-.04,0-.08,0-.2,.08-.28,.08-.01,0-.02,0-.03,0-.08-.04-.06-.29-.14-.33,0,0-.02,0-.03,0-.08,0-.21,.1-.28,.1-.01,0-.02,0-.03,0-.08-.04-.07-.28-.15-.32,0,0-.02,0-.03,0-.08,0-.21,.11-.29,.11,0,0-.02,0-.03,0-.08-.04-.08-.28-.17-.32,0,0-.02,0-.02,0-.08,0-.21,.12-.29,.12,0,0-.02,0-.02,0-.09-.03-.09-.28-.18-.31,0,0-.01,0-.02,0-.08,0-.21,.13-.29,.13,0,0-.01,0-.02,0-.09-.03-.1-.27-.19-.3,0,0-.01,0-.02,0-.08,0-.21,.14-.29,.14,0,0-.01,0-.02,0-.09-.03-.11-.27-.2-.29,0,0-.01,0-.02,0-.08,0-.21,.15-.29,.15,0,0-.01,0-.02,0-.09-.02-.12-.26-.21-.29,0,0,0,0-.01,0-.08,0-.21,.16-.29,.16,0,0,0,0-.01,0-.09-.02-.13-.26-.22-.28,0,0,0,0-.01,0-.09,0-.2,.17-.29,.17,0,0,0,0-.01,0-.09-.02-.14-.25-.23-.27,0,0,0,0,0,0-.09,0-.2,.19-.29,.19,0,0,0,0,0,0-.09-.01-.15-.25-.24-.26,0,0,0,0,0,0-.09,0-.2,.2-.28,.2,0,0,0,0,0,0-.09,0-.16-.24-.25-.25,0,0,0,0,0,0-.09,0-.19,.21-.28,.21,0,0,0,0,0,0-.09,0-.17-.24-.26-.24,0,0,0,0,0,0-.09,0-.19,.22-.28,.22,0,0,0,0,0,0-.09,0-.18-.23-.28-.23h0Z" style="fill:#942925;"/></g><path d="M14.29,3.49c.06,.03,.13,.05,.22,.05,.08,0,.15-.02,.21-.04,.06,.03,.14,.05,.23,.06,.07,0,.13-.01,.18-.03,.06,.03,.13,.05,.2,.06h.03s.02,0,.02,0c.06,0,.11,0,.16-.02,.06,.03,.12,.06,.2,.07h.04s.03,0,.03,0c.05,0,.1,0,.14-.02,.06,.04,.12,.06,.2,.08h.05s.04,0,.04,0c.04,0,.08,0,.12-.01,.05,.04,.12,.07,.2,.08h.06s.05,.01,.05,.01c.03,0,.07,0,.1,0,.05,.04,.12,.07,.19,.09l.07,.02h.06s.05,0,.08,0c.05,.04,.11,.08,.19,.1l.08,.02h.07s.04,0,.05,0c.05,.04,.11,.08,.18,.11l.1,.03h.08s.02,0,.03,0c.05,.05,.11,.09,.18,.11l.11,.04h.09s0,0,.01,0c.05,.05,.1,.09,.18,.12l.12,.05h.09s.1,.09,.17,.13l.13,.05h.08s.1,.1,.17,.13l.14,.06h.07c.04,.05,.09,.1,.16,.14l.15,.07h.06c.04,.05,.09,.1,.15,.14l.16,.09h.05c.03,.05,.08,.1,.14,.14l.17,.1h.04c.03,.05,.08,.1,.14,.14l.18,.11h.03c.03,.05,.07,.1,.13,.14,.04,.04,.11,.07,.19,.1,.03,.06,.07,.12,.13,.17,.04,.04,.1,.08,.18,.11,.03,.06,.07,.12,.12,.17,.04,.04,.1,.08,.18,.11,.02,.06,.06,.12,.12,.18,.04,.04,.1,.09,.18,.12,.02,.06,.06,.12,.11,.18,.05,.05,.11,.1,.17,.13,.02,.06,.05,.13,.1,.19,.05,.06,.11,.1,.17,.13,.02,.06,.05,.13,.1,.19,.05,.06,.1,.11,.16,.14,.01,.06,.04,.13,.09,.19,.05,.06,.1,.11,.16,.15,.01,.06,.04,.13,.08,.2,.04,.07,.1,.11,.15,.15,0,.06,.03,.13,.07,.2,.04,.07,.09,.12,.14,.16,0,.07,.03,.13,.07,.2,.04,.07,.09,.12,.14,.16,0,.07,.02,.13,.06,.21,.04,.07,.08,.13,.13,.17,0,.07,.02,.14,.05,.21,.03,.07,.08,.13,.12,.17,0,.07,.01,.14,.04,.21,.03,.07,.07,.13,.12,.18,0,.07,0,.14,.03,.21,.03,.07,.07,.13,.11,.18,0,.07,0,.14,.02,.21,.02,.08,.06,.14,.1,.19,0,.06,0,.14,.02,.21,.02,.08,.06,.14,.1,.19-.01,.06-.01,.14,0,.21,.02,.08,.05,.14,.09,.19-.01,.06-.02,.14,0,.21,.02,.08,.04,.14,.08,.2-.02,.06-.02,.14,0,.21,.01,.08,.04,.14,.07,.2-.02,.06-.03,.13-.02,.21,0,.08,.03,.15,.07,.2-.02,.06-.03,.13-.03,.21,0,.08,.03,.15,.06,.21-.02,.06-.04,.13-.03,.21,0,.08,.02,.15,.05,.21-.03,.06-.04,.13-.04,.21s.02,.15,.04,.21c-.03,.06-.05,.13-.05,.21,0,.08,.01,.15,.03,.21-.03,.06-.05,.13-.06,.21,0,.08,0,.15,.03,.21-.03,.06-.06,.12-.07,.2,0,.08,0,.15,.02,.21-.03,.06-.06,.12-.07,.2-.01,.08,0,.15,0,.21-.04,.05-.07,.12-.08,.2-.02,.08-.01,.15,0,.21-.04,.05-.07,.12-.09,.19-.02,.08-.02,.15,0,.21-.04,.05-.07,.11-.1,.19-.02,.08-.02,.15-.02,.21-.04,.05-.08,.11-.1,.19-.02,.08-.03,.15-.02,.21-.04,.05-.08,.11-.11,.18-.03,.07-.04,.14-.03,.21-.05,.05-.09,.1-.12,.18-.03,.07-.04,.14-.04,.21-.05,.04-.09,.1-.12,.17-.03,.07-.05,.14-.05,.21-.05,.04-.1,.1-.13,.17-.04,.07-.05,.14-.06,.2-.05,.04-.1,.09-.14,.16-.04,.07-.06,.14-.06,.2-.05,.04-.1,.09-.14,.16s-.06,.13-.07,.2c-.05,.04-.11,.09-.15,.15-.04,.07-.07,.13-.08,.2-.06,.03-.11,.08-.16,.15-.05,.06-.07,.13-.09,.19-.06,.03-.11,.08-.16,.14-.05,.06-.08,.13-.1,.19-.06,.03-.12,.07-.17,.13-.05,.06-.08,.12-.1,.19-.06,.03-.12,.07-.17,.13-.05,.06-.09,.12-.11,.18-.08,.03-.14,.08-.18,.12-.06,.06-.09,.12-.12,.18-.08,.03-.14,.07-.18,.11-.06,.05-.1,.11-.12,.17-.08,.03-.14,.07-.18,.11-.06,.05-.1,.11-.13,.17-.08,.02-.15,.06-.19,.1-.06,.05-.1,.1-.13,.15h-.07s-.13,.1-.13,.1c-.06,.05-.11,.1-.14,.15h-.07s-.13,.09-.13,.09c-.06,.04-.11,.09-.15,.15h-.08s-.12,.08-.12,.08c-.07,.04-.12,.09-.15,.14h-.09s-.12,.07-.12,.07c-.07,.04-.12,.09-.16,.14h-.1s-.11,.06-.11,.06c-.07,.04-.12,.08-.17,.13h-.1s-.1,.05-.1,.05c-.07,.03-.13,.08-.17,.13h-.11s-.1,.04-.1,.04c-.07,.03-.13,.07-.18,.12,0,0,0,0-.01,0h-.11s-.09,.04-.09,.04c-.07,.03-.13,.07-.18,.11-.01,0-.02,0-.03,0h-.1s-.08,.03-.08,.03c-.07,.03-.14,.06-.18,.11-.02,0-.04,0-.05,0h-.09s-.07,.02-.07,.02c-.08,.02-.14,.06-.19,.1-.02,0-.05,0-.08,0h-.08s-.06,.02-.06,.02c-.08,.02-.14,.05-.19,.09-.03,0-.06,0-.1,0h-.06s-.05,.01-.05,.01c-.08,.02-.14,.05-.2,.08-.04,0-.08-.01-.12-.01h-.05s-.04,0-.04,0c-.08,.01-.14,.04-.2,.08-.04-.01-.09-.02-.14-.02h-.04s-.03,0-.03,0c-.08,.01-.15,.04-.2,.07-.05-.01-.1-.02-.16-.02h-.03s-.02,0-.02,0c-.08,0-.15,.03-.21,.06-.06-.02-.13-.03-.21-.03,0,0,0,0,0,0-.08,0-.15,.03-.21,.05-.06-.02-.13-.04-.21-.04h0c-.08,0-.15,.02-.21,.05-.06-.03-.13-.05-.22-.05-.08,0-.15,.02-.21,.04-.06-.03-.14-.05-.23-.06-.07,0-.13,.01-.18,.03-.06-.03-.13-.05-.2-.06h-.03s-.02,0-.02,0c-.06,0-.11,0-.16,.02-.06-.03-.12-.06-.2-.07h-.04s-.03,0-.03,0c-.05,0-.1,0-.14,.02-.06-.04-.12-.06-.2-.08h-.05s-.04,0-.04,0c-.04,0-.08,0-.12,.01-.05-.04-.12-.07-.2-.08h-.06s-.05-.01-.05-.01c-.03,0-.07,0-.1,0-.05-.04-.12-.07-.19-.09l-.07-.02h-.06s-.05,0-.08,0c-.05-.04-.11-.08-.19-.1l-.08-.02h-.07s-.04,0-.05,0c-.05-.04-.11-.08-.18-.11l-.1-.03h-.08s-.02,0-.03,0c-.05-.05-.11-.09-.18-.11l-.11-.04h-.09s0,0-.01,0c-.05-.05-.1-.09-.18-.12l-.12-.05h-.09s-.1-.09-.17-.13l-.13-.05h-.08s-.1-.1-.17-.13l-.14-.06h-.07c-.04-.05-.09-.1-.16-.14l-.15-.07h-.06c-.04-.05-.09-.1-.15-.14l-.16-.09h-.05c-.03-.05-.08-.1-.14-.14l-.17-.1h-.04c-.03-.05-.08-.1-.14-.14l-.18-.11h-.03c-.03-.05-.07-.1-.13-.14-.04-.04-.11-.07-.19-.1-.03-.06-.07-.12-.13-.17-.04-.04-.1-.08-.18-.11-.03-.06-.07-.12-.12-.17-.04-.04-.1-.08-.18-.11-.02-.06-.06-.12-.12-.18-.04-.04-.1-.09-.18-.12-.02-.06-.06-.12-.11-.18-.05-.05-.11-.1-.17-.13-.02-.06-.05-.13-.1-.19-.05-.06-.11-.1-.17-.13-.02-.06-.05-.13-.1-.19-.05-.06-.1-.11-.16-.14-.01-.06-.04-.13-.09-.19-.05-.06-.1-.11-.16-.15-.01-.06-.04-.13-.08-.2-.04-.07-.1-.11-.15-.15,0-.06-.03-.13-.07-.2-.04-.07-.09-.12-.14-.16,0-.07-.03-.13-.07-.2-.04-.07-.09-.12-.14-.16,0-.07-.02-.13-.06-.21-.04-.07-.08-.13-.13-.17,0-.07-.02-.14-.05-.21-.03-.07-.08-.13-.12-.17,0-.07-.01-.14-.04-.21-.03-.07-.07-.13-.12-.18,0-.07,0-.14-.03-.21-.03-.07-.07-.13-.11-.18,0-.07,0-.14-.02-.21-.02-.08-.06-.14-.1-.19,0-.06,0-.14-.02-.21-.02-.08-.06-.14-.1-.19,.01-.06,.01-.14,0-.21-.02-.08-.05-.14-.09-.19,.01-.06,.02-.14,0-.21-.02-.08-.04-.14-.08-.2,.02-.06,.02-.14,0-.21-.01-.08-.04-.14-.07-.2,.02-.06,.03-.13,.02-.21,0-.08-.03-.15-.07-.2,.02-.06,.03-.13,.03-.21,0-.08-.03-.15-.06-.21,.02-.06,.04-.13,.03-.21,0-.08-.02-.15-.05-.21,.03-.06,.04-.13,.04-.21s-.02-.15-.04-.21c.03-.06,.05-.13,.05-.21,0-.08-.01-.15-.03-.21,.03-.06,.05-.13,.06-.21,0-.08,0-.15-.03-.21,.03-.06,.06-.12,.07-.2,0-.08,0-.15-.02-.21,.03-.06,.06-.12,.07-.2,.01-.08,0-.15,0-.21,.04-.05,.07-.12,.08-.2,.02-.08,.01-.15,0-.21,.04-.05,.07-.12,.09-.19,.02-.08,.02-.15,0-.21,.04-.05,.07-.11,.1-.19,.02-.08,.02-.15,.02-.21,.04-.05,.08-.11,.1-.19,.02-.08,.03-.15,.02-.21,.04-.05,.08-.11,.11-.18,.03-.07,.04-.14,.03-.21,.05-.05,.09-.1,.12-.18,.03-.07,.04-.14,.04-.21,.05-.04,.09-.1,.12-.17,.03-.07,.05-.14,.05-.21,.05-.04,.1-.1,.13-.17,.04-.07,.05-.14,.06-.2,.05-.04,.1-.09,.14-.16,.04-.07,.06-.14,.06-.2,.05-.04,.1-.09,.14-.16,.04-.07,.06-.13,.07-.2,.05-.04,.11-.09,.15-.15,.04-.07,.07-.13,.08-.2,.06-.03,.11-.08,.16-.15,.05-.06,.07-.13,.09-.19,.06-.03,.11-.08,.16-.14,.05-.06,.08-.13,.1-.19,.06-.03,.12-.07,.17-.13,.05-.06,.08-.12,.1-.19,.06-.03,.12-.07,.17-.13,.05-.06,.09-.12,.11-.18,.08-.03,.14-.08,.18-.12,.06-.06,.09-.12,.12-.18,.08-.03,.14-.07,.18-.11,.06-.05,.1-.11,.12-.17,.08-.03,.14-.07,.18-.11,.06-.05,.1-.11,.13-.17,.08-.02,.15-.06,.19-.1,.06-.05,.1-.1,.13-.15h.07s.13-.1,.13-.1c.06-.05,.11-.1,.14-.15h.07s.13-.09,.13-.09c.06-.04,.11-.09,.15-.15h.08s.12-.08,.12-.08c.07-.04,.12-.09,.15-.14h.09s.12-.07,.12-.07c.07-.04,.12-.09,.16-.14h.1s.11-.06,.11-.06c.07-.04,.12-.08,.17-.13h.1s.1-.05,.1-.05c.07-.03,.13-.08,.17-.13h.11s.1-.04,.1-.04c.07-.03,.13-.07,.18-.12,0,0,0,0,.01,0h.11s.09-.04,.09-.04c.07-.03,.13-.07,.18-.11,.01,0,.02,0,.03,0h.1s.08-.03,.08-.03c.07-.03,.14-.06,.18-.11,.02,0,.04,0,.05,0h.09s.07-.02,.07-.02c.08-.02,.14-.06,.19-.1,.02,0,.05,0,.08,0h.08s.06-.02,.06-.02c.08-.02,.14-.05,.19-.09,.03,0,.06,0,.1,0h.06s.05-.01,.05-.01c.08-.02,.14-.05,.2-.08,.04,0,.08,.01,.12,.01h.05s.04,0,.04,0c.08-.01,.14-.04,.2-.08,.04,.01,.09,.02,.14,.02h.04s.03,0,.03,0c.08-.01,.15-.04,.2-.07,.05,.01,.1,.02,.16,.02h.03s.02,0,.02,0c.08,0,.15-.03,.21-.06,.06,.02,.13,.03,.21,.03,0,0,0,0,0,0,.08,0,.15-.03,.21-.05,.06,.02,.13,.04,.21,.04h0c.08,0,.15-.02,.21-.05m0-.64c-.07,0-.15,.18-.22,.18,0,0,0,0,0,0-.07,0-.15-.18-.22-.18,0,0,0,0,0,0-.07,0-.14,.19-.21,.19,0,0,0,0,0,0-.07,0-.15-.17-.23-.17,0,0,0,0,0,0-.07,0-.13,.19-.2,.2,0,0,0,0,0,0-.07,0-.16-.16-.23-.16,0,0,0,0,0,0-.07,0-.12,.2-.2,.21,0,0,0,0,0,0-.07,0-.16-.15-.23-.15,0,0,0,0,0,0-.07,.01-.12,.2-.19,.21,0,0,0,0,0,0-.07,0-.16-.14-.23-.14,0,0,0,0,0,0-.07,.01-.11,.21-.18,.22,0,0,0,0-.01,0-.07,0-.17-.13-.23-.13,0,0,0,0-.01,0-.07,.02-.1,.21-.17,.23,0,0,0,0-.01,0-.07,0-.17-.12-.23-.12,0,0,0,0-.01,0-.07,.02-.09,.21-.16,.24,0,0,0,0-.01,0-.07,0-.17-.11-.23-.11,0,0-.01,0-.02,0-.07,.02-.08,.22-.15,.24,0,0-.01,0-.02,0-.07,0-.17-.1-.23-.1,0,0-.01,0-.02,0-.07,.03-.07,.22-.14,.25,0,0-.01,0-.02,0-.07,0-.17-.09-.23-.09,0,0-.01,0-.02,0-.07,.03-.07,.22-.13,.25,0,0-.01,0-.02,0-.06,0-.17-.08-.23-.08,0,0-.02,0-.02,0-.07,.03-.06,.23-.12,.26,0,0-.02,0-.02,0-.06,0-.16-.08-.23-.08,0,0-.02,0-.03,0-.07,.03-.05,.23-.11,.26,0,0-.02,0-.03,0-.06,0-.16-.07-.22-.07-.01,0-.02,0-.03,0-.06,.04-.04,.23-.1,.27,0,0-.02,0-.03,0-.06,0-.16-.06-.22-.06-.01,0-.02,0-.03,0-.06,.04-.03,.23-.09,.27,0,0-.02,0-.03,0-.06,0-.15-.05-.21-.05-.01,0-.03,0-.04,0-.06,.04-.02,.23-.08,.27-.01,0-.02,0-.04,0-.06,0-.15-.04-.21-.04-.02,0-.03,0-.04,.01-.06,.04-.01,.23-.07,.28-.01,0-.03,.01-.04,.01-.06,0-.14-.03-.2-.03-.02,0-.03,0-.04,.01-.06,.04,0,.23-.06,.28-.01,0-.03,.01-.05,.01-.05,0-.13-.03-.19-.03-.02,0-.04,0-.05,.01-.06,.05,0,.23-.05,.28-.01,.01-.03,.02-.06,.02-.05,0-.12-.02-.17-.02-.02,0-.04,0-.06,.02-.05,.05,.02,.23-.04,.28-.01,.01-.04,.02-.06,.02-.05,0-.11-.01-.16-.01-.03,0-.05,0-.06,.02-.05,.05,.02,.23-.03,.28-.02,.02-.04,.02-.07,.02-.04,0-.09,0-.14,0-.03,0-.06,0-.07,.02-.05,.05,.03,.23-.02,.28-.02,.02-.05,.02-.09,.02-.03,0-.07,0-.1,0-.04,0-.07,0-.09,.02-.05,.06,.04,.23,0,.28-.02,.02-.07,.03-.12,.03-.02,0-.03,0-.05,0-.05,0-.1,0-.12,.03-.05,.06,.05,.23,0,.28-.04,.06-.23,0-.28,.07-.04,.06,.06,.22,.02,.28-.04,.06-.23,.02-.27,.08-.04,.06,.07,.22,.03,.28-.04,.06-.23,.02-.27,.09-.04,.06,.08,.22,.04,.28-.04,.06-.23,.03-.27,.1-.04,.06,.09,.22,.05,.28-.04,.06-.23,.04-.26,.11-.03,.06,.09,.21,.06,.28-.03,.07-.23,.05-.26,.12-.03,.07,.1,.21,.07,.28-.03,.07-.23,.06-.25,.13-.03,.07,.11,.2,.08,.27-.03,.07-.22,.07-.25,.14-.03,.07,.12,.2,.09,.27-.03,.07-.22,.08-.24,.15-.02,.07,.13,.2,.1,.27-.02,.07-.22,.09-.24,.16-.02,.07,.13,.19,.11,.26-.02,.07-.21,.09-.23,.16-.02,.07,.14,.19,.12,.26-.02,.07-.21,.1-.23,.17-.02,.07,.15,.18,.13,.25-.01,.07-.21,.11-.22,.18-.01,.07,.15,.17,.14,.25-.01,.07-.2,.12-.21,.19,0,.07,.16,.17,.15,.24,0,.07-.2,.13-.2,.2,0,.07,.17,.16,.16,.23,0,.07-.19,.13-.2,.21,0,.07,.17,.16,.17,.23,0,.07-.19,.14-.19,.22,0,.07,.18,.15,.18,.22s-.18,.15-.18,.22c0,.07,.18,.14,.19,.22,0,.07-.17,.16-.17,.23,0,.07,.19,.13,.2,.21,0,.07-.17,.16-.16,.24,0,.07,.2,.13,.2,.2,0,.07-.16,.17-.15,.24,0,.07,.2,.12,.21,.19,.01,.07-.16,.17-.14,.25,.01,.07,.2,.11,.22,.18,.01,.07-.15,.18-.13,.25,.02,.07,.21,.1,.23,.17,.02,.07-.14,.19-.12,.26,.02,.07,.21,.1,.23,.17,.02,.07-.13,.19-.11,.26,.02,.07,.22,.09,.24,.16,.02,.07-.13,.2-.1,.27,.02,.07,.22,.08,.24,.15,.03,.07-.12,.2-.09,.27,.03,.07,.22,.07,.25,.14,.03,.07-.11,.21-.08,.27,.03,.07,.22,.06,.26,.13,.03,.07-.1,.21-.07,.28,.03,.07,.23,.05,.26,.12,.03,.07-.09,.21-.06,.28,.03,.06,.23,.04,.26,.11,.04,.06-.09,.22-.05,.28,.04,.06,.23,.03,.27,.1,.04,.06-.08,.22-.04,.28,.04,.06,.23,.03,.27,.09,.04,.06-.07,.22-.03,.28,.04,.06,.23,.02,.27,.08,.04,.06-.06,.23-.02,.28,.04,.06,.23,0,.28,.06,.04,.06-.05,.23,0,.28,.02,.02,.07,.03,.11,.03,.02,0,.03,0,.05,0,.05,0,.09,0,.11,.03,.05,.06-.04,.23,0,.28,.02,.02,.05,.02,.09,.02,.03,0,.07,0,.11,0,.04,0,.07,0,.09,.02,.05,.05-.03,.23,.02,.28,.02,.02,.04,.02,.07,.02,.04,0,.09,0,.14,0,.03,0,.06,0,.07,.02,.05,.05-.03,.23,.03,.28,.01,.01,.04,.02,.06,.02,.05,0,.11-.01,.16-.01,.03,0,.05,0,.06,.02,.05,.05-.02,.23,.04,.28,.01,.01,.03,.02,.06,.02,.05,0,.12-.02,.17-.02,.02,0,.04,0,.05,.02,.06,.05,0,.23,.05,.28,.01,0,.03,.01,.05,.01,.05,0,.13-.03,.19-.03,.02,0,.04,0,.05,.01,.06,.05,0,.23,.06,.28,.01,0,.03,.01,.04,.01,.06,0,.14-.03,.2-.03,.02,0,.03,0,.04,.01,.06,.04,.01,.23,.07,.28,.01,0,.02,.01,.04,.01,.06,0,.15-.04,.21-.04,.02,0,.03,0,.04,0,.06,.04,.02,.23,.08,.27,0,0,.02,0,.03,0,.06,0,.15-.05,.21-.05,.01,0,.02,0,.03,0,.06,.04,.03,.23,.09,.27,0,0,.02,0,.03,0,.06,0,.16-.06,.22-.06,.01,0,.02,0,.03,0,.06,.04,.04,.23,.1,.27,0,0,.02,0,.03,0,.06,0,.16-.07,.22-.07,.01,0,.02,0,.03,0,.06,.03,.05,.23,.11,.26,0,0,.02,0,.03,0,.06,0,.16-.08,.23-.08,0,0,.02,0,.02,0,.07,.03,.06,.23,.12,.26,0,0,.01,0,.02,0,.06,0,.17-.09,.23-.09,0,0,.02,0,.02,0,.07,.03,.06,.22,.13,.25,0,0,.01,0,.02,0,.06,0,.17-.09,.23-.09,0,0,.01,0,.02,0,.07,.03,.07,.22,.14,.25,0,0,.01,0,.02,0,.07,0,.17-.1,.23-.1,0,0,.01,0,.02,0,.07,.02,.08,.22,.15,.24,0,0,0,0,.02,0,.07,0,.17-.11,.23-.11,0,0,0,0,.01,0,.07,.02,.09,.22,.16,.24,0,0,0,0,.01,0,.07,0,.17-.12,.23-.12,0,0,0,0,.01,0,.07,.02,.1,.21,.17,.23,0,0,0,0,.01,0,.07,0,.17-.13,.23-.13,0,0,0,0,.01,0,.07,.02,.11,.21,.18,.22,0,0,0,0,0,0,.07,0,.16-.14,.23-.14,0,0,0,0,0,0,.07,.01,.11,.2,.19,.21,0,0,0,0,0,0,.07,0,.16-.15,.23-.15,0,0,0,0,0,0,.07,0,.12,.2,.2,.21,0,0,0,0,0,0,.07,0,.16-.16,.23-.16,0,0,0,0,0,0,.07,0,.13,.19,.2,.2,0,0,0,0,0,0,.07,0,.15-.17,.23-.17,0,0,0,0,0,0,.07,0,.14,.19,.21,.19,0,0,0,0,0,0,.07,0,.15-.18,.22-.18,0,0,0,0,0,0,.07,0,.15,.18,.22,.18s.15-.18,.22-.18c0,0,0,0,0,0,.07,0,.15,.18,.22,.18,0,0,0,0,0,0,.07,0,.14-.19,.21-.19,0,0,0,0,0,0,.07,0,.15,.17,.23,.17,0,0,0,0,0,0,.07,0,.13-.19,.2-.2,0,0,0,0,0,0,.07,0,.16,.16,.23,.16,0,0,0,0,0,0,.07,0,.12-.2,.2-.21,0,0,0,0,0,0,.07,0,.16,.15,.23,.15,0,0,0,0,0,0,.07-.01,.12-.2,.19-.21,0,0,0,0,0,0,.07,0,.16,.14,.23,.14,0,0,0,0,0,0,.07-.01,.11-.21,.18-.22,0,0,0,0,.01,0,.07,0,.17,.13,.23,.13,0,0,0,0,.01,0,.07-.02,.1-.21,.17-.23,0,0,0,0,.01,0,.07,0,.17,.12,.23,.12,0,0,0,0,.01,0,.07-.02,.09-.21,.16-.24,0,0,0,0,.01,0,.07,0,.17,.11,.23,.11,0,0,.01,0,.02,0,.07-.02,.08-.22,.15-.24,0,0,.01,0,.02,0,.07,0,.17,.1,.23,.1,0,0,.01,0,.02,0,.07-.03,.07-.22,.14-.25,0,0,.01,0,.02,0,.07,0,.17,.09,.23,.09,0,0,.01,0,.02,0,.07-.03,.07-.22,.13-.25,0,0,.01,0,.02,0,.06,0,.17,.08,.23,.08,0,0,.02,0,.02,0,.07-.03,.06-.23,.12-.26,0,0,.02,0,.02,0,.06,0,.16,.08,.23,.08,0,0,.02,0,.03,0,.07-.03,.05-.23,.11-.26,0,0,.02,0,.03,0,.06,0,.16,.07,.22,.07,.01,0,.02,0,.03,0,.06-.04,.04-.23,.1-.27,0,0,.02,0,.03,0,.06,0,.16,.06,.22,.06,.01,0,.02,0,.03,0,.06-.04,.03-.23,.09-.27,0,0,.02,0,.03,0,.06,0,.15,.05,.21,.05,.01,0,.03,0,.04,0,.06-.04,.02-.23,.08-.27,.01,0,.02,0,.04,0,.06,0,.15,.04,.21,.04,.02,0,.03,0,.04-.01,.06-.04,.01-.23,.07-.28,.01,0,.03-.01,.04-.01,.06,0,.14,.03,.2,.03,.02,0,.03,0,.04-.01,.06-.04,0-.23,.06-.28,.01,0,.03-.01,.05-.01,.05,0,.13,.03,.19,.03,.02,0,.04,0,.05-.01,.06-.05,0-.23,.05-.28,.01-.01,.03-.02,.06-.02,.05,0,.12,.02,.17,.02,.02,0,.04,0,.06-.02,.05-.05-.02-.23,.04-.28,.01-.01,.04-.02,.06-.02,.05,0,.11,.01,.16,.01,.03,0,.05,0,.06-.02,.05-.05-.02-.23,.03-.28,.02-.02,.04-.02,.07-.02,.04,0,.09,0,.14,0,.03,0,.06,0,.07-.02,.05-.05-.03-.23,.02-.28,.02-.02,.05-.02,.09-.02,.03,0,.07,0,.1,0,.04,0,.07,0,.09-.02,.05-.06-.04-.23,0-.28,.02-.02,.07-.03,.12-.03,.02,0,.03,0,.05,0,.05,0,.1,0,.12-.03,.05-.06-.05-.23,0-.28,.04-.06,.23,0,.28-.07,.04-.06-.06-.22-.02-.28,.04-.06,.23-.02,.27-.08,.04-.06-.07-.22-.03-.28,.04-.06,.23-.02,.27-.09,.04-.06-.08-.22-.04-.28,.04-.06,.23-.03,.27-.1,.04-.06-.09-.22-.05-.28,.04-.06,.23-.04,.26-.11,.03-.06-.09-.21-.06-.28,.03-.07,.23-.05,.26-.12,.03-.07-.1-.21-.07-.28,.03-.07,.23-.06,.25-.13,.03-.07-.11-.2-.08-.27,.03-.07,.22-.07,.25-.14,.03-.07-.12-.2-.09-.27,.03-.07,.22-.08,.24-.15,.02-.07-.13-.2-.1-.27,.02-.07,.22-.09,.24-.16,.02-.07-.13-.19-.11-.26,.02-.07,.21-.09,.23-.16,.02-.07-.14-.19-.12-.26,.02-.07,.21-.1,.23-.17,.02-.07-.15-.18-.13-.25,.01-.07,.21-.11,.22-.18,.01-.07-.15-.17-.14-.25,.01-.07,.2-.12,.21-.19,0-.07-.16-.17-.15-.24,0-.07,.2-.13,.2-.2,0-.07-.17-.16-.16-.23,0-.07,.19-.13,.2-.21,0-.07-.17-.16-.17-.23,0-.07,.19-.14,.19-.22,0-.07-.18-.15-.18-.22s.18-.15,.18-.22c0-.07-.18-.14-.19-.22,0-.07,.17-.16,.17-.23,0-.07-.19-.13-.2-.21,0-.07,.17-.16,.16-.24,0-.07-.2-.13-.2-.2,0-.07,.16-.17,.15-.24,0-.07-.2-.12-.21-.19-.01-.07,.16-.17,.14-.25-.01-.07-.2-.11-.22-.18-.01-.07,.15-.18,.13-.25-.02-.07-.21-.1-.23-.17-.02-.07,.14-.19,.12-.26-.02-.07-.21-.1-.23-.17-.02-.07,.13-.19,.11-.26-.02-.07-.22-.09-.24-.16-.02-.07,.13-.2,.1-.27-.02-.07-.22-.08-.24-.15-.03-.07,.12-.2,.09-.27-.03-.07-.22-.07-.25-.14-.03-.07,.11-.21,.08-.27-.03-.07-.22-.06-.26-.13-.03-.07,.1-.21,.07-.28-.03-.07-.23-.05-.26-.12-.03-.07,.09-.21,.06-.28-.03-.06-.23-.04-.26-.11-.04-.06,.09-.22,.05-.28-.04-.06-.23-.03-.27-.1-.04-.06,.08-.22,.04-.28-.04-.06-.23-.03-.27-.09-.04-.06,.07-.22,.03-.28-.04-.06-.23-.02-.27-.08-.04-.06,.06-.23,.02-.28-.04-.06-.23,0-.28-.06-.04-.06,.05-.23,0-.28-.02-.02-.07-.03-.11-.03-.02,0-.03,0-.05,0-.05,0-.09,0-.11-.03-.05-.06,.04-.23,0-.28-.02-.02-.05-.02-.09-.02-.03,0-.07,0-.11,0-.04,0-.07,0-.09-.02-.05-.05,.03-.23-.02-.28-.02-.02-.04-.02-.07-.02-.04,0-.09,0-.14,0-.03,0-.06,0-.07-.02-.05-.05,.03-.23-.03-.28-.01-.01-.04-.02-.06-.02-.05,0-.11,.01-.16,.01-.03,0-.05,0-.06-.02-.05-.05,.02-.23-.04-.28-.01-.01-.03-.02-.06-.02-.05,0-.12,.02-.17,.02-.02,0-.04,0-.05-.02-.06-.05,0-.23-.05-.28-.01,0-.03-.01-.05-.01-.05,0-.13,.03-.19,.03-.02,0-.04,0-.05-.01-.06-.05,0-.23-.06-.28-.01,0-.03-.01-.04-.01-.06,0-.14,.03-.2,.03-.02,0-.03,0-.04-.01-.06-.04-.01-.23-.07-.28-.01,0-.02-.01-.04-.01-.06,0-.15,.04-.21,.04-.02,0-.03,0-.04,0-.06-.04-.02-.23-.08-.27,0,0-.02,0-.03,0-.06,0-.15,.05-.21,.05-.01,0-.02,0-.03,0-.06-.04-.03-.23-.09-.27,0,0-.02,0-.03,0-.06,0-.16,.06-.22,.06-.01,0-.02,0-.03,0-.06-.04-.04-.23-.1-.27,0,0-.02,0-.03,0-.06,0-.16,.07-.22,.07-.01,0-.02,0-.03,0-.06-.03-.05-.23-.11-.26,0,0-.02,0-.03,0-.06,0-.16,.08-.23,.08,0,0-.02,0-.02,0-.07-.03-.06-.23-.12-.26,0,0-.01,0-.02,0-.06,0-.17,.09-.23,.09,0,0-.02,0-.02,0-.07-.03-.06-.22-.13-.25,0,0-.01,0-.02,0-.06,0-.17,.09-.23,.09,0,0-.01,0-.02,0-.07-.03-.07-.22-.14-.25,0,0-.01,0-.02,0-.07,0-.17,.1-.23,.1,0,0-.01,0-.02,0-.07-.02-.08-.22-.15-.24,0,0,0,0-.02,0-.07,0-.17,.11-.23,.11,0,0,0,0-.01,0-.07-.02-.09-.22-.16-.24,0,0,0,0-.01,0-.07,0-.17,.12-.23,.12,0,0,0,0-.01,0-.07-.02-.1-.21-.17-.23,0,0,0,0-.01,0-.07,0-.17,.13-.23,.13,0,0,0,0-.01,0-.07-.02-.11-.21-.18-.22,0,0,0,0,0,0-.07,0-.16,.14-.23,.14,0,0,0,0,0,0-.07-.01-.11-.2-.19-.21,0,0,0,0,0,0-.07,0-.16,.15-.23,.15,0,0,0,0,0,0-.07,0-.12-.2-.2-.21,0,0,0,0,0,0-.07,0-.16,.16-.23,.16,0,0,0,0,0,0-.07,0-.13-.19-.2-.2,0,0,0,0,0,0-.07,0-.15,.17-.23,.17,0,0,0,0,0,0-.07,0-.14-.19-.21-.19,0,0,0,0,0,0-.07,0-.15,.18-.22,.18,0,0,0,0,0,0-.07,0-.15-.18-.22-.18h0Z" style="fill:#fff;"/><rect x="12.69" y=".11" width="3.19" height="15.24" rx="1.25" ry="1.25" style="fill:#e4e5e6;"/><rect x="12.87" y=".11" width="2.83" height="15.24" rx="1.18" ry="1.18" style="fill:#231f20;"/></svg>